<?xml version="1.0" encoding="UTF-8"?>
<svg version="1.1" xmlns="http://www.w3.org/2000/svg" width="2534" height="988">
<path d="M0 0 C0.77597534 -0.00794586 1.55195068 -0.01589172 2.35144043 -0.02407837 C17.38040479 -0.14213078 32.10718309 1.56228612 46.5 6.0625 C47.3252417 6.31741211 48.1504834 6.57232422 49.00073242 6.83496094 C71.21230381 13.96549512 90.14681159 26.79382561 106.4375 43.375 C106.46255615 42.45162842 106.4876123 41.52825684 106.51342773 40.5769043 C106.60859045 37.14953584 106.70782214 33.72233539 106.80981445 30.29516602 C106.8531133 28.81213985 106.89479199 27.32906546 106.93481445 25.84594727 C106.99263958 23.71355661 107.05629832 21.58140758 107.12109375 19.44921875 C107.15775146 18.16619873 107.19440918 16.88317871 107.23217773 15.5612793 C107.4375 12.375 107.4375 12.375 108.4375 9.375 C134.8375 9.375 161.2375 9.375 188.4375 9.375 C188.48166744 51.15094479 188.51856624 92.9268674 188.53963066 134.70282889 C188.5421318 139.64522907 188.54472047 144.58762919 188.54736328 149.5300293 C188.54815021 151.00581982 188.54815021 151.00581982 188.54895304 152.5114243 C188.55763372 168.40031586 188.5733907 184.28919281 188.59180559 200.17807574 C188.61056989 216.50573507 188.62163047 232.83338679 188.62567699 249.16105646 C188.62840856 259.21989305 188.63700668 269.27868833 188.65333293 279.33751219 C188.6639806 286.25390236 188.6670832 293.17027146 188.66450275 300.08666921 C188.66323345 304.0651453 188.66504971 308.04354968 188.67591095 312.02201271 C188.73072021 333.14868502 188.51315187 354.28305019 184.625 375.125 C184.45395752 376.06633789 184.28291504 377.00767578 184.10668945 377.97753906 C178.67470337 406.8993923 168.72975288 436.6365517 149.4375 459.375 C148.47974748 460.54368011 147.52276112 461.71298838 146.56640625 462.8828125 C136.32692028 475.2656764 124.91174203 484.69498877 111.4375 493.375 C110.85484375 493.75043945 110.2721875 494.12587891 109.671875 494.51269531 C81.22512114 512.50792571 44.97393961 520.42229894 11.62109375 520.578125 C10.11174255 520.58864647 10.11174255 520.58864647 8.57189941 520.59938049 C5.33955367 520.61680273 2.10739099 520.62323336 -1.125 520.625 C-2.7792952 520.62601212 -2.7792952 520.62601212 -4.4670105 520.62704468 C-20.37065765 520.61155689 -35.88508605 520.29738075 -51.5625 517.375 C-52.54782715 517.19807617 -53.5331543 517.02115234 -54.54833984 516.83886719 C-78.66895063 512.42279331 -104.50571619 506.44853664 -125.5625 493.375 C-124.94491357 485.64026232 -122.71902043 478.44508184 -120.52734375 471.03125 C-120.12467338 469.6527848 -119.72254691 468.2741606 -119.32093811 466.89538574 C-118.26927369 463.29026913 -117.2102972 459.68734171 -116.14971924 456.08483887 C-115.06604207 452.39901307 -113.98938276 448.71113898 -112.91210938 445.0234375 C-110.80238834 437.80528295 -108.68492879 430.58942948 -106.5625 423.375 C-102.9797528 424.54728676 -99.60901506 425.74011586 -96.26171875 427.4765625 C-76.66361892 437.38129716 -56.24465268 443.91603454 -34.5625 447.375 C-33.87913574 447.49069336 -33.19577148 447.60638672 -32.49169922 447.72558594 C2.16206126 453.44044636 36.69662807 448.52781443 66.1875 429.125 C77.8781345 420.66086487 86.28345705 410.8392604 93.4375 398.375 C93.92863281 397.52292969 94.41976563 396.67085937 94.92578125 395.79296875 C107.16436904 372.94507885 106.88895722 348.52232491 106.4375 323.375 C105.9542627 323.87708984 105.47102539 324.37917969 104.97314453 324.89648438 C85.08521509 345.22019556 59.42488175 359.11169199 31.4375 364.375 C30.53773438 364.55087646 29.63796875 364.72675293 28.7109375 364.90795898 C19.22808073 366.5803982 9.90875889 366.73281624 0.3125 366.6875 C-0.50709198 366.68534485 -1.32668396 366.6831897 -2.17111206 366.68096924 C-14.18230842 366.63024888 -25.86088018 366.33933875 -37.5625 363.375 C-38.3472168 363.18164062 -39.13193359 362.98828125 -39.94042969 362.7890625 C-79.68088941 352.68634853 -114.86822715 327.27605757 -136.1875 292.0625 C-165.59396333 242.09207629 -171.90733001 182.50101739 -158.09375 126.52148438 C-150.27880583 96.66391059 -135.95829331 69.67128966 -114.5625 47.375 C-113.67304687 46.42238281 -112.78359375 45.46976563 -111.8671875 44.48828125 C-91.85144569 23.42729555 -65.56499644 10.31244158 -37.5625 3.375 C-36.89992188 3.20838867 -36.23734375 3.04177734 -35.5546875 2.87011719 C-23.84851026 0.09850758 -11.96360633 0.06411957 0 0 Z M-54.03515625 102.00390625 C-73.65302673 125.12136254 -81.78732762 152.80596111 -81.8125 182.75 C-81.81317474 183.46808838 -81.81384949 184.18617676 -81.81454468 184.92602539 C-81.79843933 195.70426446 -81.33445471 205.90192917 -78.5625 216.375 C-78.39621094 217.02742676 -78.22992187 217.67985352 -78.05859375 218.35205078 C-75.27189281 229.06278747 -70.87512064 238.69624473 -65.5625 248.375 C-65.05332031 249.33921875 -64.54414062 250.3034375 -64.01953125 251.296875 C-52.44282267 271.41475417 -31.44861168 285.1749698 -9.44042969 291.2097168 C12.76553176 296.68695629 36.90449328 294.43558495 57.4375 284.375 C58.35789062 283.93414062 59.27828125 283.49328125 60.2265625 283.0390625 C67.40908366 279.37698833 73.41530714 274.70705145 79.4375 269.375 C80.06269531 268.83359375 80.68789062 268.2921875 81.33203125 267.734375 C96.61395223 253.56191432 105.12458962 233.38339025 109.4375 213.375 C109.62296387 212.51793457 109.80842773 211.66086914 109.99951172 210.77783203 C111.71850174 201.82098931 111.83479497 192.96132139 111.8125 183.875 C111.81228851 183.07985992 111.81207703 182.28471985 111.81185913 181.46548462 C111.7788898 169.03823613 110.95074162 157.36101415 107.4375 145.375 C107.25558105 144.70855469 107.07366211 144.04210937 106.88623047 143.35546875 C100.17172007 119.01761871 84.68918274 97.95774663 62.8046875 85.1875 C24.59368952 64.61916698 -23.68369111 69.73449702 -54.03515625 102.00390625 Z " fill="#3D3935" transform="translate(1432.5625,155.625)"/>
<path d="M0 0 C0.80160553 0.00304138 1.60321106 0.00608276 2.42910767 0.00921631 C15.51993742 0.08233037 28.06549956 0.96728689 40.75 4.4375 C41.53810059 4.65180664 42.32620117 4.86611328 43.13818359 5.08691406 C67.51873662 11.97826972 89.06638268 25.39696564 106.75 43.4375 C106.77505615 42.65624756 106.8001123 41.87499512 106.82592773 41.07006836 C106.94250203 37.50490383 107.06494865 33.93996387 107.1875 30.375 C107.24647461 28.53131836 107.24647461 28.53131836 107.30664062 26.65039062 C107.34853516 25.45478516 107.39042969 24.25917969 107.43359375 23.02734375 C107.47025146 21.93284912 107.50690918 20.83835449 107.54467773 19.71069336 C107.76053397 16.26957018 108.26239519 12.85073368 108.75 9.4375 C135.15 9.4375 161.55 9.4375 188.75 9.4375 C188.75 124.2775 188.75 239.1175 188.75 357.4375 C162.35 357.4375 135.95 357.4375 108.75 357.4375 C108.07142574 352.68748021 107.58667578 348.37444913 107.43359375 343.62890625 C107.39169922 342.38818359 107.34980469 341.14746094 107.30664062 339.86914062 C107.24766602 337.95391602 107.24766602 337.95391602 107.1875 336 C107.14431641 334.69611328 107.10113281 333.39222656 107.05664062 332.04882812 C106.95102476 328.84514684 106.84891899 325.64139389 106.75 322.4375 C106.00447876 323.2102124 106.00447876 323.2102124 105.24389648 323.99853516 C101.00040123 328.330028 96.73673109 332.27584591 91.8125 335.8125 C91.1740918 336.27309814 90.53568359 336.73369629 89.87792969 337.20825195 C62.91959671 356.32279464 33.23424425 366.90991706 0.125 366.75 C-0.67535675 366.74784485 -1.4757135 366.7456897 -2.30032349 366.74346924 C-13.87133034 366.69339897 -24.99537994 366.34723104 -36.25 363.4375 C-37.47033936 363.13948486 -37.47033936 363.13948486 -38.71533203 362.83544922 C-79.04640984 352.8480649 -113.03130525 328.23652032 -135.375 293.125 C-139.76408253 285.76865041 -143.63610951 278.1993806 -147.25 270.4375 C-147.55824707 269.7779834 -147.86649414 269.1184668 -148.18408203 268.43896484 C-156.14026852 251.11055226 -160.61790029 232.2787893 -163.25 213.4375 C-163.3442627 212.76887939 -163.43852539 212.10025879 -163.53564453 211.41137695 C-169.85147651 159.22949859 -158.95211861 103.50727825 -126.73925781 61.31982422 C-122.85776616 56.41387329 -118.62179316 51.91052137 -114.25 47.4375 C-113.39019531 46.51582031 -112.53039062 45.59414062 -111.64453125 44.64453125 C-93.95530582 26.1191829 -70.67713698 13.71870484 -46.375 6.1875 C-45.63411133 5.95329346 -44.89322266 5.71908691 -44.12988281 5.4777832 C-29.6630097 1.21265539 -15.01600965 -0.12203831 0 0 Z M-45.25 94.4375 C-45.90484375 94.94667969 -46.5596875 95.45585937 -47.234375 95.98046875 C-63.54387317 109.19116227 -72.84784646 129.62960367 -78.25 149.4375 C-78.76046875 151.27828125 -78.76046875 151.27828125 -79.28125 153.15625 C-86.65897211 186.21937501 -81.31546855 223.72344606 -63.25 252.4375 C-60.74688529 255.93075621 -58.07141966 259.1993437 -55.25 262.4375 C-54.4765625 263.40816406 -53.703125 264.37882813 -52.90625 265.37890625 C-39.51468786 281.43101002 -17.488439 290.64065216 2.75 293.4375 C30.46063314 295.54128924 55.12962954 289.6916088 76.83984375 271.90625 C97.83498259 253.81244944 109.0048458 227.73150446 111.75 200.4375 C111.98473314 194.96074895 111.99565972 189.48125399 112 184 C112.00067474 183.23705627 112.00134949 182.47411255 112.00204468 181.68804932 C111.98651047 170.6494701 111.64213076 160.15471037 108.75 149.4375 C108.58371094 148.78797363 108.41742187 148.13844727 108.24609375 147.46923828 C104.32249549 132.38154978 97.62120857 118.54618251 87.75 106.4375 C87.06292969 105.58671875 86.37585938 104.7359375 85.66796875 103.859375 C71.15057784 86.80471037 49.78837725 76.43761942 27.75 73.4375 C23.66186416 73.15420024 19.59700407 73.10312649 15.5 73.125 C14.40461914 73.12991455 13.30923828 73.1348291 12.18066406 73.13989258 C-9.31693245 73.44949607 -28.72499851 80.63606357 -45.25 94.4375 Z " fill="#3D3935" transform="translate(677.25,155.5625)"/>
<path d="M0 0 C0.79325684 0.19867676 1.58651367 0.39735352 2.40380859 0.60205078 C32.77138128 8.37889896 57.25953223 25.13605741 73.80078125 52.140625 C91.65411722 82.62000441 94.17578397 117.61544402 94.11352539 152.15185547 C94.11324284 154.36078897 94.11340258 156.56972256 94.1139679 158.77865601 C94.11425322 164.73632298 94.10839949 170.69396957 94.10139394 176.65163183 C94.09511612 182.89227538 94.09455311 189.13291946 94.09336853 195.37356567 C94.09061983 205.83547306 94.08438599 216.29737351 94.07543945 226.75927734 C94.06624006 237.52815718 94.05917163 248.29703499 94.05493164 259.06591797 C94.05453756 260.06403129 94.05453756 260.06403129 94.05413551 261.08230852 C94.05283033 264.42095158 94.05156892 267.75959466 94.05032361 271.09823775 C94.03988868 298.73216486 94.02155946 326.36607918 94 354 C67.27 354 40.54 354 13 354 C12.97812622 344.28888794 12.97812622 344.28888794 12.95581055 334.3815918 C12.90540187 312.95587058 12.83894396 291.53022113 12.76428509 270.10457134 C12.71942329 257.1183065 12.67998666 244.13206849 12.65356445 231.14575195 C12.63050628 219.81972765 12.59702158 208.49378896 12.55129844 197.16783267 C12.52747131 191.17733789 12.50867391 185.18692734 12.50238609 179.19638634 C12.49628738 173.54354551 12.4761171 167.89091992 12.44572449 162.23815918 C12.43702029 160.1772442 12.43320561 158.11630101 12.43499184 156.05536842 C12.448522 133.21566534 10.7169593 111.57140102 -4 93 C-4.763125 91.948125 -5.52625 90.89625 -6.3125 89.8125 C-17.66090009 77.93626735 -34.13349405 71.43999857 -50.3984375 70.76171875 C-69.53226578 70.33254517 -86.93856561 73.87625522 -101.9375 86.75 C-115.3335441 99.75262137 -122.79584951 118.7220138 -123.1386652 137.3127737 C-123.15011777 138.95242085 -123.156308 140.59211024 -123.15821838 142.23179626 C-123.16315636 143.14024231 -123.16809434 144.04868836 -123.17318195 144.98466307 C-123.18849317 148.01703598 -123.19690024 151.04938783 -123.20532227 154.08178711 C-123.2149058 156.26013371 -123.22491616 158.43847846 -123.23532104 160.61682129 C-123.2623246 166.5232314 -123.28335879 172.42964946 -123.30332303 178.33608699 C-123.32521066 184.5113906 -123.35258576 190.68666982 -123.37937927 196.86195374 C-123.42926861 208.55251807 -123.47422139 220.24309596 -123.51740164 231.93368679 C-123.56680614 245.24437403 -123.62171235 258.5550359 -123.67708123 271.86569965 C-123.79084358 299.24377804 -123.89696887 326.62187897 -124 354 C-150.73 354 -177.46 354 -205 354 C-205 239.16 -205 124.32 -205 6 C-179.26 6 -153.52 6 -127 6 C-126.01 20.85 -126.01 20.85 -125 36 C-120.545 31.05 -120.545 31.05 -116 26 C-113.37070836 23.78639656 -110.83911948 21.73896268 -108.0625 19.75 C-107.36648682 19.24259277 -106.67047363 18.73518555 -105.95336914 18.21240234 C-76.11766233 -3.32309332 -35.60744072 -9.30525511 0 0 Z " fill="#3D3935" transform="translate(1916,159)"/>
<path d="M0 0 C26.73 0 53.46 0 81 0 C81 166.65 81 333.3 81 505 C54.27 505 27.54 505 0 505 C0 338.35 0 171.7 0 0 Z " fill="#3D3935" transform="translate(956,8)"/>
<path d="M0 0 C26.73 0 53.46 0 81 0 C81 114.84 81 229.68 81 348 C54.27 348 27.54 348 0 348 C0 233.16 0 118.32 0 0 Z " fill="#3D3935" transform="translate(1127,165)"/>
<path d="M0 0 C12.40913901 8.03773777 19.87882246 19.40614837 23.30859375 33.62890625 C25.54246668 47.2100629 23.11764739 60.66390038 15.75 72.3125 C7.2641 83.50380575 -4.11255142 92.12966162 -18.25 94.3125 C-35.09304857 95.38273538 -47.5639971 91.85556087 -61.4375 82.0625 C-71.30102624 72.41816323 -77.4110937 60.19514741 -77.57958984 46.36132812 C-77.5739502 45.56146484 -77.56831055 44.76160156 -77.5625 43.9375 C-77.55686035 43.09896484 -77.5512207 42.26042969 -77.54541016 41.39648438 C-77.29047485 28.402356 -72.1937353 16.72779257 -63.2890625 7.15625 C-45.58983638 -8.84764795 -20.75193051 -11.42629303 0 0 Z " fill="#009ACE" transform="translate(1194.25,6.6875)"/>
<path d="M0 0 C2.53196704 2.52232145 4.80872013 5.17872716 7 8 C7.78375 6.948125 8.5675 5.89625 9.375 4.8125 C14.28482867 -0.86953177 20.58631013 -3.92336318 28 -4.9375 C35.80068759 -5.35451789 42.91180122 -4.1196217 49 1 C55.47091753 6.81905606 57.58845382 13.72393594 58.25717163 22.29696655 C58.34487852 25.93505353 58.33784052 29.56037334 58.29296875 33.19921875 C58.28872391 34.51541702 58.28447906 35.8316153 58.28010559 37.18769836 C58.2687759 40.64832378 58.23941508 44.10855764 58.20599365 47.56903076 C58.17503284 51.11562812 58.16154531 54.66229017 58.14648438 58.20898438 C58.11453063 65.13949774 58.06186361 72.06968963 58 79 C50.41 79 42.82 79 35 79 C34.970271 76.44922729 34.970271 76.44922729 34.93994141 73.84692383 C34.87208162 68.2189693 34.79529956 62.5911835 34.71247292 56.96342945 C34.66259596 53.55240229 34.61626559 50.1414048 34.578125 46.73022461 C34.53408695 42.8056513 34.47447081 38.88138809 34.4140625 34.95703125 C34.40251129 33.73603226 34.39096008 32.51503326 34.37905884 31.2570343 C34.35918915 30.1162291 34.33931946 28.97542389 34.31884766 27.80004883 C34.30552399 26.79855301 34.29220032 25.79705719 34.2784729 24.76521301 C33.98199891 21.82125061 33.32321094 19.6406547 32 17 C30.15128819 16.10265922 30.15128819 16.10265922 28 16 C27.29101562 15.90976562 26.58203125 15.81953125 25.8515625 15.7265625 C21.74362137 15.53918273 18.8801254 15.58719901 15.5625 18.1875 C11.75718915 22.36406069 10.76111597 25.84873501 10.68115234 31.43286133 C10.66128265 32.49358353 10.64141296 33.55430573 10.62094116 34.64717102 C10.60938995 35.7806749 10.59783875 36.91417877 10.5859375 38.08203125 C10.56657135 39.25134689 10.5472052 40.42066254 10.5272522 41.62541199 C10.46754805 45.35436749 10.42110703 49.08335401 10.375 52.8125 C10.33681185 55.3431123 10.29775963 57.87371173 10.2578125 60.40429688 C10.16185376 66.60275977 10.07778831 72.80128352 10 79 C2.74 79 -4.52 79 -12 79 C-12.04898437 75.41125 -12.09796875 71.8225 -12.1484375 68.125 C-12.20251157 64.63325989 -12.25979387 61.14158604 -12.31738281 57.64990234 C-12.35556737 55.23100765 -12.39043826 52.81205821 -12.421875 50.39306641 C-12.46775422 46.90767914 -12.52571129 43.42266534 -12.5859375 39.9375 C-12.59748871 38.86322754 -12.60903992 37.78895508 -12.62094116 36.68212891 C-12.62837839 26.83197794 -12.62837839 26.83197794 -16.5 18.0625 C-20.11598284 15.50117882 -23.70913337 15.53790667 -28 16 C-31.71194997 17.64975554 -33.85325399 19.56520639 -36 23 C-36.99824905 25.99474714 -37.15324032 28.07345334 -37.20532227 31.20581055 C-37.22526749 32.26668381 -37.24521271 33.32755707 -37.26576233 34.420578 C-37.28247482 35.56440445 -37.29918732 36.7082309 -37.31640625 37.88671875 C-37.33718735 39.05886429 -37.35796844 40.23100983 -37.37937927 41.43867493 C-37.44483818 45.18822286 -37.50374296 48.93784163 -37.5625 52.6875 C-37.60568868 55.22722091 -37.64930308 57.76693462 -37.69335938 60.30664062 C-37.8005159 66.53768755 -37.90179388 72.76880584 -38 79 C-45.26 79 -52.52 79 -60 79 C-60 52.27 -60 25.54 -60 -2 C-53.07 -2 -46.14 -2 -39 -2 C-38.67 0.31 -38.34 2.62 -38 5 C-37.57589844 4.60167969 -37.15179687 4.20335937 -36.71484375 3.79296875 C-26.53296271 -5.40429083 -11.71825332 -8.57727821 0 0 Z " fill="#3D3935" transform="translate(1121,882)"/>
<path d="M0 0 C1.83275221 1.58975809 3.39111806 3.17660046 5 5 C5.4125 4.54109375 5.825 4.0821875 6.25 3.609375 C12.79127455 -3.34072921 18.64581289 -6.49976867 28.265625 -7.03125 C35.82566447 -6.94484955 42.1445741 -4.85821363 48 0 C53.27041052 5.72521752 55.25780326 11.77577543 55.22705078 19.55615234 C55.22689972 20.83702728 55.22674866 22.11790222 55.22659302 23.43759155 C55.21638209 24.82037515 55.20595014 26.20315712 55.1953125 27.5859375 C55.19157835 29.01225587 55.18873328 30.43857682 55.18673706 31.86489868 C55.17913219 35.60332427 55.15951109 39.34159233 55.1373291 43.07995605 C55.11680257 46.90093862 55.10772084 50.72194684 55.09765625 54.54296875 C55.07626189 62.02872567 55.04110578 69.51432062 55 77 C47.74 77 40.48 77 33 77 C32.9906543 75.33501465 32.98130859 73.6700293 32.97167969 71.95458984 C32.93177467 65.77072504 32.86601292 59.58735745 32.79248047 53.40380859 C32.76207056 50.72854791 32.74305956 48.05389447 32.72900391 45.37841797 C32.70757097 41.53049079 32.66091483 37.68356476 32.609375 33.8359375 C32.60814636 32.64197357 32.60691772 31.44800964 32.60565186 30.21786499 C32.49472169 23.9131452 32.37013018 19.73311478 28 15 C24.54534728 13.27267364 20.78423122 13.64584318 17 14 C13.36939701 15.42067073 12.28053758 16.53911684 10.25 19.875 C8.48177971 24.29555073 7.88044665 28.32387822 7.79467773 33.06567383 C7.77473251 34.04631302 7.75478729 35.02695221 7.73423767 36.03730774 C7.71752518 37.0833165 7.70081268 38.12932526 7.68359375 39.20703125 C7.6524221 40.82782845 7.6524221 40.82782845 7.62062073 42.48136902 C7.55535964 45.92501611 7.49634925 49.36873795 7.4375 52.8125 C7.39429249 55.15039828 7.35067749 57.48828907 7.30664062 59.82617188 C7.19893729 65.55070583 7.09968913 71.27529843 7 77 C-0.26 77 -7.52 77 -15 77 C-15.0093457 75.33501465 -15.01869141 73.6700293 -15.02832031 71.95458984 C-15.06822533 65.77072504 -15.13398708 59.58735745 -15.20751953 53.40380859 C-15.23792944 50.72854791 -15.25694044 48.05389447 -15.27099609 45.37841797 C-15.29242903 41.53049079 -15.33908517 37.68356476 -15.390625 33.8359375 C-15.39185364 32.64197357 -15.39308228 31.44800964 -15.39434814 30.21786499 C-15.50527831 23.9131452 -15.62986982 19.73311478 -20 15 C-23.45465272 13.27267364 -27.21576878 13.64584318 -31 14 C-34.63060299 15.42067073 -35.71946242 16.53911684 -37.75 19.875 C-39.51822029 24.29555073 -40.11955335 28.32387822 -40.20532227 33.06567383 C-40.22526749 34.04631302 -40.24521271 35.02695221 -40.26576233 36.03730774 C-40.29083107 37.60632088 -40.29083107 37.60632088 -40.31640625 39.20703125 C-40.33718735 40.28756271 -40.35796844 41.36809418 -40.37937927 42.48136902 C-40.44464036 45.92501611 -40.50365075 49.36873795 -40.5625 52.8125 C-40.60570751 55.15039828 -40.64932251 57.48828907 -40.69335938 59.82617188 C-40.80106271 65.55070583 -40.90031087 71.27529843 -41 77 C-48.26 77 -55.52 77 -63 77 C-63 50.27 -63 23.54 -63 -4 C-55.74 -4 -48.48 -4 -41 -4 C-40.67 -1.69 -40.34 0.62 -40 3 C-39.56171875 2.52949219 -39.1234375 2.05898438 -38.671875 1.57421875 C-27.18916228 -9.69844435 -12.43452797 -9.19934989 0 0 Z " fill="#3D3935" transform="translate(664,884)"/>
<path d="M0 0 C0.66 0.66 1.32 1.32 2 2 C2.33 0.35 2.66 -1.3 3 -3 C10.26 -3 17.52 -3 25 -3 C25.06796393 7.38837356 25.12292432 17.77659777 25.15543652 28.16514397 C25.17104617 32.98973777 25.19219796 37.81417066 25.22631836 42.63867188 C25.25908023 47.30062553 25.27688831 51.96242506 25.28463173 56.62448502 C25.29014517 58.39695789 25.30091111 60.16942299 25.31719017 61.94182968 C25.51846241 84.77822139 25.51846241 84.77822139 17.78515625 94.18359375 C8.82437843 103.3012342 -1.66822259 105.26474261 -14 105.375 C-25.58739295 105.28201013 -36.02757721 103.62380165 -44.71875 95.3671875 C-49.17803222 90.49257998 -52 85.76243063 -52 79 C-48.43812343 78.82520047 -44.87735227 78.71898857 -41.3125 78.625 C-40.30509766 78.57472656 -39.29769531 78.52445313 -38.25976562 78.47265625 C-30.85904755 78.32610738 -30.85904755 78.32610738 -28.35302734 80.29199219 C-27.17129425 81.8136759 -26.08211625 83.40593637 -25 85 C-19.42446354 88.03800885 -12.65014683 88.05143346 -6.61328125 86.3125 C-3.2210323 84.80762062 -1.29843376 83.38236825 1 80.4375 C2.40764937 75.5987053 2.24034057 71.00264441 2 66 C0.989375 66.78375 -0.02125 67.5675 -1.0625 68.375 C-8.09756197 73.32196589 -15.61444949 73.83855505 -24 73 C-34.73410545 70.48776255 -43.27376545 64.60808488 -49.12109375 55.1953125 C-55.22200262 44.06618203 -55.36547598 31.01955706 -52 19 C-48.86513404 9.53238975 -42.69043893 1.96020412 -34 -3 C-22.31578979 -7.86842092 -10.60042241 -6.65897377 0 0 Z M-28.25 19.3125 C-32.16782704 25.32916295 -32.84309369 31.99503636 -32 39 C-30.41070829 44.9877639 -28.53780998 49.75835514 -23 53 C-18.8306608 55.25369687 -14.65523334 55.69442707 -10 55 C-4.73950424 53.23377184 -0.96561669 50.79061157 2 46 C5.03594805 39.77630651 5.06403694 32.02641252 3.3125 25.3984375 C0.9673285 19.55505185 -2.29973768 15.85013116 -8 13 C-16.80040756 12.19636997 -21.93351 12.82055195 -28.25 19.3125 Z " fill="#3D3935" transform="translate(2120,883)"/>
<path d="M0 0 C2.5 2.25 2.5 2.25 4 4 C4.33 2.02 4.66 0.04 5 -2 C11.93 -2 18.86 -2 26 -2 C26.09060177 8.77951941 26.16388906 19.55878324 26.20724869 30.33859825 C26.22806591 35.34485469 26.25627577 40.35083566 26.30175781 45.35693359 C26.34542556 50.19396269 26.36918116 55.03072789 26.37950897 59.867939 C26.38686293 61.70741552 26.40122304 63.54687866 26.42292023 65.38624191 C26.548124 76.44667109 26.35613063 85.24048695 20.1875 94.8125 C10.94485037 104.05514963 0.19129121 106.38383516 -12.5 106.5 C-24.26933769 106.38189902 -35.274806 104.60113911 -44 96 C-47.38425287 92.39013027 -49.14499731 89.1329637 -50.1328125 84.26953125 C-50.2992627 83.46749268 -50.46571289 82.6654541 -50.63720703 81.83911133 C-50.81678955 80.92875122 -50.81678955 80.92875122 -51 80 C-47.22956968 79.85503492 -43.45985258 79.76604393 -39.6875 79.6875 C-38.61564453 79.64560547 -37.54378906 79.60371094 -36.43945312 79.56054688 C-35.41142578 79.54443359 -34.38339844 79.52832031 -33.32421875 79.51171875 C-32.37635498 79.48553467 -31.42849121 79.45935059 -30.4519043 79.43237305 C-28 80 -28 80 -26.35473633 82.41723633 C-25.68414185 83.69570435 -25.68414185 83.69570435 -25 85 C-19.25657068 88.46998855 -13.60953715 88.7476852 -7 88 C-3.3172114 86.61895428 -0.45963715 85.10691008 2 82 C3.09506492 78.71480525 3.09960608 76.26336585 3.0625 72.8125 C3.05347656 71.72582031 3.04445313 70.63914062 3.03515625 69.51953125 C3.02355469 68.68808594 3.01195312 67.85664062 3 67 C2.34 67.598125 1.68 68.19625 1 68.8125 C-6.52361467 74.29846903 -13.90058178 74.9453941 -23 74 C-32.69538737 71.8539854 -40.57325122 66.75577964 -46.375 58.6875 C-53.15480389 47.40665965 -53.68646603 34.19525523 -51.34375 21.421875 C-48.41717349 11.58252295 -42.85411946 4.49281513 -34.12890625 -0.8515625 C-23.62389323 -6.51848696 -10.02577217 -6.77034497 0 0 Z M-27.30859375 20.5859375 C-31.34199032 26.9779639 -30.77762461 34.74746031 -30 42 C-28.37493525 48.00726184 -25.00572661 51.48534089 -20 55 C-14.80203613 56.73265462 -10.4592454 56.44519351 -5.3125 54.875 C-0.3197023 52.04888809 2.70718265 48.29414478 5 43 C6.70879826 35.02101458 6.01179155 27.94907229 2.3125 20.6875 C-1.34788987 16.43353339 -4.38128848 14.38070942 -9.875 13.58203125 C-17.77112898 13.21683528 -22.28525654 14.49795271 -27.30859375 20.5859375 Z " fill="#3D3935" transform="translate(910,882)"/>
<path d="M0 0 C2.5 2.25 2.5 2.25 4 4 C4.33 2.02 4.66 0.04 5 -2 C11.93 -2 18.86 -2 26 -2 C26.06792118 8.66641204 26.12289987 19.33267917 26.15543652 29.999259 C26.17105666 34.95279447 26.19222797 39.90617362 26.22631836 44.85961914 C26.25904236 49.64476103 26.27688045 54.42975305 26.28463173 59.21499825 C26.2901519 61.03574544 26.30093123 62.85648493 26.31719017 64.67716789 C26.33913814 67.23799905 26.34195974 69.79821998 26.34057617 72.35913086 C26.351362 73.10288467 26.36214783 73.84663849 26.3732605 74.6129303 C26.3172483 84.26631414 23.02140349 90.92680897 16.39453125 97.83203125 C6.32172648 106.95178108 -7.75415299 106.78106065 -20.6015625 106.1953125 C-30.51618593 105.38793274 -38.75855777 101.59087172 -45.5234375 94.375 C-48.09025457 91.17018793 -49.31565064 88.29276507 -50.1328125 84.26953125 C-50.2992627 83.46749268 -50.46571289 82.6654541 -50.63720703 81.83911133 C-50.81678955 80.92875122 -50.81678955 80.92875122 -51 80 C-47.25058747 79.82567109 -43.50221491 79.71914159 -39.75 79.625 C-38.68652344 79.57472656 -37.62304688 79.52445313 -36.52734375 79.47265625 C-33.570708 79.41687067 -30.90241636 79.42598371 -28 80 C-25.42578125 82.9375 -25.42578125 82.9375 -24 86 C-18.81285437 88.78334644 -12.74620915 88.53950995 -7 88 C-3.16321769 86.74432579 -1.42593325 85.43714202 1.375 82.5625 C3.72927434 77.40120626 3.32532942 72.58482171 3 67 C2.39671875 67.42152344 1.7934375 67.84304688 1.171875 68.27734375 C-0.02695313 69.09912109 -0.02695313 69.09912109 -1.25 69.9375 C-2.03890625 70.48277344 -2.8278125 71.02804687 -3.640625 71.58984375 C-10.11601997 75.46007154 -18.82352588 74.90864312 -25.98046875 73.3515625 C-36.38783694 69.91669063 -42.85716688 64.05940077 -48.58984375 54.84375 C-53.85873688 44.21839211 -53.82398031 29.50229827 -50.375 18.25 C-46.72711393 9.19405906 -40.78948048 2.32334035 -31.95703125 -2 C-21.51418417 -6.20137755 -9.54650581 -6.44669922 0 0 Z M-27.25 20.6875 C-31.09539847 27.96628995 -31.63387367 34.96793194 -30 43 C-28.11624234 48.44196658 -24.64395188 51.75978812 -20 55 C-14.80203613 56.73265462 -10.4592454 56.44519351 -5.3125 54.875 C0.05548647 51.83651709 3.07877174 47.91602887 5 42 C5.80512578 34.16406652 6.08254409 26.41516235 1 20 C-3.33386359 15.59980177 -6.59686567 13.83290989 -12.75 13.6875 C-19.61211731 13.76137447 -22.82643939 15.4038026 -27.25 20.6875 Z " fill="#3D3935" transform="translate(1901,882)"/>
<path d="M0 0 C7.26 0 14.52 0 22 0 C22.495 19.8 22.495 19.8 23 40 C24.98 37.525 24.98 37.525 27 35 C34.73445686 29.62658787 42.85939066 28.19696909 52.0625 29.5625 C58.80922017 31.15370759 64.51931697 34.77865182 68.875 40.1875 C74.24513936 48.95223279 74.4205325 58.77743854 74.29296875 68.76171875 C74.28872391 70.03352493 74.28447906 71.30533112 74.28010559 72.61567688 C74.26626412 75.95802699 74.23942643 79.29973341 74.20599365 82.64190674 C74.17502058 86.06785595 74.16154276 89.4938723 74.14648438 92.91992188 C74.1135768 99.61347811 74.06187849 106.30665144 74 113 C66.41 113 58.82 113 51 113 C50.98541748 111.3600708 50.97083496 109.7201416 50.95581055 108.03051758 C50.89783377 101.94549771 50.82059992 95.86084811 50.73754883 89.77612305 C50.70429675 87.14272064 50.67626576 84.50924691 50.65356445 81.87573242 C50.62002471 78.09002289 50.5677068 74.30496711 50.51171875 70.51953125 C50.50532883 69.34227982 50.4989389 68.16502838 50.49235535 66.95210266 C50.46266411 65.30095711 50.46266411 65.30095711 50.43237305 63.61645508 C50.41571846 62.16750603 50.41571846 62.16750603 50.39872742 60.68928528 C49.77924673 56.51109182 48.03627729 53.85862975 44.8125 51.1875 C39.85118139 49.09272103 35.72341882 49.43657462 30.75 51.0625 C26.24452797 54.23680984 24.05643741 58.58805835 23 64 C22.88860504 65.64837468 22.82447943 67.30028289 22.79467773 68.95214844 C22.77473251 69.93286316 22.75478729 70.91357788 22.73423767 71.92401123 C22.70916893 73.5007663 22.70916893 73.5007663 22.68359375 75.109375 C22.66281265 76.19132141 22.64203156 77.27326782 22.62062073 78.38800049 C22.55527069 81.84193613 22.49630771 85.29594737 22.4375 88.75 C22.39430096 91.09245571 22.35068622 93.4349038 22.30664062 95.77734375 C22.19882245 101.51815283 22.09964035 107.25901983 22 113 C14.74 113 7.48 113 0 113 C0 75.71 0 38.42 0 0 Z " fill="#3D3935" transform="translate(1590,848)"/>
<path d="M0 0 C1.0509082 0.139823 1.0509082 0.139823 2.12304688 0.2824707 C11.98430277 1.74718427 19.17198672 6.38313621 25.47265625 14.12109375 C32.73126301 24.79812694 34 36.73126263 34 49.3125 C14.86 49.3125 -4.28 49.3125 -24 49.3125 C-19.99168333 60.17501325 -19.99168333 60.17501325 -11.3125 66.1875 C-6.4696743 67.78041432 -1.89764489 67.67204691 3 66.3125 C6.53142999 64.29246391 8.7424458 61.69883129 11 58.3125 C13.24658203 57.97192383 13.24658203 57.97192383 16.0078125 58.01953125 C16.99394531 58.02919922 17.98007813 58.03886719 18.99609375 58.04882812 C20.02863281 58.07396484 21.06117187 58.09910156 22.125 58.125 C23.68541016 58.14530273 23.68541016 58.14530273 25.27734375 58.16601562 C27.85207627 58.20144772 30.4257833 58.25084779 33 58.3125 C30.46209804 68.12907128 26.76568163 74.75049368 17.8828125 80.23828125 C6.75012901 85.94071937 -6.25550286 87.51268293 -18.5 84.1875 C-29.20154752 80.1974041 -37.51129193 73.94720896 -42.34765625 63.36328125 C-43.34095386 60.69668658 -44.2259685 58.05003514 -45 55.3125 C-45.19078125 54.71050781 -45.3815625 54.10851562 -45.578125 53.48828125 C-48.02497879 40.86885938 -45.98892351 27.37444143 -39.25 16.4375 C-32.3841839 7.11228708 -23.60277627 1.63838739 -12.125 -0.36328125 C-7.99798576 -0.79873617 -4.10344879 -0.54775668 0 0 Z M-19.5390625 23.21875 C-22.03143585 26.95034808 -23 28.68718594 -23 33.3125 C-11.78 33.3125 -0.56 33.3125 11 33.3125 C8.09758955 23.91945442 8.09758955 23.91945442 1.140625 18.20703125 C-6.29520059 15.09972457 -14.53200418 17.01711432 -19.5390625 23.21875 Z " fill="#3D3935" transform="translate(1313,877.6875)"/>
<path d="M0 0 C11.25890811 11.79504659 14.625 25.79536748 14.625 41.75 C-4.515 41.75 -23.655 41.75 -43.375 41.75 C-40.30686844 51.2274073 -40.30686844 51.2274073 -33.58984375 57.7109375 C-28.49209047 59.85219032 -23.65489525 60.8797417 -18.265625 59.0234375 C-13.79224344 57.13687341 -13.79224344 57.13687341 -11.33984375 53.125 C-9.375 50.75 -9.375 50.75 -7.07958984 50.34643555 C-4.10143847 50.25665114 -1.1644642 50.31572362 1.8125 50.4375 C3.36614258 50.47133789 3.36614258 50.47133789 4.95117188 50.50585938 C7.51056404 50.56483154 10.06705951 50.64707433 12.625 50.75 C11.76479189 58.98199158 8.36333427 64.47711452 2.3125 70.0625 C-7.86505662 78.18649198 -19.90265489 78.56498867 -32.375 77.75 C-42.33990495 76.21091782 -51.49152728 70.83532698 -57.83984375 63.03125 C-65.82833273 51.16031472 -66.42678918 38.62387314 -65.375 24.75 C-63.0037551 12.81247567 -55.48225419 3.1774505 -45.5078125 -3.5 C-31.58208329 -11.35850279 -12.66159848 -9.49619886 0 0 Z M-39.125 15.5 C-41.88466343 19.11414873 -41.88466343 19.11414873 -43.375 25.75 C-32.155 25.75 -20.935 25.75 -9.375 25.75 C-10.41100362 18.49797463 -11.27084423 16.36745143 -16.375 11.75 C-24.04384359 6.98288101 -33.11760265 9.49260265 -39.125 15.5 Z " fill="#3D3935" transform="translate(2406.375,885.25)"/>
<path d="M0 0 C1.40088867 -0.02416992 1.40088867 -0.02416992 2.83007812 -0.04882812 C11.19561152 -0.05463349 19.59931785 1.05660948 26.0625 6.8125 C26.76117187 7.4003125 27.45984375 7.988125 28.1796875 8.59375 C34.02156782 16.50415604 34.77019924 25.4183675 34.7265625 34.953125 C34.73835541 36.11954529 34.75014832 37.28596558 34.76229858 38.48773193 C34.79731749 42.1794599 34.80670579 45.87062006 34.8125 49.5625 C34.8288854 53.26849166 34.85098273 56.97423405 34.88412476 60.68011475 C34.90363595 62.97615126 34.91310263 65.27230192 34.91104126 67.56842041 C34.91800018 68.61350769 34.92495911 69.65859497 34.93212891 70.73535156 C34.93338776 71.64593323 34.93464661 72.55651489 34.9359436 73.49468994 C35.16585957 77.0676841 35.16585957 77.0676841 37.1875 83.3125 C29.9275 83.3125 22.6675 83.3125 15.1875 83.3125 C14.5275 81.3325 13.8675 79.3525 13.1875 77.3125 C12.64222656 77.72242188 12.09695313 78.13234375 11.53515625 78.5546875 C2.47217716 85.03045717 -6.1821938 86.33036003 -17.1640625 85.03515625 C-24.13381426 83.77772681 -29.8906492 80.68317895 -34.6875 75.4375 C-39.46403379 68.4131856 -39.86637174 60.2913961 -38.41796875 52.07421875 C-36.68060524 46.30168839 -32.85486192 42.46867288 -27.8125 39.3125 C-19.24034541 35.08806332 -10.27081592 33.75126893 -0.91796875 32.24609375 C0.19707031 32.05144531 1.31210938 31.85679687 2.4609375 31.65625 C3.96793213 31.41165039 3.96793213 31.41165039 5.50537109 31.16210938 C8.64833098 30.16652405 10.0649463 28.78912823 12.1875 26.3125 C11.37965278 23.00767048 10.72190319 20.82966438 8.25 18.4375 C2.44450686 16.30486987 -3.44083602 16.59253058 -9.3125 18.375 C-12.60811604 20.6055079 -12.60811604 20.6055079 -14.8125 27.3125 C-21.4125 27.3125 -28.0125 27.3125 -34.8125 27.3125 C-33.7650259 17.88523314 -32.86399737 13.42379772 -25.8125 7.3125 C-17.45954002 1.2280281 -10.16301538 -0.03463877 0 0 Z M2 46.0625 C1.05318359 46.31515625 0.10636719 46.5678125 -0.86914062 46.828125 C-7.29181455 48.62091605 -12.03258439 50.53258439 -16.8125 55.3125 C-17.52566734 61.27643121 -17.52566734 61.27643121 -14.5 66.25 C-10.20483226 69.54629152 -6.08226769 69.96894165 -0.8125 69.3125 C4.87307212 67.59750775 8.94108365 65.45265922 12.1875 60.3125 C13.72016582 57.24716836 13.29026471 54.04495728 13.25 50.6875 C13.24548828 49.98109375 13.24097656 49.2746875 13.23632812 48.546875 C13.22453875 46.80204725 13.20660324 45.057263 13.1875 43.3125 C9.52982497 43.3125 5.49961689 45.09129211 2 46.0625 Z " fill="#3D3935" transform="translate(1713.8125,877.6875)"/>
<path d="M0 0 C0.92176025 -0.01015137 1.84352051 -0.02030273 2.79321289 -0.03076172 C11.18793489 0.07537759 19.6246933 1.57615035 26.40234375 6.84765625 C31.78577637 12.4228651 34.03315236 19.13248481 34.11108398 26.72167969 C34.12457382 27.77667664 34.13806366 28.83167358 34.15196228 29.91864014 C34.16761986 31.62180389 34.16761986 31.62180389 34.18359375 33.359375 C34.2165375 35.77083689 34.24974906 38.18229513 34.28320312 40.59375 C34.33055746 44.38994802 34.37498583 48.18613182 34.41430664 51.98242188 C34.45416012 55.64989652 34.5056773 59.31706877 34.55859375 62.984375 C34.5670079 64.11172058 34.57542206 65.23906616 34.58409119 66.40057373 C34.60073318 67.46817932 34.61737518 68.53578491 34.63452148 69.63574219 C34.64998268 71.02995392 34.64998268 71.02995392 34.66575623 72.45233154 C34.94092816 76.32154031 34.94092816 76.32154031 36.9375 83.4375 C29.6775 83.4375 22.4175 83.4375 14.9375 83.4375 C14.2775 81.4575 13.6175 79.4775 12.9375 77.4375 C12.39222656 77.84742188 11.84695312 78.25734375 11.28515625 78.6796875 C2.22217716 85.15545717 -6.4321938 86.45536003 -17.4140625 85.16015625 C-24.21143032 83.933827 -29.44022861 80.98889919 -34.375 76.1875 C-38.2953166 69.79883591 -40.16619848 62.91254879 -39.0625 55.4375 C-37.23907589 48.27404813 -34.38845295 43.33656413 -28.0625 39.4375 C-19.3006615 35.52361018 -10.16392451 33.95509913 -0.76367188 32.37109375 C0.83444336 32.07912109 0.83444336 32.07912109 2.46484375 31.78125 C3.42124756 31.61818359 4.37765137 31.45511719 5.36303711 31.28710938 C8.46876585 30.26217471 9.91170355 28.98028568 11.9375 26.4375 C11.86561346 23.49015186 11.38144312 22.00251851 9.5625 19.6875 C5.15194129 16.29476253 -0.79870759 17.03838555 -6.0625 17.4375 C-9.58506618 18.27969134 -9.58506618 18.27969134 -12.0625 20.4375 C-13.0525 22.7475 -14.0425 25.0575 -15.0625 27.4375 C-21.6625 27.4375 -28.2625 27.4375 -35.0625 27.4375 C-34.01190095 17.98210855 -32.60643759 13.58390889 -25.9375 7.1875 C-17.94002761 0.99918098 -9.85015302 0.07730771 0 0 Z M1.75 46.1875 C0.80318359 46.44015625 -0.14363281 46.6928125 -1.11914062 46.953125 C-7.7910651 48.81549052 -13.07383371 50.45450057 -17.0625 56.4375 C-17.64619443 59.85288144 -17.64619443 59.85288144 -17.0625 63.4375 C-14.52112841 66.59704305 -12.91627341 68.15290886 -9.0625 69.4375 C-3.18608607 69.83590094 1.75650608 69.43760545 6.9375 66.4375 C9.46267245 64.09358993 11.38957376 61.53335248 12.9375 58.4375 C13.0091735 55.88592345 13.03058442 53.36277029 13 50.8125 C12.99548828 50.10609375 12.99097656 49.3996875 12.98632812 48.671875 C12.97453875 46.92704725 12.95660324 45.182263 12.9375 43.4375 C9.27982497 43.4375 5.24961689 45.21629211 1.75 46.1875 Z " fill="#3D3935" transform="translate(182.0625,877.5625)"/>
<path d="M0 0 C7.98432874 7.4196476 13.25578461 17.18467016 13.73828125 28.2265625 C13.75777033 29.74076504 13.76122882 31.25524493 13.75 32.76953125 C13.74436035 33.56488281 13.7387207 34.36023438 13.73291016 35.1796875 C13.50187243 46.37929868 9.99967925 55.76598963 2.43359375 64.1875 C-7.92817163 74.06732281 -19.32274669 76.47411137 -33.1875 76.234375 C-42.64069294 75.82274333 -50.6690937 72.37552647 -57.5625 65.95703125 C-58.59697266 65.00183594 -58.59697266 65.00183594 -59.65234375 64.02734375 C-67.47894525 56.06957016 -71.15797382 46.080153 -71.625 34.98828125 C-71.36820396 22.53367314 -68.00060983 10.77687467 -59.31640625 1.48046875 C-42.57112502 -13.06443031 -17.33143618 -13.81759317 0 0 Z M-42.5625 12.95703125 C-48.42392479 22.02758611 -49.87819242 31.07402665 -48.1015625 41.71875 C-46.57947473 47.56535771 -44.21310008 52.02694667 -39.5625 55.95703125 C-34.71401666 58.74041983 -30.11028324 59.90807981 -24.5625 58.95703125 C-17.79882425 56.66551269 -14.35871586 53.15030389 -10.875 46.95703125 C-7.26623738 37.76565242 -7.76888566 26.97168769 -11.5625 17.95703125 C-14.44287325 13.5913571 -17.58848563 9.85752303 -22.5625 7.95703125 C-30.12273052 6.93099997 -37.06574472 7.21852053 -42.5625 12.95703125 Z " fill="#3D3935" transform="translate(517.5625,887.04296875)"/>
<path d="M0 0 C6.4034312 5.27664717 9.4918978 13.17602054 10.34729004 21.29721069 C10.45970227 24.93798597 10.45050572 28.55722977 10.390625 32.19921875 C10.38496521 33.51541702 10.37930542 34.8316153 10.37347412 36.18769836 C10.35836726 39.64846475 10.3192204 43.10853511 10.2746582 46.56903076 C10.2333776 50.11558625 10.21539394 53.66225672 10.1953125 57.20898438 C10.15270667 64.1396337 10.08248455 71.06971155 10 78 C2.74 78 -4.52 78 -12 78 C-12.01458252 76.46666016 -12.02916504 74.93332031 -12.04418945 73.35351562 C-12.10233578 67.64299669 -12.17956837 61.93286531 -12.26245117 56.22265625 C-12.29562363 53.75527251 -12.32367926 51.28781429 -12.34643555 48.8203125 C-12.38012213 45.26530334 -12.43244702 41.71097202 -12.48828125 38.15625 C-12.49467117 37.06010376 -12.5010611 35.96395752 -12.50764465 34.83459473 C-12.62714833 28.5529147 -13.23768425 23.68210122 -16 18 C-19.80997638 15.16466874 -23.39041411 14.45771739 -28.04296875 14.64453125 C-32.26112128 15.41070267 -35.06188035 17.93248453 -37.8125 21.0625 C-39.87809522 24.43268167 -40.13987284 27.25249738 -40.20532227 31.11401367 C-40.22526749 32.15486618 -40.24521271 33.19571869 -40.26576233 34.26811218 C-40.29083107 35.95104118 -40.29083107 35.95104118 -40.31640625 37.66796875 C-40.33718735 38.81791824 -40.35796844 39.96786774 -40.37937927 41.15266418 C-40.44483342 44.83088125 -40.50374074 48.50917048 -40.5625 52.1875 C-40.60568913 54.67904396 -40.64930355 57.17058059 -40.69335938 59.66210938 C-40.8013119 65.77466665 -40.90041666 71.88727767 -41 78 C-48.59 78 -56.18 78 -64 78 C-64 51.27 -64 24.54 -64 -3 C-56.74 -3 -49.48 -3 -42 -3 C-41.67 -0.36 -41.34 2.28 -41 5 C-40.29875 4.2575 -39.5975 3.515 -38.875 2.75 C-27.61738184 -8.0181565 -12.86647266 -8.547968 0 0 Z " fill="#3D3935" transform="translate(2045,883)"/>
<path d="M0 0 C5.68546067 5.10727823 8.64014203 11.20961049 9.43859863 18.81671143 C9.55453678 22.57459706 9.5438654 26.31112835 9.484375 30.0703125 C9.47689678 31.44606699 9.47121134 32.82183228 9.46722412 34.19760132 C9.45209166 37.78495699 9.41292107 41.37164492 9.3684082 44.95874023 C9.32718439 48.6325579 9.30915581 52.30648551 9.2890625 55.98046875 C9.24641094 63.16439939 9.17616714 70.34764534 9.09375 77.53125 C1.83375 77.53125 -5.42625 77.53125 -12.90625 77.53125 C-12.92026855 75.07921143 -12.92026855 75.07921143 -12.93457031 72.57763672 C-12.97447898 66.50558343 -13.0402417 60.4340363 -13.11376953 54.36230469 C-13.14197378 51.73574329 -13.16319096 49.1090971 -13.17724609 46.48242188 C-13.198682 42.70398566 -13.24533948 38.92656837 -13.296875 35.1484375 C-13.29810364 33.97634735 -13.29933228 32.8042572 -13.30059814 31.59664917 C-13.41327763 25.30691243 -13.61864344 21.28683436 -17.90625 16.53125 C-20.87796834 14.19632845 -24.08257337 14.11046147 -27.8125 14.21484375 C-32.51801824 14.92593886 -35.9185004 17.21425053 -38.78125 21.03125 C-40.53945103 24.93836339 -41.03604358 28.30242983 -41.11157227 32.57519531 C-41.13151749 33.57593079 -41.15146271 34.57666626 -41.17201233 35.60772705 C-41.19708107 37.21729279 -41.19708107 37.21729279 -41.22265625 38.859375 C-41.24343735 39.96351746 -41.26421844 41.06765991 -41.28562927 42.20526123 C-41.35098646 45.73052783 -41.40994564 49.25586859 -41.46875 52.78125 C-41.51194836 55.17188265 -41.55556307 57.56250782 -41.59960938 59.953125 C-41.70743677 65.81242511 -41.8066136 71.67178194 -41.90625 77.53125 C-49.16625 77.53125 -56.42625 77.53125 -63.90625 77.53125 C-63.90625 50.80125 -63.90625 24.07125 -63.90625 -3.46875 C-56.64625 -3.46875 -49.38625 -3.46875 -41.90625 -3.46875 C-41.57625 -1.15875 -41.24625 1.15125 -40.90625 3.53125 C-40.46796875 3.06074219 -40.0296875 2.59023438 -39.578125 2.10546875 C-28.60984707 -8.66216995 -12.09347046 -9.31791986 0 0 Z " fill="#3D3935" transform="translate(295.90625,883.46875)"/>
<path d="M0 0 C30.03 0 60.06 0 91 0 C91 6.6 91 13.2 91 20 C79.78 20 68.56 20 57 20 C57 50.69 57 81.38 57 113 C49.08 113 41.16 113 33 113 C33 82.31 33 51.62 33 20 C22.11 20 11.22 20 0 20 C0 13.4 0 6.8 0 0 Z " fill="#3D3935" transform="translate(0,848)"/>
<path d="M0 0 C5.68546067 5.10727823 8.64014203 11.20961049 9.43859863 18.81671143 C9.55453678 22.57459706 9.5438654 26.31112835 9.484375 30.0703125 C9.47689678 31.44606699 9.47121134 32.82183228 9.46722412 34.19760132 C9.45209166 37.78495699 9.41292107 41.37164492 9.3684082 44.95874023 C9.32718439 48.6325579 9.30915581 52.30648551 9.2890625 55.98046875 C9.24641094 63.16439939 9.17616714 70.34764534 9.09375 77.53125 C1.83375 77.53125 -5.42625 77.53125 -12.90625 77.53125 C-12.92083252 75.92685059 -12.93541504 74.32245117 -12.95043945 72.66943359 C-13.00847027 66.70924747 -13.0857039 60.74943723 -13.16870117 54.78955078 C-13.20192781 52.2114879 -13.22996673 49.63335267 -13.25268555 47.05517578 C-13.28627207 43.34636646 -13.33859244 39.6382188 -13.39453125 35.9296875 C-13.40092117 34.77947113 -13.4073111 33.62925476 -13.41389465 32.44418335 C-13.55671888 24.57215114 -13.55671888 24.57215114 -16.90625 17.53125 C-20.34979475 14.57964021 -23.39471328 14.04555907 -27.91796875 14.25 C-32.73044641 14.9307434 -35.29215465 16.73458577 -38.21875 20.53125 C-40.40069061 24.41025552 -41.03592118 27.17651122 -41.11157227 31.5534668 C-41.13151749 32.57429855 -41.15146271 33.59513031 -41.17201233 34.64689636 C-41.19708107 36.29701469 -41.19708107 36.29701469 -41.22265625 37.98046875 C-41.24343735 39.1082222 -41.26421844 40.23597565 -41.28562927 41.39790344 C-41.35107847 45.0047896 -41.40998844 48.61174929 -41.46875 52.21875 C-41.51193961 54.66211702 -41.55555404 57.10547656 -41.59960938 59.54882812 C-41.7067552 65.54289316 -41.80803591 71.53703224 -41.90625 77.53125 C-49.16625 77.53125 -56.42625 77.53125 -63.90625 77.53125 C-63.90625 50.80125 -63.90625 24.07125 -63.90625 -3.46875 C-56.64625 -3.46875 -49.38625 -3.46875 -41.90625 -3.46875 C-41.57625 -1.15875 -41.24625 1.15125 -40.90625 3.53125 C-40.38675781 3.04914062 -39.86726562 2.56703125 -39.33203125 2.0703125 C-27.96000286 -8.22967624 -12.47850654 -9.61458701 0 0 Z " fill="#3D3935" transform="translate(836.90625,883.46875)"/>
<path d="M0 0 C6.69979656 6.0346543 10.50976733 12.06747757 11.26127625 21.16181946 C11.34587339 24.85243318 11.33734957 28.53134087 11.29296875 32.22265625 C11.2873616 33.57742336 11.2830968 34.93219663 11.28010559 36.28697205 C11.26874466 39.82324526 11.23935521 43.35913873 11.20599365 46.89526367 C11.1751019 50.51541001 11.16155978 54.13561874 11.14648438 57.75585938 C11.11447516 64.83740823 11.06178092 71.91863909 11 79 C3.74 79 -3.52 79 -11 79 C-11.01458252 77.39560059 -11.02916504 75.79120117 -11.04418945 74.13818359 C-11.10222027 68.17799747 -11.1794539 62.21818723 -11.26245117 56.25830078 C-11.29567781 53.6802379 -11.32371673 51.10210267 -11.34643555 48.52392578 C-11.38002207 44.81511646 -11.43234244 41.1069688 -11.48828125 37.3984375 C-11.49467117 36.24822113 -11.5010611 35.09800476 -11.50764465 33.91293335 C-11.65046888 26.04090114 -11.65046888 26.04090114 -15 19 C-18.44354475 16.04839021 -21.48846328 15.51430907 -26.01171875 15.71875 C-30.82419641 16.3994934 -33.38590465 18.20333577 -36.3125 22 C-38.49444061 25.87900552 -39.12967118 28.64526122 -39.20532227 33.0222168 C-39.22526749 34.04304855 -39.24521271 35.06388031 -39.26576233 36.11564636 C-39.29083107 37.76576469 -39.29083107 37.76576469 -39.31640625 39.44921875 C-39.33718735 40.5769722 -39.35796844 41.70472565 -39.37937927 42.86665344 C-39.44482847 46.4735396 -39.50373844 50.08049929 -39.5625 53.6875 C-39.60568961 56.13086702 -39.64930404 58.57422656 -39.69335938 61.01757812 C-39.8005052 67.01164316 -39.90178591 73.00578224 -40 79 C-47.26 79 -54.52 79 -62 79 C-62 52.27 -62 25.54 -62 -2 C-55.07 -2 -48.14 -2 -41 -2 C-40.67 0.64 -40.34 3.28 -40 6 C-39.11248047 5.16855469 -39.11248047 5.16855469 -38.20703125 4.3203125 C-37.41683594 3.59585938 -36.62664062 2.87140625 -35.8125 2.125 C-35.03519531 1.40570312 -34.25789063 0.68640625 -33.45703125 -0.0546875 C-24.42904795 -7.20243899 -9.1665073 -6.79069827 0 0 Z " fill="#3D3935" transform="translate(1826,882)"/>
<path d="M0 0 C6.28630422 6.04155058 7.47761263 11.07090105 8.5625 19.75 C1.9625 19.75 -4.6375 19.75 -11.4375 19.75 C-12.7575 17.11 -14.0775 14.47 -15.4375 11.75 C-21.43564877 8.33726018 -26.74917748 8.23716514 -33.4375 9.75 C-35.68594778 10.47235972 -35.68594778 10.47235972 -37.4375 11.75 C-38.25620185 15.31206661 -38.25620185 15.31206661 -38.4375 18.75 C-35.24776618 21.51316072 -32.60976152 22.37772736 -28.4921875 23.1796875 C-27.33203125 23.41816406 -26.171875 23.65664063 -24.9765625 23.90234375 C-22.55789531 24.37937299 -20.13863258 24.85339377 -17.71875 25.32421875 C-8.00679291 27.32878384 1.21818236 29.79683238 7.4453125 38.01171875 C11.17322743 43.81214583 11.17183234 50.05686511 10.5625 56.75 C9.37076523 62.17797947 6.9344079 67.20081438 2.5625 70.75 C-10.03776431 78.21229245 -22.92455106 79.61399804 -37.29296875 77.06640625 C-47.04370384 74.31150923 -53.89184857 69.83634117 -59.31640625 61.20703125 C-61.20298263 57.07233946 -61.31030019 53.26559336 -61.4375 48.75 C-54.8375 48.75 -48.2375 48.75 -41.4375 48.75 C-40.4165625 50.8846875 -40.4165625 50.8846875 -39.375 53.0625 C-37.51553463 56.35670607 -36.54544768 57.67875453 -33.3125 59.8125 C-26.95004535 61.35180354 -21.12770356 61.64673452 -14.875 59.5625 C-12.03464686 57.45044254 -11.11443254 56.21927926 -10.4375 52.75 C-10.6488268 50.48953793 -10.6488268 50.48953793 -12.4375 48.75 C-19.45920507 45.73611746 -26.65716718 44.29186167 -34.12890625 42.8203125 C-43.40639294 40.85353708 -52.0798886 37.95384245 -57.4375 29.75 C-60.30803747 23.87223279 -60.36482465 16.75712551 -58.90234375 10.4375 C-56.23875638 2.75239545 -51.56020242 -1.5811363 -44.4375 -5.25 C-30.24105726 -10.41234282 -12.05879462 -9.74492997 0 0 Z " fill="#3D3935" transform="translate(2489.4375,885.25)"/>
<path d="M0 0 C6.28630422 6.04155058 7.47761263 11.07090105 8.5625 19.75 C1.9625 19.75 -4.6375 19.75 -11.4375 19.75 C-12.7575 17.11 -14.0775 14.47 -15.4375 11.75 C-21.48625429 8.30846738 -26.70359821 8.25999429 -33.4375 9.75 C-36.56819417 10.70464586 -36.56819417 10.70464586 -38.4375 12.75 C-39.1875 15.75 -39.1875 15.75 -38.4375 18.75 C-35.45922968 21.58762616 -32.64996699 22.38859061 -28.67578125 23.21484375 C-27.55623047 23.45783203 -26.43667969 23.70082031 -25.28320312 23.95117188 C-24.11724609 24.19416016 -22.95128906 24.43714844 -21.75 24.6875 C0.31944332 29.28995277 0.31944332 29.28995277 7.5625 37.75 C11.4605151 44.06173264 11.63498414 51.91966446 10.05859375 59.01953125 C7.52053442 66.60470286 3.56465852 70.44543407 -3.4375 74.0625 C-14.54391491 79.45987765 -28.82179146 79.45978694 -40.625 76.125 C-48.92659483 73.1014496 -54.60074561 68.70863774 -59.31640625 61.20703125 C-61.20298263 57.07233946 -61.31030019 53.26559336 -61.4375 48.75 C-54.8375 48.75 -48.2375 48.75 -41.4375 48.75 C-40.4165625 50.8846875 -40.4165625 50.8846875 -39.375 53.0625 C-37.51553463 56.35670607 -36.54544768 57.67875453 -33.3125 59.8125 C-26.88730391 61.36698292 -21.02211739 61.77493448 -14.8125 59.3125 C-12.57562826 57.95549211 -12.57562826 57.95549211 -11.4375 56.75 C-10.93718794 53.33428147 -10.93718794 53.33428147 -11.4375 49.75 C-14.84813584 47.16416349 -18.1085538 46.16735058 -22.26171875 45.3203125 C-23.37353516 45.08183594 -24.48535156 44.84335937 -25.63085938 44.59765625 C-27.94000971 44.12007904 -30.24989816 43.64605541 -32.56054688 43.17578125 C-42.4474071 41.04455028 -51.612377 38.4876845 -57.4375 29.75 C-60.57048676 23.16297837 -60.58857097 15.27112689 -58.25 8.375 C-55.14881187 1.50401895 -51.06963975 -2.10227656 -44.30078125 -5.2109375 C-30.07900956 -10.37190785 -12.10358784 -9.78112818 0 0 Z " fill="#3D3935" transform="translate(1038.4375,885.25)"/>
<path d="M0 0 C6.28630422 6.04155058 7.47761263 11.07090105 8.5625 19.75 C1.9625 19.75 -4.6375 19.75 -11.4375 19.75 C-12.7575 17.11 -14.0775 14.47 -15.4375 11.75 C-21.43564877 8.33726018 -26.74917748 8.23716514 -33.4375 9.75 C-35.68594778 10.47235972 -35.68594778 10.47235972 -37.4375 11.75 C-38.25620185 15.31206661 -38.25620185 15.31206661 -38.4375 18.75 C-35.24776618 21.51316072 -32.60976152 22.37772736 -28.4921875 23.1796875 C-27.33203125 23.41816406 -26.171875 23.65664063 -24.9765625 23.90234375 C-22.55789531 24.37937299 -20.13863258 24.85339377 -17.71875 25.32421875 C-8.00679291 27.32878384 1.21818236 29.79683238 7.4453125 38.01171875 C11.17322743 43.81214583 11.17183234 50.05686511 10.5625 56.75 C9.37076523 62.17797947 6.9344079 67.20081438 2.5625 70.75 C-10.03776431 78.21229245 -22.92455106 79.61399804 -37.29296875 77.06640625 C-46.98960524 74.32679383 -54.44839257 69.65767763 -59.4375 60.75 C-61.37808199 56.22197535 -61.4375 53.92131882 -61.4375 48.75 C-54.5075 48.75 -47.5775 48.75 -40.4375 48.75 C-39.4475 51.06 -38.4575 53.37 -37.4375 55.75 C-35.2314096 58.65802825 -32.85335946 59.5707732 -29.4375 60.75 C-23.34423882 61.43294194 -17.52520515 61.53316537 -12.4375 57.75 C-10.7986161 55.08681366 -10.26850217 53.70765435 -10.8125 50.625 C-15.79749905 44.87307802 -27.02342018 44.21972862 -34.12890625 42.8203125 C-43.40639294 40.85353708 -52.0798886 37.95384245 -57.4375 29.75 C-60.30803747 23.87223279 -60.36482465 16.75712551 -58.90234375 10.4375 C-56.54204788 3.62746601 -52.73612683 -0.68473953 -46.4375 -4.25 C-31.81017431 -10.45971373 -12.73696253 -10.29296972 0 0 Z " fill="#3D3935" transform="translate(377.4375,885.25)"/>
<path d="M0 0 C5.13219287 5.75960031 7 11.08243065 7 18.75 C0.4 18.75 -6.2 18.75 -13 18.75 C-13.99 16.44 -14.98 14.13 -16 11.75 C-19.58843338 8.10879554 -23.26061546 8.07635637 -28.16015625 7.734375 C-32.08666513 7.7559789 -35.27070535 8.55381115 -39 9.75 C-39.33 12.39 -39.66 15.03 -40 17.75 C-36.21621631 20.27841414 -32.88565744 21.44034517 -28.44921875 22.3984375 C-27.19302734 22.68203125 -25.93683594 22.965625 -24.64257812 23.2578125 C-22.66918501 23.69302991 -20.69494227 24.12340503 -18.71899414 24.546875 C-7.82489292 26.90206165 0.4106987 29.44745698 7 38.75 C10.18165627 45.23654571 10.16950216 53.3030906 8.34765625 60.23046875 C4.94125867 67.78887025 -1.39744939 71.82616517 -8.7890625 74.98828125 C-20.7624934 79.1134032 -36.67745146 78.08011338 -48 72.75 C-54.56257376 68.96917392 -59.55004205 64.03424997 -62 56.75 C-62.33 53.78 -62.66 50.81 -63 47.75 C-56.07 47.75 -49.14 47.75 -42 47.75 C-41.01 50.06 -40.02 52.37 -39 54.75 C-33.83376612 59.65792219 -29.6534701 59.96341946 -22.80859375 59.91796875 C-19.24743609 59.7049927 -16.35079301 58.94139307 -13 57.75 C-11.87923472 53.10103104 -11.87923472 53.10103104 -13.02734375 48.640625 C-15.75436819 46.02700157 -18.66332237 45.49864239 -22.25 44.75 C-23.69292943 44.41762503 -25.13563279 44.08426736 -26.578125 43.75 C-27.67930664 43.5025 -27.67930664 43.5025 -28.80273438 43.25 C-50.14941645 38.3924439 -50.14941645 38.3924439 -56.3125 32.5625 C-60.26720945 25.97131758 -62.10860528 19.25307666 -60.56640625 11.59765625 C-58.87571152 5.45444868 -55.96992616 0.77327356 -51 -3.25 C-35.66479097 -11.84539533 -13.58489306 -12.40234398 0 0 Z " fill="#3D3935" transform="translate(1417,886.25)"/>
<path d="M0 0 C5.94921928 6.48809784 7.76179005 12.08253037 9 20.75 C1.74 20.75 -5.52 20.75 -13 20.75 C-14.32 18.11 -15.64 15.47 -17 12.75 C-20.18076335 9.66562342 -23.16250032 9.50365852 -27.4375 9.3125 C-32.40614281 9.46610052 -35.26068485 10.28429328 -39 13.75 C-45.05890841 21.32363551 -45.76478956 29.36937808 -45 38.75 C-43.82234314 45.30991674 -41.84826588 50.13260393 -37 54.75 C-32.70695373 57.37352828 -27.88993587 57.29428615 -23 56.75 C-17.78559576 54.97907026 -15.67379331 52.50341032 -13 47.75 C-12.67 46.76 -12.34 45.77 -12 44.75 C-4.74 44.75 2.52 44.75 10 44.75 C7.6529202 56.485399 4.98317661 63.88656608 -5 70.75 C-15.67651864 76.52726091 -28.65119098 77.82064997 -40.4375 74.625 C-51.76245686 70.4840719 -59.75605561 63.95249926 -64.875 53 C-69.64871301 41.93510229 -69.93091792 27.43152514 -66.375 15.9375 C-62.56156295 6.56999784 -55.41894941 -2.07710051 -46.2578125 -6.60546875 C-30.6839285 -12.58049073 -12.64429764 -11.81787296 0 0 Z " fill="#3D3935" transform="translate(1569,887.25)"/>
<path d="M0 0 C7.26 0 14.52 0 22 0 C25.375 9 25.375 9 26.53393555 12.76367188 C26.92400032 14.02407288 26.92400032 14.02407288 27.32194519 15.30993652 C27.59082047 16.18734497 27.85969574 17.06475342 28.13671875 17.96875 C28.42102249 18.88966431 28.70532623 19.81057861 28.99824524 20.75939941 C29.89693001 23.67224003 30.79226756 26.58609672 31.6875 29.5 C32.29990844 31.48704753 32.91253648 33.47402739 33.52539062 35.4609375 C35.01946716 40.30651303 36.51054471 45.15300208 38 50 C38.18570053 49.40309357 38.37140106 48.80618713 38.56272888 48.19119263 C40.49101951 41.99417123 42.42168924 35.79789472 44.35375977 29.60205078 C45.07507752 27.28778914 45.7957827 24.97333647 46.51586914 22.65869141 C47.5493434 19.33706389 48.58499864 16.0161233 49.62109375 12.6953125 C49.94403915 11.65569366 50.26698456 10.61607483 50.59971619 9.54495239 C50.89995193 8.58410736 51.20018768 7.62326233 51.50952148 6.63330078 C51.77377426 5.78502716 52.03802704 4.93675354 52.31028748 4.06277466 C53 2 53 2 54 0 C61.59 0 69.18 0 77 0 C68.11869677 27.16182587 58.60185379 54.08554231 49 81 C41.74 81 34.48 81 27 81 C25.33324219 76.18148437 25.33324219 76.18148437 23.6328125 71.265625 C22.52338339 68.06102119 21.41346641 64.85658683 20.30343628 61.65219116 C19.52007065 59.39058426 18.73696771 57.12888636 17.95413208 54.86709595 C12.37413088 38.73334442 12.37413088 38.73334442 6.64453125 22.65234375 C6.40506775 21.9896347 6.16560425 21.32692566 5.91888428 20.64413452 C4.85338285 17.70023852 3.77939787 14.75981107 2.69384766 11.82324219 C2.32952637 10.82325195 1.96520508 9.82326172 1.58984375 8.79296875 C1.27909912 7.9527417 0.96835449 7.11251465 0.64819336 6.24682617 C0 4 0 4 0 0 Z " fill="#3D3935" transform="translate(2261,880)"/>
<path d="M0 0 C2.5575 0.020625 5.115 0.04125 7.75 0.0625 C7.75 6.0025 7.75 11.9425 7.75 18.0625 C5.24348958 18.22526042 2.73697917 18.38802083 0.23046875 18.55078125 C-2.65492495 19.1460357 -3.59386229 19.64199103 -5.25 22.0625 C-5.82571496 24.56453648 -5.82571496 24.56453648 -5.9375 27.25 C-6.040625 28.838125 -6.14375 30.42625 -6.25 32.0625 C-1.63 32.0625 2.99 32.0625 7.75 32.0625 C7.75 37.0125 7.75 41.9625 7.75 47.0625 C3.13 47.0625 -1.49 47.0625 -6.25 47.0625 C-6.25 68.8425 -6.25 90.6225 -6.25 113.0625 C-13.84 113.0625 -21.43 113.0625 -29.25 113.0625 C-29.25 91.2825 -29.25 69.5025 -29.25 47.0625 C-32.88 47.0625 -36.51 47.0625 -40.25 47.0625 C-40.25 42.1125 -40.25 37.1625 -40.25 32.0625 C-36.62 32.0625 -32.99 32.0625 -29.25 32.0625 C-29.311875 30.45375 -29.37375 28.845 -29.4375 27.1875 C-29.42853781 20.23284154 -28.07018575 14.33883435 -24.6875 8.25 C-17.44405159 1.74946938 -9.444358 -0.1076253 0 0 Z " fill="#3D3935" transform="translate(433.25,847.9375)"/>
<path d="M0 0 C7.59 0 15.18 0 23 0 C23 37.29 23 74.58 23 113 C15.41 113 7.82 113 0 113 C0 75.71 0 38.42 0 0 Z " fill="#3D3935" transform="translate(1232,848)"/>
<path d="M0 0 C7.26 0 14.52 0 22 0 C22 37.29 22 74.58 22 113 C14.74 113 7.48 113 0 113 C0 75.71 0 38.42 0 0 Z " fill="#3D3935" transform="translate(2191,848)"/>
<path d="M0 0 C2.8153125 0.061875 2.8153125 0.061875 5.6875 0.125 C5.6875 6.725 5.6875 13.325 5.6875 20.125 C3.66625 20.3725 1.645 20.62 -0.4375 20.875 C-5.64972203 21.70125887 -9.42402207 22.33622663 -13.3125 26.125 C-18.38911835 33.69047995 -18.45730878 41.94004795 -18.62890625 50.77734375 C-18.64968735 51.67747696 -18.67046844 52.57761017 -18.69187927 53.50502014 C-18.75683837 56.35744187 -18.81600828 59.20994925 -18.875 62.0625 C-18.91823633 64.00586794 -18.96185219 65.94922748 -19.00585938 67.89257812 C-19.1131726 72.63663257 -19.21264361 77.38075939 -19.3125 82.125 C-26.5725 82.125 -33.8325 82.125 -41.3125 82.125 C-41.3125 55.395 -41.3125 28.665 -41.3125 1.125 C-34.0525 1.125 -26.7925 1.125 -19.3125 1.125 C-18.9825 4.095 -18.6525 7.065 -18.3125 10.125 C-17.64154297 9.29355469 -17.64154297 9.29355469 -16.95703125 8.4453125 C-16.35246094 7.72085938 -15.74789062 6.99640625 -15.125 6.25 C-14.53332031 5.53070312 -13.94164062 4.81140625 -13.33203125 4.0703125 C-9.2987411 0.18524771 -5.43879061 -0.11953386 0 0 Z " fill="#3D3935" transform="translate(584.3125,878.875)"/>
<path d="M0 0 C0 6.6 0 13.2 0 20 C-3.22265625 20.42317708 -6.4453125 20.84635417 -9.66796875 21.26953125 C-14.10171722 22.24152535 -16.73991861 23.07210176 -19.30197144 26.99198914 C-22.82056278 33.56080369 -23.73680763 38.86450178 -23.70703125 46.2578125 C-23.72215256 47.28687714 -23.73727386 48.31594177 -23.75285339 49.37619019 C-23.79544723 52.62602131 -23.80454121 55.87491855 -23.8125 59.125 C-23.83566623 61.34377434 -23.86103595 63.56252683 -23.88867188 65.78125 C-23.95534702 71.18799784 -23.97659884 76.59220416 -24 82 C-31.26 82 -38.52 82 -46 82 C-46 55.27 -46 28.54 -46 1 C-39.07 1 -32.14 1 -25 1 C-24.67 3.97 -24.34 6.94 -24 10 C-22.700625 8.3603125 -22.700625 8.3603125 -21.375 6.6875 C-15.01592875 -0.58421573 -9.26729181 -0.30890973 0 0 Z " fill="#3D3935" transform="translate(138,879)"/>
<path d="M0 0 C7.26 0 14.52 0 22 0 C22 26.73 22 53.46 22 81 C14.74 81 7.48 81 0 81 C0 54.27 0 27.54 0 0 Z " fill="#3D3935" transform="translate(2229,880)"/>
<path d="M0 0 C7.26 0 14.52 0 22 0 C22 26.73 22 53.46 22 81 C14.74 81 7.48 81 0 81 C0 54.27 0 27.54 0 0 Z " fill="#3D3935" transform="translate(1943,880)"/>
<path d="M0 0 C7.26 0 14.52 0 22 0 C22 26.73 22 53.46 22 81 C14.74 81 7.48 81 0 81 C0 54.27 0 27.54 0 0 Z " fill="#3D3935" transform="translate(1194,880)"/>
<path d="M0 0 C7.26 0 14.52 0 22 0 C22 26.73 22 53.46 22 81 C14.74 81 7.48 81 0 81 C0 54.27 0 27.54 0 0 Z " fill="#3D3935" transform="translate(735,880)"/>
<path d="M0 0 C3.96 0 7.92 0 12 0 C13.26536863 3.77132466 14.52873714 7.54331285 15.7902832 11.31591797 C16.21942565 12.59832705 16.64910727 13.88055585 17.0793457 15.16259766 C17.69885857 17.00896085 18.31625088 18.85603512 18.93359375 20.703125 C19.30540771 21.81333008 19.67722168 22.92353516 20.06030273 24.06738281 C20.79856736 26.37136688 21.45623988 28.64454143 22 31 C23.60741801 26.19110401 25.20573425 21.37938596 26.7890625 16.5625 C27.40101848 14.70832568 28.01299784 12.85415908 28.625 11 C28.93695312 10.04738281 29.24890625 9.09476563 29.5703125 8.11328125 C29.869375 7.20964844 30.1684375 6.30601562 30.4765625 5.375 C30.74549316 4.55773437 31.01442383 3.74046875 31.29150391 2.8984375 C32 1 32 1 33 0 C36.96 0 40.92 0 45 0 C45 15.18 45 30.36 45 46 C42.03 46 39.06 46 36 46 C35.505 33.625 35.505 33.625 35 21 C34.43410156 22.72089844 33.86820313 24.44179687 33.28515625 26.21484375 C32.544428 28.45578112 31.80353404 30.69666373 31.0625 32.9375 C30.68931641 34.07380859 30.31613281 35.21011719 29.93164062 36.38085938 C29.57392578 37.46044922 29.21621094 38.54003906 28.84765625 39.65234375 C28.3527771 41.15269165 28.3527771 41.15269165 27.84790039 42.68334961 C27 45 27 45 26 46 C23.36 46 20.72 46 18 46 C15.03 37.42 12.06 28.84 9 20 C8.67 28.58 8.34 37.16 8 46 C5.36 46 2.72 46 0 46 C0 30.82 0 15.64 0 0 Z M36 14 C37 17 37 17 37 17 Z " fill="#3D3935" transform="translate(2068,165)"/>
<path d="M0 0 C7.59 0 15.18 0 23 0 C23.09249684 4.10840121 23.17192096 8.21410613 23.21972656 12.32299805 C23.23967995 13.71667814 23.26685319 15.1102763 23.30175781 16.50366211 C23.53423714 26.03189582 22.94695951 33.2955635 17.4296875 41.26953125 C12.85583566 45.80890682 6.70368058 50 0 50 C-0.43403895 46.8997218 -0.58774867 44.08695824 0 41 C1.5748754 39.28195411 3.28161263 38.10242871 5.17578125 36.75 C8.72705993 33.34320589 9.59642103 28.60373902 11 24 C7.37 24 3.74 24 0 24 C0 16.08 0 8.16 0 0 Z " fill="#3D3935" transform="translate(1437,937)"/>
<path d="M0 0 C12.54 0 25.08 0 38 0 C38 2.64 38 5.28 38 8 C33.38 8 28.76 8 24 8 C24 20.54 24 33.08 24 46 C20.7 46 17.4 46 14 46 C14 33.46 14 20.92 14 8 C9.38 8 4.76 8 0 8 C0 5.36 0 2.72 0 0 Z " fill="#3D3935" transform="translate(2025,165)"/>
<path d="M0 0 C7.92 0 15.84 0 24 0 C24 7.92 24 15.84 24 24 C16.08 24 8.16 24 0 24 C0 16.08 0 8.16 0 0 Z " fill="#3D3935" transform="translate(2510,937)"/>
<path d="M0 0 C7.26 0 14.52 0 22 0 C22 6.6 22 13.2 22 20 C14.74 20 7.48 20 0 20 C0 13.4 0 6.8 0 0 Z " fill="#3D3935" transform="translate(2229,848)"/>
<path d="M0 0 C7.26 0 14.52 0 22 0 C22 6.6 22 13.2 22 20 C14.74 20 7.48 20 0 20 C0 13.4 0 6.8 0 0 Z " fill="#3D3935" transform="translate(1943,848)"/>
<path d="M0 0 C7.26 0 14.52 0 22 0 C22 6.6 22 13.2 22 20 C14.74 20 7.48 20 0 20 C0 13.4 0 6.8 0 0 Z " fill="#3D3935" transform="translate(1194,848)"/>
<path d="M0 0 C7.26 0 14.52 0 22 0 C22 6.6 22 13.2 22 20 C14.74 20 7.48 20 0 20 C0 13.4 0 6.8 0 0 Z " fill="#3D3935" transform="translate(735,848)"/>
</svg>
