<?xml version="1.0" encoding="UTF-8"?>
<svg version="1.1" xmlns="http://www.w3.org/2000/svg" width="860" height="520">
<path d="M0 0 C283.8 0 567.6 0 860 0 C860 171.6 860 343.2 860 520 C576.2 520 292.4 520 0 520 C0 348.4 0 176.8 0 0 Z " fill="#210B2B" transform="translate(0,0)"/>
<path d="M0 0 C10.15218313 1.12802035 10.15218313 1.12802035 14.3125 3.375 C15.11300781 3.79523438 15.91351563 4.21546875 16.73828125 4.6484375 C18.95035121 5.97033077 20.97194729 7.41282831 23 9 C21.125 12.875 21.125 12.875 20 14 C20.7734375 14.21914062 21.546875 14.43828125 22.34375 14.6640625 C31.34582691 17.40479384 38.62932875 20.91274313 43.96875 28.921875 C46.01730586 33.05002544 47.00379569 37.52113022 48 42 C48.99 41.01 49.98 40.02 51 39 C54.29142237 40.37259316 55.79419953 41.70260309 57.625 44.75 C58.02976562 45.40484375 58.43453125 46.0596875 58.8515625 46.734375 C62.74985278 54.42487962 63.58377141 63.35883483 61.2421875 71.69921875 C60.28942604 73.90857505 59.23278261 75.93551132 58 78 C57.66484375 78.62003906 57.3296875 79.24007812 56.984375 79.87890625 C56 81.5625 56 81.5625 54 84 C50 84 50 84 47 82 C47.05285156 82.86625 47.10570312 83.7325 47.16015625 84.625 C46.83260657 91.52751035 42.84217627 98.7158892 37.875 103.5 C33.24629867 107.03160508 27.53404628 108.45519234 22 110 C22 110.66 22 111.32 22 112 C22 113.32 22 114.64 22 116 C15.56089976 121.41558129 8.31226612 124 0 124 C0 114.1 0 104.2 0 94 C-2.31 94 -4.62 94 -7 94 C-16.02319292 91.68636079 -23.41376461 86.95973217 -28.375 79.0625 C-32.677273 71.21786635 -34.70692985 63.18185405 -32.27734375 54.3828125 C-28.28818044 43.75581064 -22.76385945 38.20542387 -12.84375 32.83203125 C-10 32 -10 32 0 32 C0 21.44 0 10.88 0 0 Z " fill="#DF09B5" transform="translate(171,198)"/>
<path d="M0 0 C0 7.59 0 15.18 0 23 C-4.95 24.485 -4.95 24.485 -10 26 C-20.28756672 30.54470819 -26.8782729 38.6513626 -31 49 C-33.8508453 57.7413336 -32.7934463 68.97037251 -28.96484375 77.234375 C-27.74547524 79.57117124 -26.42364317 81.78232487 -25 84 C-24.61457031 84.62003906 -24.22914063 85.24007812 -23.83203125 85.87890625 C-18.49915729 93.21365906 -8.6170351 97.27659298 0 99 C0 106.59 0 114.18 0 122 C-15.05356766 122 -27.45406906 115.50938618 -38.25 105.25 C-51.06626653 91.76346913 -56.50510538 75.78362113 -56.20703125 57.41796875 C-55.59144492 39.81522087 -47.44202158 25.82715424 -35 14 C-25.1615645 5.09323453 -13.19752779 0 0 0 Z " fill="#DF09B5" transform="translate(162,199)"/>
<path d="M0 0 C7.13844303 4.31592058 11.85282904 12.09092532 14 20 C15.03189623 30.12698162 14.1113429 38.4266668 8.01171875 46.6953125 C3.60712657 51.9138794 -0.53508521 55.70728795 -7 58 C-8.134375 58.4125 -9.26875 58.825 -10.4375 59.25 C-19.23501913 61.10210929 -27.599515 60.21415962 -35.421875 55.55859375 C-43.00518803 50.07468785 -48.92444274 42.25352613 -51 33 C-52.03344811 24.28745827 -50.36604998 15.94530023 -45.25 8.75 C-33.15263585 -5.99273371 -17.08784101 -9.43227921 0 0 Z " fill="#F9F8F9" transform="translate(600,232)"/>
<path d="M0 0 C4.37415276 -0.07493936 8.74795155 -0.12896881 13.12255859 -0.16479492 C14.60634889 -0.17975184 16.09009599 -0.20012495 17.57373047 -0.22631836 C28.42864989 -0.41296734 39.31919447 -0.46953034 48 7 C53.03945404 13.76491929 54.87802108 19.55845448 54 28 C52.20822612 34.14168275 48.32612764 38.53670518 43 42 C42.34 42 41.68 42 41 42 C44.26542755 48.35816421 48.09834509 54.02758476 52.42578125 59.71484375 C54 62 54 62 54 64 C49.68914249 65.01564706 46.28088627 65.24140776 42 64 C37.33681385 59.89064648 34.20478414 54.26030248 31 49 C30.34 48.01 29.68 47.02 29 46 C26.04839957 45.61411212 23.33317348 45.39721507 20.375 45.3125 C17.61125 45.209375 14.8475 45.10625 12 45 C12 51.27 12 57.54 12 64 C8.04 64 4.08 64 0 64 C0 54.43 0 44.86 0 35 C3.36058594 34.94392578 3.36058594 34.94392578 6.7890625 34.88671875 C8.97356589 34.84042603 11.15790316 34.78922086 13.34228516 34.73754883 C14.85324904 34.70442074 16.36433307 34.67635145 17.87548828 34.65356445 C20.05553082 34.61979319 22.23448439 34.56747104 24.4140625 34.51171875 C26.37786865 34.47244263 26.37786865 34.47244263 28.38134766 34.43237305 C33.24315228 33.85146251 36.71013829 32.54783405 39.875 28.75 C41.69194295 24.30858391 41.66428947 20.71933746 39.9375 16.25 C36.55256542 12.31910823 32.35133743 11.16050021 27.35961914 10.56762695 C26.09754639 10.54144287 24.83547363 10.51525879 23.53515625 10.48828125 C22.51789711 10.46135445 22.51789711 10.46135445 21.48008728 10.43388367 C19.34095243 10.38025057 17.20203442 10.34603956 15.0625 10.3125 C13.60088157 10.27928508 12.1392916 10.24479163 10.67773438 10.20898438 C7.1186979 10.12455397 3.55958488 10.0575203 0 10 C0 6.7 0 3.4 0 0 Z " fill="#F8F7F8" transform="translate(476,227)"/>
<path d="M0 0 C5.74030722 3.32395613 9.62027381 8.16064957 11.6875 14.4375 C12.47519034 20.56499809 12.22179137 26.2368798 9.0859375 31.65234375 C5.20562094 36.60570875 -0.1481109 40.15325227 -6.3125 41.4375 C-14.09305453 42.19045689 -19.05357833 40.10389046 -25.0625 35.1875 C-29.4028701 29.88260321 -32.12870419 24.80103957 -31.75390625 17.80078125 C-30.32144007 10.13138269 -26.52788979 4.85585135 -20.1796875 0.49609375 C-14.23611387 -2.87358921 -6.16915846 -2.78683992 0 0 Z " fill="#2A1231" transform="translate(591.3125,239.5625)"/>
<path d="M0 0 C1.49606968 0.02010759 2.99216564 0.03835079 4.48828125 0.0546875 C8.11774238 0.09831885 11.74619819 0.16710697 15.375 0.25 C15.375 3.88 15.375 7.51 15.375 11.25 C14.45275635 11.24887207 13.5305127 11.24774414 12.58032227 11.24658203 C9.11843172 11.25657933 5.6588833 11.29337793 2.19750977 11.34765625 C0.70704015 11.36568937 -0.78359486 11.373408 -2.27416992 11.37011719 C-11.29562615 11.35802003 -18.79145302 11.57401646 -25.625 18.25 C-29.88363983 23.22305054 -31.06010047 28.06987997 -30.95703125 34.48828125 C-30.14513423 41.24135408 -27.22923793 46.25532463 -21.96875 50.4921875 C-15.29251842 54.73768324 -7.69109462 54.14184202 -0.0625 54.125 C1.43818581 54.14315673 2.93884196 54.16396869 4.43945312 54.1875 C8.08480198 54.23895262 11.72924048 54.25445887 15.375 54.25 C15.375 57.88 15.375 61.51 15.375 65.25 C11.30411083 65.35018279 7.23371599 65.42207471 3.16186523 65.46972656 C1.781855 65.4896267 0.40192663 65.5167574 -0.9777832 65.55175781 C-12.6035177 65.83891726 -22.58969616 64.53730558 -31.83984375 57.015625 C-38.94536583 49.98784386 -41.86919821 42.00679443 -42.125 32.0625 C-41.97480586 23.12153136 -39.40653603 16.63658179 -33.57421875 9.87109375 C-23.63961804 0.28940959 -13.11516031 -0.30872907 0 0 Z " fill="#F5F4F5" transform="translate(299.625,226.75)"/>
<path d="M0 0 C4.29 0 8.58 0 13 0 C15.54136875 5.61511144 18.08244941 11.23035313 20.62329102 16.84570312 C21.4832426 18.74612744 22.34326579 20.64651936 23.20336914 22.546875 C25.29597972 27.17045461 27.38729695 31.79460914 29.47607422 36.41992188 C31.18876234 40.21122505 32.91027086 43.99837004 34.63720703 47.78320312 C35.46779836 49.61066576 36.29836574 51.43813927 37.12890625 53.265625 C37.51924545 54.11670837 37.90958466 54.96779175 38.31175232 55.84466553 C38.66592728 56.62585754 39.02010223 57.40704956 39.38500977 58.21191406 C39.69801529 58.89771545 40.01102081 59.58351685 40.33351135 60.2901001 C41 62 41 62 41 64 C37.04 64 33.08 64 29 64 C23.61905272 53.64549577 19.10746092 43.01596456 14.625 32.25 C13.88188922 30.47379981 13.13840232 28.69775692 12.39453125 26.921875 C10.59201845 22.61638228 8.79458944 18.30880095 7 14 C4.70942596 16.29057404 3.95683993 18.15829285 2.71484375 21.14453125 C2.27060059 22.20486572 1.82635742 23.2652002 1.36865234 24.35766602 C0.89637207 25.49776123 0.4240918 26.63785645 -0.0625 27.8125 C-1.05040899 30.17203089 -2.03869607 32.53140352 -3.02734375 34.890625 C-3.52347168 36.07849609 -4.01959961 37.26636719 -4.53076172 38.49023438 C-6.70751632 43.69013869 -8.91103506 48.87834861 -11.125 54.0625 C-11.50277588 54.95364502 -11.88055176 55.84479004 -12.26977539 56.76293945 C-12.61645264 57.574646 -12.96312988 58.38635254 -13.3203125 59.22265625 C-13.62211426 59.93172119 -13.92391602 60.64078613 -14.23486328 61.37133789 C-15 63 -15 63 -16 64 C-18.01964199 64.07244053 -20.04167124 64.08377188 -22.0625 64.0625 C-23.16722656 64.05347656 -24.27195312 64.04445313 -25.41015625 64.03515625 C-26.26480469 64.02355469 -27.11945313 64.01195312 -28 64 C-26.55027437 59.35327139 -24.70680403 54.97234814 -22.65625 50.56640625 C-22.16771545 49.50579987 -22.16771545 49.50579987 -21.66931152 48.42376709 C-20.97412689 46.9146464 -20.27768261 45.40610543 -19.58007812 43.89810181 C-17.76450156 39.97203035 -15.95939532 36.0411687 -14.15625 32.109375 C-13.79909912 31.33060501 -13.44194824 30.55183502 -13.07397461 29.74946594 C-8.56661665 19.89790789 -4.25886765 9.96124573 0 0 Z " fill="#F8F8F8" transform="translate(418,227)"/>
<path d="M0 0 C4.64587611 -1.048599 8.39013252 -1.32221005 13 0 C17.02613149 3.73156916 19.37315576 8.99135212 21.84912109 13.81396484 C23.60527506 17.14968878 25.61387744 20.31403203 27.625 23.5 C28.75058757 25.33297265 29.87582963 27.16615783 31 29 C33.95399955 26.41965538 35.52212958 23.45236496 37.37109375 20.01953125 C38.03331207 18.84299311 38.69810885 17.66790322 39.36523438 16.49414062 C40.40889215 14.65503443 41.4367599 12.81390269 42.42358398 10.94360352 C44.56472078 6.90918371 46.70554346 3.22331051 50 0 C54.20477128 -1.04655779 57.76998093 -0.81987448 62 0 C57.38167653 8.72499923 52.341975 17.14946141 47.1875 25.5625 C46.0247389 27.4647839 44.86271641 29.36751418 43.70149231 31.27073669 C42.66202282 32.97375091 41.62049892 34.67551068 40.57885742 36.37719727 C38.39085283 40.01191712 37.8461897 41.99906777 37.68359375 46.2265625 C37.62075195 47.7734375 37.62075195 47.7734375 37.55664062 49.3515625 C37.51732422 50.43179688 37.47800781 51.51203125 37.4375 52.625 C37.37272461 54.25695312 37.37272461 54.25695312 37.30664062 55.921875 C37.20035573 58.6144257 37.09965496 61.30719576 37 64 C33.04 64 29.08 64 25 64 C25.020625 62.41832031 25.04125 60.83664062 25.0625 59.20703125 C25.04372 57.07550175 25.02276963 54.94399061 25 52.8125 C25.01933594 51.77673828 25.03867187 50.74097656 25.05859375 49.67382812 C24.89799419 41.02821832 22.01954591 35.68322639 17.13867188 28.6668396 C15.22731057 25.86890212 13.48290251 22.97020204 11.71875 20.078125 C11.01633978 18.93966285 10.31321729 17.80163985 9.609375 16.6640625 C9.26326172 16.10364258 8.91714844 15.54322266 8.56054688 14.96582031 C7.83994756 13.79998882 7.1185652 12.63464103 6.39648438 11.46972656 C5.3351843 9.75713133 4.27690987 8.04266224 3.21875 6.328125 C2.59935547 5.3268457 1.97996094 4.32556641 1.34179688 3.29394531 C0 1 0 1 0 0 Z " fill="#F9F8F9" transform="translate(692,227)"/>
<path d="M0 0 C17.82 0 35.64 0 54 0 C54 3.3 54 6.6 54 10 C47.07 10 40.14 10 33 10 C33 27.82 33 45.64 33 64 C29.04 64 25.08 64 21 64 C21 46.18 21 28.36 21 10 C14.07 10 7.14 10 0 10 C0 6.7 0 3.4 0 0 Z " fill="#FBFAFB" transform="translate(625,227)"/>
<path d="M0 0 C3.96 0 7.92 0 12 0 C12 17.82 12 35.64 12 54 C22.89 54 33.78 54 45 54 C45 57.3 45 60.6 45 64 C30.15 64 15.3 64 0 64 C0 42.88 0 21.76 0 0 Z " fill="#FBFBFB" transform="translate(335,227)"/>
<path d="M0 0 C3.86526773 1.4587471 4.97031959 3.24854146 6.6875 6.9375 C7.10386719 7.81277344 7.52023438 8.68804687 7.94921875 9.58984375 C10.95396526 16.48177163 11.31373315 24.70885415 9.10546875 31.921875 C8.16025111 34.01938977 7.17237101 36.02162392 6 38 C5.01 38 4.02 38 3 38 C1.329375 38.5878125 1.329375 38.5878125 -0.375 39.1875 C-4 40 -4 40 -6.39453125 38.8359375 C-9.20618946 36.85470908 -11.75494485 34.73740515 -14.3125 32.4375 C-15.19550781 31.65246094 -16.07851562 30.86742187 -16.98828125 30.05859375 C-19 28 -19 28 -19 26 C-18.67 25.67 -18.34 25.34 -18 25 C-18.33 24.34 -18.66 23.68 -19 23 C-18.34 23 -17.68 23 -17 23 C-17 22.34 -17 21.68 -17 21 C-17.99 20.67 -18.98 20.34 -20 20 C-17.71643754 17.65861457 -15.42186626 15.32833018 -13.125 13 C-12.47402344 12.33226562 -11.82304687 11.66453125 -11.15234375 10.9765625 C-10.52714844 10.34492188 -9.90195313 9.71328125 -9.2578125 9.0625 C-8.6817627 8.47597656 -8.10571289 7.88945312 -7.51220703 7.28515625 C-6 6 -6 6 -4 6 C-3.566875 5.071875 -3.566875 5.071875 -3.125 4.125 C-2 2 -2 2 0 0 Z " fill="#DF09B5" transform="translate(223,238)"/>
<path d="M0 0 C0.45375 0.495 0.9075 0.99 1.375 1.5 C2.87635519 3.22609337 2.87635519 3.22609337 5 3 C5.33 2.34 5.66 1.68 6 1 C6.66 1.33 7.32 1.66 8 2 C8.33 1.34 8.66 0.68 9 0 C9 1.32 9 2.64 9 4 C7.33333333 5.66666667 5.66666667 7.33333333 4 9 C-0.76425939 16.85162484 -2.51573495 24.75517202 -0.31640625 33.81640625 C3.38417047 44.85671606 8.72611268 50.63971097 19 56 C18.19140625 57.9296875 18.19140625 57.9296875 17 60 C13.52196049 61.27764717 11.23157353 61.53867767 7.78515625 60.03125 C-0.3606943 55.01841889 -6.7509714 47.03090208 -10 38 C-12.52641176 25.77488 -11.54691015 15.11588658 -4.9375 4.5 C-3 2 -3 2 0 0 Z " fill="#170523" transform="translate(140,234)"/>
<path d="M0 0 C3.65404257 2.07036661 6.82602502 4.89108758 8 9 C8.64686044 13.31240294 8.93480395 15.58681074 6.50390625 19.26171875 C0.88346096 25.77021776 0.88346096 25.77021776 -2.953125 26.23828125 C-8.50239994 26.41759456 -11.67028332 25.81427422 -16 22 C-19.10398838 18.37868022 -19.63563374 14.9306375 -19.48828125 10.28515625 C-18.6253252 6.24652195 -16.12228632 3.58519578 -13 1 C-8.64679924 -1.69651707 -4.82987311 -1.30582358 0 0 Z " fill="#190624" transform="translate(175,248)"/>
<path d="M0 0 C10.15218313 1.12802035 10.15218313 1.12802035 14.3125 3.375 C15.11300781 3.79523438 15.91351563 4.21546875 16.73828125 4.6484375 C18.95035121 5.97033077 20.97194729 7.41282831 23 9 C21.46914747 12.6841396 19.24851834 14.89382313 16.375 17.625 C11.45540972 22.4301812 7.16307173 27.53451477 3 33 C2.34 31.68 1.68 30.36 1 29 C1.33 28.67 1.66 28.34 2 28 C1.34 27.67 0.68 27.34 0 27 C0 18.09 0 9.18 0 0 Z " fill="#DF09B4" transform="translate(171,198)"/>
<path d="M0 0 C3.60658383 1.55586867 5.21444947 3.18298354 7.72265625 6.17578125 C10.13179847 9.00408166 12.46929776 11.74305012 15.22265625 14.23828125 C17.16015625 16.36328125 17.16015625 16.36328125 17.16015625 20.36328125 C10.72105601 25.77886254 3.47242237 28.36328125 -4.83984375 28.36328125 C-4.83984375 19.12328125 -4.83984375 9.88328125 -4.83984375 0.36328125 C-2.83984375 -0.63671875 -2.83984375 -0.63671875 0 0 Z " fill="#DF09B4" transform="translate(175.83984375,293.63671875)"/>
<path d="M0 0 C4.19161052 3.55375674 8.33336989 7.15789766 12.4375 10.8125 C13.30246094 11.58207031 14.16742188 12.35164063 15.05859375 13.14453125 C15.69925781 13.75683594 16.33992188 14.36914062 17 15 C17 15.33 17 15.66 17 16 C10.07 16 3.14 16 -4 16 C-2.68 10.72 -1.36 5.44 0 0 Z " fill="#1F062A" transform="translate(200,262)"/>
<path d="M0 0 C0.33 0 0.66 0 1 0 C1 7.26 1 14.52 1 22 C-0.32 21.34 -1.64 20.68 -3 20 C-4.90840107 19.26969009 -6.825676 18.56225857 -8.75 17.875 C-9.73484375 17.52179688 -10.7196875 17.16859375 -11.734375 16.8046875 C-12.48203125 16.53914063 -13.2296875 16.27359375 -14 16 C-2.28571429 2.28571429 -2.28571429 2.28571429 0 0 Z " fill="#22052A" transform="translate(188,214)"/>
<path d="M0 0 C6.93 0 13.86 0 21 0 C17.43238906 4.16221277 14.03889155 8.09923074 10.1875 11.9375 C9.41792969 12.70964844 8.64835938 13.48179687 7.85546875 14.27734375 C6 16 6 16 5 16 C4.89042969 15.34773438 4.78085938 14.69546875 4.66796875 14.0234375 C4.43013672 12.71246094 4.43013672 12.71246094 4.1875 11.375 C3.96126953 10.08722656 3.96126953 10.08722656 3.73046875 8.7734375 C2.92901259 5.34637621 2.92901259 5.34637621 0 0 Z " fill="#180626" transform="translate(195,243)"/>
<path d="M0 0 C0 6.93 0 13.86 0 21 C-7.875 14.25 -7.875 14.25 -10.9375 10.625 C-11.52402344 9.93664062 -12.11054688 9.24828125 -12.71484375 8.5390625 C-13.13894531 8.03117187 -13.56304687 7.52328125 -14 7 C-11.33713427 5.22475618 -8.73318314 3.79992512 -5.875 2.375 C-4.98554688 1.92898438 -4.09609375 1.48296875 -3.1796875 1.0234375 C-1 0 -1 0 0 0 Z " fill="#190623" transform="translate(189,285)"/>
<path d="M0 0 C3.24208567 0.35049575 4.61527704 0.56221181 6.8125 3.0625 C7.204375 3.701875 7.59625 4.34125 8 5 C7.3125 6.9375 7.3125 6.9375 6 9 C3.04588797 10.08835706 1.62168913 10.25203613 -1.3125 9.0625 C-1.869375 8.711875 -2.42625 8.36125 -3 8 C-2.2575 7.4121875 -2.2575 7.4121875 -1.5 6.8125 C0.45593143 4.44908285 0.24207973 2.98564997 0 0 Z " fill="#11051E" transform="translate(193,204)"/>
<path d="M0 0 C0.66 0.33 1.32 0.66 2 1 C-1.31067517 5.24180256 -4.83683607 8.70157331 -8.9296875 12.1875 C-12.10858261 14.9705327 -15.05550248 17.97268849 -18 21 C-18.66 20.67 -19.32 20.34 -20 20 C-15.71 15.71 -11.42 11.42 -7 7 C-9.31 6.67 -11.62 6.34 -14 6 C-14 5.67 -14 5.34 -14 5 C-13.40832031 4.97421875 -12.81664062 4.9484375 -12.20703125 4.921875 C-6.9279987 4.54295586 -3.89363339 3.89363339 0 0 Z " fill="#C209A0" transform="translate(222,237)"/>
<path d="M0 0 C0.33 0 0.66 0 1 0 C1 6.93 1 13.86 1 21 C-1.31 19.02 -3.62 17.04 -6 15 C-5.01 13.68 -4.02 12.36 -3 11 C-2.34 11.33 -1.68 11.66 -1 12 C-0.67 8.04 -0.34 4.08 0 0 Z " fill="#350738" transform="translate(188,285)"/>
<path d="M0 0 C0.763125 0.309375 1.52625 0.61875 2.3125 0.9375 C4.18789677 1.67893593 6.08684652 2.36228217 8 3 C8 3.99 8 4.98 8 6 C7.236875 6.28875 6.47375 6.5775 5.6875 6.875 C2.84970692 7.96269013 2.84970692 7.96269013 0 10 C0 6.7 0 3.4 0 0 Z " fill="#160624" transform="translate(218,231)"/>
<path d="M0 0 C0.33 0.66 0.66 1.32 1 2 C1.99 2 2.98 2 4 2 C3.67 3.65 3.34 5.3 3 7 C0.69 6.67 -1.62 6.34 -4 6 C-2.68 4.02 -1.36 2.04 0 0 Z " fill="#1E0428" transform="translate(194,207)"/>
<path d="M0 0 C2.0625 0.4375 2.0625 0.4375 4 1 C4 2.32 4 3.64 4 5 C1.69 5.66 -0.62 6.32 -3 7 C-1.125 1.125 -1.125 1.125 0 0 Z " fill="#1A0725" transform="translate(176,321)"/>
<path d="M0 0 C1.875 0.25 1.875 0.25 4 1 C5.3125 2.9375 5.3125 2.9375 6 5 C5.67 5.66 5.34 6.32 5 7 C5.99 7.33 6.98 7.66 8 8 C7.34 8.66 6.68 9.32 6 10 C4.99106869 8.90398831 3.99311775 7.79786082 3 6.6875 C2.1646875 5.76517578 2.1646875 5.76517578 1.3125 4.82421875 C0 3 0 3 0 0 Z " fill="#160524" transform="translate(209,218)"/>
<path d="M0 0 C0.99 0.66 1.98 1.32 3 2 C-2.75 7 -2.75 7 -5 7 C-5.33 6.01 -5.66 5.02 -6 4 C-4.02 2.68 -2.04 1.36 0 0 Z " fill="#D409AC" transform="translate(208,297)"/>
<path d="M0 0 C1.32 0.33 2.64 0.66 4 1 C3.25 6.75 3.25 6.75 1 9 C0.01 8.34 -0.98 7.68 -2 7 C-1.67 6.030625 -1.34 5.06125 -1 4.0625 C0.05173363 1.37850426 0.05173363 1.37850426 0 0 Z " fill="#12041E" transform="translate(107,232)"/>
<path d="M0 0 C1 3 1 3 0.328125 5.0078125 C-0.02765625 5.70648438 -0.3834375 6.40515625 -0.75 7.125 C-1.26820312 8.18074219 -1.26820312 8.18074219 -1.796875 9.2578125 C-3 11 -3 11 -6 12 C-4.68139111 7.38486888 -2.78644563 3.90102388 0 0 Z " fill="#CD09A7" transform="translate(117,224)"/>
<path d="M0 0 C2.97 0.495 2.97 0.495 6 1 C6 1.66 6 2.32 6 3 C1.61538462 6 1.61538462 6 -1 6 C-1.33 5.01 -1.66 4.02 -2 3 C-1.34 3 -0.68 3 0 3 C0 2.01 0 1.02 0 0 Z " fill="#130421" transform="translate(136,201)"/>
<path d="M0 0 C0.99 0.33 1.98 0.66 3 1 C1.515 2.485 1.515 2.485 0 4 C0.33 4.66 0.66 5.32 1 6 C-0.65 6.66 -2.3 7.32 -4 8 C-3.50168276 4.31245243 -2.89932357 2.39509338 0 0 Z " fill="#13041F" transform="translate(152,224)"/>
<path d="M0 0 C2.46800047 1.15173355 4.04783565 2.04783565 6 4 C4.02 4.66 2.04 5.32 0 6 C0 4.02 0 2.04 0 0 Z " fill="#22072D" transform="translate(218,280)"/>
<path d="M0 0 C0.33 0.66 0.66 1.32 1 2 C0.34 1.67 -0.32 1.34 -1 1 C-0.67 0.67 -0.34 0.34 0 0 Z M-4 3 C-3.34 3.33 -2.68 3.66 -2 4 C-2 4.99 -2 5.98 -2 7 C-3.65 7.33 -5.3 7.66 -7 8 C-6.01 6.35 -5.02 4.7 -4 3 Z " fill="#D009AB" transform="translate(151,235)"/>
</svg>
