<?xml version="1.0" encoding="UTF-8"?>
<svg version="1.1" xmlns="http://www.w3.org/2000/svg" width="225" height="225">
<path d="M0 0 C74.25 0 148.5 0 225 0 C225 74.25 225 148.5 225 225 C150.75 225 76.5 225 0 225 C0 150.75 0 76.5 0 0 Z " fill="#074CA3" transform="translate(0,0)"/>
<path d="M0 0 C1.07185547 -0.00128906 2.14371094 -0.00257812 3.24804688 -0.00390625 C4.37146484 -0.00003906 5.49488281 0.00382812 6.65234375 0.0078125 C7.77962891 0.00394531 8.90691406 0.00007813 10.06835938 -0.00390625 C11.13892578 -0.00261719 12.20949219 -0.00132813 13.3125 0 C14.79375366 0.00169189 14.79375366 0.00169189 16.30493164 0.00341797 C18.58984375 0.1328125 18.58984375 0.1328125 19.58984375 1.1328125 C19.60682261 4.01902795 19.56068382 6.87834618 19.46875 9.76171875 C19.43333351 11.05806496 19.43333351 11.05806496 19.39720154 12.38059998 C19.32037113 15.15232998 19.23643079 17.92379405 19.15234375 20.6953125 C19.09914243 22.56964826 19.04640193 24.44399717 18.99414062 26.31835938 C18.86472993 30.92334682 18.72894059 35.52810787 18.58984375 40.1328125 C14.44892004 41.37167542 10.93124968 42.39592801 6.58984375 42.1328125 C6.58984375 42.7928125 6.58984375 43.4528125 6.58984375 44.1328125 C2.95984375 43.4728125 -0.67015625 42.8128125 -4.41015625 42.1328125 C-4.41015625 42.7928125 -4.41015625 43.4528125 -4.41015625 44.1328125 C-2.43015625 44.6278125 -2.43015625 44.6278125 -0.41015625 45.1328125 C-1.40015625 45.6278125 -1.40015625 45.6278125 -2.41015625 46.1328125 C1.81081413 47.16231747 4.34326528 46.93117267 8.4296875 45.62890625 C20.79799028 42.78844612 31.98026699 47.26439878 43.27734375 51.8203125 C48.74379591 53.98827284 53.72243907 54.98712074 59.58984375 55.1328125 C59.58984375 57.7728125 59.58984375 60.4128125 59.58984375 63.1328125 C50.48496923 63.7872727 43.85026099 62.22520581 35.52734375 58.6328125 C24.12678671 53.73108817 15.35153945 52.3797958 3.65234375 57.0078125 C2.92466797 57.27722656 2.19699219 57.54664063 1.44726562 57.82421875 C-1.9430637 59.09597998 -5.18094577 60.49161376 -8.41015625 62.1328125 C-11.03515625 62.7578125 -11.03515625 62.7578125 -14.41015625 63.1328125 C-15.085625 63.22175781 -15.76109375 63.31070313 -16.45703125 63.40234375 C-24.47648108 63.98092822 -31.16083013 60.91301397 -38.4309082 57.94091797 C-51.73602724 52.50858245 -61.0591526 53.81338905 -74.41015625 59.1328125 C-76.41348794 60.12612118 -78.41418145 61.12480227 -80.41015625 62.1328125 C-88.12349532 64.06114727 -95.94121223 63.73070607 -103.41015625 61.1328125 C-103.41015625 58.1628125 -103.41015625 55.1928125 -103.41015625 52.1328125 C-101.32682292 52.65364583 -99.24348958 53.17447917 -97.16015625 53.6953125 C-89.50771122 54.91274694 -84.34919655 53.75083736 -77.34765625 50.7578125 C-69.95317853 47.68770023 -63.0549617 45.05268702 -54.97265625 44.5078125 C-53.92207031 44.43304688 -52.87148437 44.35828125 -51.7890625 44.28125 C-51.00402344 44.23226562 -50.21898437 44.18328125 -49.41015625 44.1328125 C-50.07015625 43.4728125 -50.73015625 42.8128125 -51.41015625 42.1328125 C-48.44015625 42.1328125 -45.47015625 42.1328125 -42.41015625 42.1328125 C-42.41015625 41.4728125 -42.41015625 40.8128125 -42.41015625 40.1328125 C-41.75015625 40.1328125 -41.09015625 40.1328125 -40.41015625 40.1328125 C-40.74015625 27.5928125 -41.07015625 15.0528125 -41.41015625 2.1328125 C-30.17769743 1.00956662 -30.17769743 1.00956662 -25.25390625 1.0703125 C-24.21234375 1.07804687 -23.17078125 1.08578125 -22.09765625 1.09375 C-20.51984375 1.11308594 -20.51984375 1.11308594 -18.91015625 1.1328125 C-16.77478927 1.15823354 -14.63936448 1.17929656 -12.50390625 1.1953125 C-11.57255859 1.20691406 -10.64121094 1.21851562 -9.68164062 1.23046875 C-6.29870984 1.08502891 -3.5700562 0.00407308 0 0 Z " fill="#0C4C97" transform="translate(128.41015625,80.8671875)"/>
<path d="M0 0 C1.40185547 0.55494141 1.40185547 0.55494141 2.83203125 1.12109375 C4.50766631 1.7908571 6.17901487 2.47155455 7.84375 3.16796875 C16.30952675 6.43465434 22.98298442 5.07883872 31.0625 1.625 C49.12659759 -5.87503039 61.67930502 -4.57489047 79.6875 2.6875 C85.15395216 4.85546034 90.13259532 5.85430824 96 6 C96 8.64 96 11.28 96 14 C86.89512548 14.6544602 80.26041724 13.09239331 71.9375 9.5 C60.53694296 4.59827567 51.7616957 3.2469833 40.0625 7.875 C39.33482422 8.14441406 38.60714844 8.41382813 37.85742188 8.69140625 C34.46709255 9.96316748 31.22921048 11.35880126 28 13 C25.375 13.625 25.375 13.625 22 14 C21.32453125 14.08894531 20.6490625 14.17789063 19.953125 14.26953125 C11.93367517 14.84811572 5.24932612 11.78020147 -2.02075195 8.80810547 C-15.32587099 3.37576995 -24.64899635 4.68057655 -38 10 C-40.00333169 10.99330868 -42.0040252 11.99198977 -44 13 C-51.71333907 14.92833477 -59.53105598 14.59789357 -67 12 C-67 9.03 -67 6.06 -67 3 C-64.91666667 3.52083333 -62.83333333 4.04166667 -60.75 4.5625 C-53.09755497 5.77993444 -47.9390403 4.61802486 -40.9375 1.625 C-26.36456366 -4.42553559 -14.96794382 -6.02393374 0 0 Z " fill="#45C4F4" transform="translate(92,130)"/>
<path d="M0 0 C1.32 0 2.64 0 4 0 C4.8992919 4.13883178 5.44602193 8.29349999 5.9375 12.49609375 C6.02249756 13.20725845 6.10749512 13.91842316 6.19506836 14.65113831 C6.46524813 16.91304104 6.73285859 19.17523656 7 21.4375 C7.26734358 23.69616719 7.53529293 25.95475562 7.80493164 28.21315002 C7.97217062 29.6143016 8.13809985 31.01561036 8.30249023 32.417099 C8.7652478 36.29909716 9.32631653 40.14904941 10 44 C12.64 44.66 15.28 45.32 18 46 C17.0977234 39.18579165 15.98096251 34.85643845 11 30 C10.34 29.67 9.68 29.34 9 29 C7.8422494 25.52674819 7.93133348 22.63932552 8 19 C13.86436703 19 16.83259371 22.07129379 20.94921875 25.796875 C26.74103573 32.01894124 27.27462684 37.6134373 27.234375 45.8046875 C26.89258809 50.46438242 25.62101944 54.6386858 24 59 C21.525 59.495 21.525 59.495 19 60 C19 60.66 19 61.32 19 62 C10.09 62 1.18 62 -8 62 C-6 60 -6 60 -2.9609375 59.8046875 C-1.77757812 59.82789063 -0.59421875 59.85109375 0.625 59.875 C1.81351563 59.89304688 3.00203125 59.91109375 4.2265625 59.9296875 C5.59941406 59.96449219 5.59941406 59.96449219 7 60 C7 57.69 7 55.38 7 53 C6.0925 53.350625 5.185 53.70125 4.25 54.0625 C1.12241564 54.96468779 -0.05208081 55.13381507 -3 54 C-3.495 56.475 -3.495 56.475 -4 59 C-4.99 59 -5.98 59 -7 59 C-7.02686553 57.02090602 -7.04633375 55.04171029 -7.0625 53.0625 C-7.07410156 51.96035156 -7.08570313 50.85820313 -7.09765625 49.72265625 C-7 47 -7 47 -6 46 C-5.83080763 44.17021585 -5.71854212 42.33520734 -5.625 40.5 C-5.1513015 33.2441421 -4.39710628 26.03541235 -3.5625 18.8125 C-3.4402002 17.70132813 -3.31790039 16.59015625 -3.19189453 15.4453125 C-3.0679834 14.39730469 -2.94407227 13.34929687 -2.81640625 12.26953125 C-2.65313843 10.85571167 -2.65313843 10.85571167 -2.48657227 9.41333008 C-2 7 -2 7 0 4 C0 2.68 0 1.36 0 0 Z " fill="#185295" transform="translate(178,61)"/>
<path d="M0 0 C7.26 0 14.52 0 22 0 C22 12.54 22 25.08 22 38 C18.37 38 14.74 38 11 38 C11 34.37 11 30.74 11 27 C11.66 27 12.32 27 13 27 C13 21.72 13 16.44 13 11 C11.68 11 10.36 11 9 11 C9 19.91 9 28.82 9 38 C6.36 38 3.72 38 1 38 C0.67 25.46 0.34 12.92 0 0 Z " fill="#F2F7F8" transform="translate(124,83)"/>
<path d="M0 0 C6.6 0 13.2 0 20 0 C20 12.87 20 25.74 20 39 C17.36 39 14.72 39 12 39 C12 29.76 12 20.52 12 11 C10.68 11 9.36 11 8 11 C8 20.24 8 29.48 8 39 C4.04 39 0.08 39 -4 39 C-4 35.04 -4 31.08 -4 27 C-2.68 27 -1.36 27 0 27 C0 18.09 0 9.18 0 0 Z " fill="#E9F2F5" transform="translate(29,83)"/>
<path d="M0 0 C0.33 0 0.66 0 1 0 C1 3.63 1 7.26 1 11 C4.63 11 8.26 11 12 11 C12.33 19.91 12.66 28.82 13 38 C15.97 38.33 18.94 38.66 22 39 C22 26.46 22 13.92 22 1 C22.33 1 22.66 1 23 1 C23 4.3 23 7.6 23 11 C23.66 11 24.32 11 25 11 C25 19.91 25 28.82 25 38 C24.34 38 23.68 38 23 38 C23 38.66 23 39.32 23 40 C19.535 40.495 19.535 40.495 16 41 C16.33 41.66 16.66 42.32 17 43 C16.14277344 43.04898438 15.28554687 43.09796875 14.40234375 43.1484375 C7.15469037 43.5069785 7.15469037 43.5069785 0.125 45.125 C-3.58627964 46.1641583 -6.25755112 45.76376508 -10 45 C-10.33 44.01 -10.66 43.02 -11 42 C-11.928125 42.2475 -11.928125 42.2475 -12.875 42.5 C-17.25470729 43.20075317 -21.57428989 43.07734251 -26 43 C-26 43.66 -26 44.32 -26 45 C-27.32 44.67 -28.64 44.34 -30 44 C-26.25 41 -26.25 41 -24 41 C-24 34.4 -24 27.8 -24 21 C-23.67 21 -23.34 21 -23 21 C-23 26.94 -23 32.88 -23 39 C-21.39125 39.020625 -19.7825 39.04125 -18.125 39.0625 C-17.22007813 39.07410156 -16.31515625 39.08570313 -15.3828125 39.09765625 C-12.9831415 39.16249257 -12.9831415 39.16249257 -11 38 C-7.7 38 -4.4 38 -1 38 C-0.67 25.46 -0.34 12.92 0 0 Z " fill="#054CA4" transform="translate(63,83)"/>
<path d="M0 0 C3.31255326 -0.02683436 6.62489183 -0.0467578 9.9375 -0.0625 C10.88302734 -0.07087891 11.82855469 -0.07925781 12.80273438 -0.08789062 C14.15141602 -0.09272461 14.15141602 -0.09272461 15.52734375 -0.09765625 C16.77632446 -0.10551147 16.77632446 -0.10551147 18.05053711 -0.11352539 C20 0 20 0 21 1 C21.08861992 3.8116338 21.11522355 6.59858255 21.09765625 9.41015625 C21.0962413 10.25219101 21.09482635 11.09422577 21.09336853 11.96177673 C21.08775263 14.66205335 21.07519748 17.36224828 21.0625 20.0625 C21.05748705 21.88867068 21.05292379 23.71484266 21.04882812 25.54101562 C21.03777804 30.02737542 21.02050279 34.51367384 21 39 C17.37 39 13.74 39 10 39 C10 35.37 10 31.74 10 28 C10.66 28 11.32 28 12 28 C12 22.72 12 17.44 12 12 C8.04 12 4.08 12 0 12 C0 8.04 0 4.08 0 0 Z " fill="#F0F5F7" transform="translate(100,82)"/>
<path d="M0 0 C6.6 0 13.2 0 20 0 C20 12.87 20 25.74 20 39 C17.03 39 14.06 39 11 39 C11 29.43 11 19.86 11 10 C7.37 10 3.74 10 0 10 C0 6.7 0 3.4 0 0 Z " fill="#FAFDFB" transform="translate(65,83)"/>
<path d="M0 0 C-0.99 0.66 -1.98 1.32 -3 2 C-3 2.99 -3 3.98 -3 5 C-3.66 5.33 -4.32 5.66 -5 6 C-5.34740923 7.99760305 -5.67966043 9.99787771 -6 12 C-6.66 12.99 -7.32 13.98 -8 15 C-8.07905064 17.33199388 -8.08798769 19.66832622 -8 22 C-8.99 21.34 -9.98 20.68 -11 20 C-11.66 20.66 -12.32 21.32 -13 22 C-13.495 19.525 -13.495 19.525 -14 17 C-14.33 17 -14.66 17 -15 17 C-15.33 18.65 -15.66 20.3 -16 22 C-16.66 22 -17.32 22 -18 22 C-18.66 21.01 -19.32 20.02 -20 19 C-20.33 19.99 -20.66 20.98 -21 22 C-21.99 21.67 -22.98 21.34 -24 21 C-23.67 20.34 -23.34 19.68 -23 19 C-23.66 19 -24.32 19 -25 19 C-25.33 19.99 -25.66 20.98 -26 22 C-27.093125 21.814375 -28.18625 21.62875 -29.3125 21.4375 C-32.93624133 20.7421932 -32.93624133 20.7421932 -36 22 C-36 20.02 -36 18.04 -36 16 C-36.66 16 -37.32 16 -38 16 C-38 17.98 -38 19.96 -38 22 C-38.99 21.67 -39.98 21.34 -41 21 C-41 18.69 -41 16.38 -41 14 C-38.36 14 -35.72 14 -33 14 C-33 11.69 -33 9.38 -33 7 C-31.97261719 6.91363281 -30.94523437 6.82726562 -29.88671875 6.73828125 C-21.00285247 5.87772049 -13.98977563 4.19207606 -6 0 C-3 -1 -3 -1 0 0 Z " fill="#2361AA" transform="translate(65,137)"/>
<path d="M0 0 C5.86436703 0 8.83259371 3.07129379 12.94921875 6.796875 C18.66609769 12.93843638 19.38714068 18.68374319 19.3671875 26.8046875 C18.7758129 31.95090474 16.60907828 35.56456692 14 40 C10.7 40 7.4 40 4 40 C3.67 36.37 3.34 32.74 3 29 C5.31 29 7.62 29 10 29 C9.96873142 21.37046762 8.41262544 16.49876802 3 11 C2.34 10.67 1.68 10.34 1 10 C-0.1577506 6.52674819 -0.06866652 3.63932552 0 0 Z " fill="#F6FAF8" transform="translate(186,80)"/>
<path d="M0 0 C-0.01329677 3.42391782 -0.19808809 6.66384086 -1 10 C-3.875 12.75 -3.875 12.75 -7 15 C-9.88797296 19.42822521 -10.63370621 22.74929138 -10 28 C-8.08659506 32.85873937 -8.08659506 32.85873937 -5 37 C-5.08963062 38.69141656 -5.24577676 40.37959602 -5.4375 42.0625 C-5.53933594 42.98160156 -5.64117187 43.90070313 -5.74609375 44.84765625 C-5.82988281 45.55792969 -5.91367188 46.26820312 -6 47 C-11.27149226 45.60460499 -14.01151173 42.34533065 -17 38 C-20.36676482 32.04534878 -20.79784703 25.72032692 -20 19 C-18.5 15.3125 -18.5 15.3125 -17 13 C-15.02 13 -13.04 13 -11 13 C-11.020625 12.39671875 -11.04125 11.7934375 -11.0625 11.171875 C-10.99547441 8.5746335 -10.81337609 6.47419639 -10 4 C-7.12026452 1.5886171 -3.79171433 0 0 0 Z " fill="#F5F9F7" transform="translate(174,79)"/>
<path d="M0 0 C3.3 0 6.6 0 10 0 C10 12.87 10 25.74 10 39 C7.03 39 4.06 39 1 39 C0.67 26.13 0.34 13.26 0 0 Z " fill="#F0F4F5" transform="translate(52,83)"/>
<path d="M0 0 C3.3 0 6.6 0 10 0 C10 12.54 10 25.08 10 38 C7.03 38 4.06 38 1 38 C0.67 25.46 0.34 12.92 0 0 Z " fill="#F7FBFA" transform="translate(87,83)"/>
<path d="M0 0 C2.64 0 5.28 0 8 0 C8 10.23 8 20.46 8 31 C5.36 30.34 2.72 29.68 0 29 C0 19.43 0 9.86 0 0 Z " fill="#E4F1F4" transform="translate(100,102)"/>
<path d="M0 0 C0.33 0 0.66 0 1 0 C1 3.63 1 7.26 1 11 C4.63 11 8.26 11 12 11 C12.33 19.91 12.66 28.82 13 38 C15.97 38.33 18.94 38.66 22 39 C22 26.46 22 13.92 22 1 C22.33 1 22.66 1 23 1 C23 4.3 23 7.6 23 11 C23.66 11 24.32 11 25 11 C25 19.91 25 28.82 25 38 C24.34 38 23.68 38 23 38 C23 38.66 23 39.32 23 40 C19.535 40.495 19.535 40.495 16 41 C16.33 41.66 16.66 42.32 17 43 C9.08 43.495 9.08 43.495 1 44 C0.67 43.34 0.34 42.68 0 42 C0.63808594 41.93941406 1.27617188 41.87882812 1.93359375 41.81640625 C2.75988281 41.73261719 3.58617188 41.64882812 4.4375 41.5625 C5.26121094 41.48128906 6.08492187 41.40007812 6.93359375 41.31640625 C8.98662025 41.21069185 8.98662025 41.21069185 10 40 C8.515 39.505 8.515 39.505 7 39 C8.32 39 9.64 39 11 39 C11 30.09 11 21.18 11 12 C7.7 12 4.4 12 1 12 C1.00523682 12.81267334 1.01047363 13.62534668 1.01586914 14.46264648 C1.03656994 18.12092322 1.04963803 21.77918767 1.0625 25.4375 C1.07087891 26.71689453 1.07925781 27.99628906 1.08789062 29.31445312 C1.09111328 30.52939453 1.09433594 31.74433594 1.09765625 32.99609375 C1.10289307 34.12200928 1.10812988 35.2479248 1.11352539 36.40795898 C1 39 1 39 0 40 C-1.51928038 40.07179964 -3.04167482 40.08392007 -4.5625 40.0625 C-5.38878906 40.05347656 -6.21507812 40.04445312 -7.06640625 40.03515625 C-7.70449219 40.02355469 -8.34257813 40.01195312 -9 40 C-9 39.67 -9 39.34 -9 39 C-6.36 38.67 -3.72 38.34 -1 38 C-0.67 25.46 -0.34 12.92 0 0 Z " fill="#054593" transform="translate(63,83)"/>
<path d="M0 0 C6.6 0 13.2 0 20 0 C20 12.87 20 25.74 20 39 C17.03 39 14.06 39 11 39 C11 38.67 11 38.34 11 38 C13.64 38 16.28 38 19 38 C18.67 27.11 18.34 16.22 18 5 C17.67 5.33 17.34 5.66 17 6 C16.01 6.33 15.02 6.66 14 7 C14 7.99 14 8.98 14 10 C9.38 10 4.76 10 0 10 C0 6.7 0 3.4 0 0 Z " fill="#E5EDF0" transform="translate(65,83)"/>
<path d="M0 0 C0.33 0.99 0.66 1.98 1 3 C2.093125 2.835 3.18625 2.67 4.3125 2.5 C10.78020907 1.69297748 17.68672163 1.14141805 24 3 C24 3.66 24 4.32 24 5 C23.01 5 22.02 5 21 5 C20.67 6.65 20.34 8.3 20 10 C17.03 10 14.06 10 11 10 C11.99 10.66 12.98 11.32 14 12 C5.71766795 14.31905297 -0.65748476 10.55781988 -8 7 C-7.34 6.01 -6.68 5.02 -6 4 C-2.875 3.8125 -2.875 3.8125 0 4 C0 2.68 0 1.36 0 0 Z " fill="#0751A1" transform="translate(168,122)"/>
<path d="M0 0 C1.32 0 2.64 0 4 0 C5.35490812 6.2804774 6.00922926 12.66511042 6.78442383 19.03686523 C7.06040912 21.29538931 7.34355231 23.55294296 7.62695312 25.81054688 C7.80513016 27.26557086 7.98287829 28.72064745 8.16015625 30.17578125 C8.32136963 31.48458252 8.48258301 32.79338379 8.64868164 34.1418457 C9.01258114 38.13816523 9.05993702 41.99091036 9 46 C8.01 45.67 7.02 45.34 6 45 C5.34 38.07 4.68 31.14 4 24 C3.75055739 30.16245115 3.75055739 30.16245115 3.52197266 36.32568359 C3.46855713 37.47544678 3.46855713 37.47544678 3.4140625 38.6484375 C3.36693115 39.82672119 3.36693115 39.82672119 3.31884766 41.02880859 C3 43 3 43 1 45 C0 44 0 44 -0.11352539 40.27807617 C-0.11336608 38.61636529 -0.10766091 36.95464953 -0.09765625 35.29296875 C-0.0962413 34.41602859 -0.09482635 33.53908844 -0.09336853 32.63557434 C-0.08775271 29.81951549 -0.07520969 27.00353493 -0.0625 24.1875 C-0.05748597 22.29882928 -0.0529229 20.41015731 -0.04882812 18.52148438 C-0.03897955 14.34524807 -0.0247574 10.16905233 -0.00672913 5.99284363 C0.00001608 3.99523921 0 1.9976158 0 0 Z " fill="#7392AB" transform="translate(178,61)"/>
<path d="M0 0 C0.33 0 0.66 0 1 0 C1 10.89 1 21.78 1 33 C-2.63 33 -6.26 33 -10 33 C-10 29.7 -10 26.4 -10 23 C-9.01 23 -8.02 23 -7 23 C-7 18.05 -7 13.1 -7 8 C-6.01 8 -5.02 8 -4 8 C-3.67 11.96 -3.34 15.92 -3 20 C-0.86835225 15.73670449 -0.57166358 12.38798276 -0.375 7.75 C-0.31699219 6.63238281 -0.31699219 6.63238281 -0.2578125 5.4921875 C-0.16394892 3.6618476 -0.08090282 1.83095857 0 0 Z M-4 22 C-3 24 -3 24 -3 24 Z " fill="#F9FDFC" transform="translate(145,88)"/>
<path d="M0 0 C0.33 0 0.66 0 1 0 C0.67 12.54 0.34 25.08 0 38 C-3.78959874 37.24208025 -6.58113857 36.4635708 -10.0625 35 C-12.45001015 33.99937941 -14.6728026 33.07380829 -17.19921875 32.50390625 C-19.7861744 31.7800076 -20.58463141 30.19382131 -22 28 C-19.03 28 -16.06 28 -13 28 C-13 27.34 -13 26.68 -13 26 C-9.04 26 -5.08 26 -1 26 C-1.01160156 24.29070312 -1.02320312 22.58140625 -1.03515625 20.8203125 C-1.04453343 18.58854275 -1.05363371 16.35677183 -1.0625 14.125 C-1.07087891 12.99707031 -1.07925781 11.86914062 -1.08789062 10.70703125 C-1.09272461 9.09248047 -1.09272461 9.09248047 -1.09765625 7.4453125 C-1.10551147 5.95281982 -1.10551147 5.95281982 -1.11352539 4.43017578 C-1 2 -1 2 0 0 Z " fill="#0A4FA3" transform="translate(99,95)"/>
<path d="M0 0 C1.32 0.66 2.64 1.32 4 2 C3.34 2 2.68 2 2 2 C2 7.28 2 12.56 2 18 C2.33 15.03 2.66 12.06 3 9 C3.99 9 4.98 9 6 9 C6 17.25 6 25.5 6 34 C2.7 34 -0.6 34 -4 34 C-4 30.37 -4 26.74 -4 23 C-2.68 23 -1.36 23 0 23 C0 15.41 0 7.82 0 0 Z " fill="#FCFCF7" transform="translate(30,87)"/>
<path d="M0 0 C5.75 0.875 5.75 0.875 8 2 C8.99 1.34 9.98 0.68 11 0 C12.65 0 14.3 0 16 0 C16.33 4.29 16.66 8.58 17 13 C19.64 12.67 22.28 12.34 25 12 C25 12.66 25 13.32 25 14 C16.09 14 7.18 14 -2 14 C0 12 0 12 3.0390625 11.8046875 C4.81410156 11.83949219 4.81410156 11.83949219 6.625 11.875 C8.40777344 11.90207031 8.40777344 11.90207031 10.2265625 11.9296875 C11.14179688 11.95289062 12.05703125 11.97609375 13 12 C13 9.69 13 7.38 13 5 C12.0925 5.350625 11.185 5.70125 10.25 6.0625 C7.12241564 6.96468779 5.94791919 7.13381507 3 6 C2.67 7.65 2.34 9.3 2 11 C1.01 11 0.02 11 -1 11 C-1.0270043 9.54176788 -1.04639787 8.08339325 -1.0625 6.625 C-1.07410156 5.81289062 -1.08570313 5.00078125 -1.09765625 4.1640625 C-1 2 -1 2 0 0 Z " fill="#46BFF1" transform="translate(172,109)"/>
<path d="M0 0 C3.875 1.75 3.875 1.75 5 4 C4.67 4.66 4.34 5.32 4 6 C3.34 6 2.68 6 2 6 C2.06000106 7.6260287 2.1487885 9.25101549 2.25 10.875 C2.29640625 11.77992187 2.3428125 12.68484375 2.390625 13.6171875 C2.73879328 16.14217132 2.73879328 16.14217132 4.875 17.125 C5.926875 17.558125 5.926875 17.558125 7 18 C9.72109401 20.64948628 11.77762019 23.42686875 12.31640625 27.23828125 C12.3125 29.4375 12.3125 29.4375 12 33 C8.04 32.505 8.04 32.505 4 32 C2.47568165 27.0683818 1.47763142 22.25788529 0.875 17.125 C0.79008301 16.42826172 0.70516602 15.73152344 0.61767578 15.01367188 C0.03412654 9.96485548 -0.18120755 5.07381138 0 0 Z " fill="#0C4B93" transform="translate(184,74)"/>
<path d="M0 0 C-0.01329677 3.42391782 -0.19808809 6.66384086 -1 10 C-3.875 12.75 -3.875 12.75 -7 15 C-8.86923203 18.14988873 -8.86923203 18.14988873 -10 21 C-10.66 21 -11.32 21 -12 21 C-12 20.34 -12 19.68 -12 19 C-12.66 19 -13.32 19 -14 19 C-14 18.34 -14 17.68 -14 17 C-15.98 17.99 -15.98 17.99 -18 19 C-18.33 18.01 -18.66 17.02 -19 16 C-18.34 15.01 -17.68 14.02 -17 13 C-13.875 12.8125 -13.875 12.8125 -11 13 C-11.0309375 12.09507813 -11.0309375 12.09507813 -11.0625 11.171875 C-10.99547441 8.5746335 -10.81337609 6.47419639 -10 4 C-7.12026452 1.5886171 -3.79171433 0 0 0 Z " fill="#E5EEF2" transform="translate(174,79)"/>
<path d="M0 0 C1.07185547 -0.00128906 2.14371094 -0.00257812 3.24804688 -0.00390625 C4.37146484 -0.00003906 5.49488281 0.00382812 6.65234375 0.0078125 C7.77962891 0.00394531 8.90691406 0.00007813 10.06835938 -0.00390625 C11.13892578 -0.00261719 12.20949219 -0.00132813 13.3125 0 C14.79375366 0.00169189 14.79375366 0.00169189 16.30493164 0.00341797 C18.58984375 0.1328125 18.58984375 0.1328125 19.58984375 1.1328125 C19.60682261 4.01902795 19.56068382 6.87834618 19.46875 9.76171875 C19.44513901 10.62594955 19.42152802 11.49018036 19.39720154 12.38059998 C19.32037113 15.15232998 19.23643079 17.92379405 19.15234375 20.6953125 C19.09914243 22.56964826 19.04640193 24.44399717 18.99414062 26.31835938 C18.86472993 30.92334682 18.72894059 35.52810787 18.58984375 40.1328125 C18.25984375 40.1328125 17.92984375 40.1328125 17.58984375 40.1328125 C17.58984375 27.5928125 17.58984375 15.0528125 17.58984375 2.1328125 C10.32984375 2.1328125 3.06984375 2.1328125 -4.41015625 2.1328125 C-4.08015625 6.0928125 -3.75015625 10.0528125 -3.41015625 14.1328125 C-4.07015625 14.1328125 -4.73015625 14.1328125 -5.41015625 14.1328125 C-5.74015625 22.3828125 -6.07015625 30.6328125 -6.41015625 39.1328125 C-6.74015625 39.1328125 -7.07015625 39.1328125 -7.41015625 39.1328125 C-7.41015625 26.5928125 -7.41015625 14.0528125 -7.41015625 1.1328125 C-4.81461791 -0.16495667 -2.90310098 0.00331215 0 0 Z " fill="#3C6999" transform="translate(128.41015625,80.8671875)"/>
<path d="M0 0 C0.66 0.99 1.32 1.98 2 3 C2.721875 3.845625 3.44375 4.69125 4.1875 5.5625 C6.68050339 10.29060988 5.9321936 13.87293519 5 19 C-0.19355461 17.62523555 -3.00427491 14.25658407 -6 10 C-6.33 9.01 -6.66 8.02 -7 7 C-6.01 7 -5.02 7 -4 7 C-3.34 6.34 -2.68 5.68 -2 5 C-1.67 5 -1.34 5 -1 5 C-0.67 3.35 -0.34 1.7 0 0 Z " fill="#EDF4F6" transform="translate(163,107)"/>
<path d="M0 0 C0.33 0.99 0.66 1.98 1 3 C2.093125 2.835 3.18625 2.67 4.3125 2.5 C10.78020907 1.69297748 17.68672163 1.14141805 24 3 C24 3.66 24 4.32 24 5 C23.01 5 22.02 5 21 5 C20.67 6.65 20.34 8.3 20 10 C19.34 10 18.68 10 18 10 C18 9.34 18 8.68 18 8 C16.69675781 7.92652344 16.69675781 7.92652344 15.3671875 7.8515625 C14.21476563 7.77679688 13.06234375 7.70203125 11.875 7.625 C10.73804688 7.55539063 9.60109375 7.48578125 8.4296875 7.4140625 C5.04606384 7.00556124 2.18387559 6.19032431 -1 5 C-0.67 3.35 -0.34 1.7 0 0 Z " fill="#378DCB" transform="translate(168,122)"/>
<path d="M0 0 C0 8.25 0 16.5 0 25 C-1.98 25.33 -3.96 25.66 -6 26 C-5.34 25.67 -4.68 25.34 -4 25 C-4.01571045 24.31373535 -4.0314209 23.6274707 -4.04760742 22.92041016 C-4.10982719 19.82202337 -4.14894898 16.72376776 -4.1875 13.625 C-4.21263672 12.54476562 -4.23777344 11.46453125 -4.26367188 10.3515625 C-4.27333984 9.3203125 -4.28300781 8.2890625 -4.29296875 7.2265625 C-4.3086792 6.27346191 -4.32438965 5.32036133 -4.34057617 4.33837891 C-4.17199097 3.18088135 -4.17199097 3.18088135 -4 2 C-1 0 -1 0 0 0 Z " fill="#FBFDFC" transform="translate(48,95)"/>
<path d="M0 0 C1.98 0 3.96 0 6 0 C5.67 5.61 5.34 11.22 5 17 C4.01 17.33 3.02 17.66 2 18 C1.34 18.66 0.68 19.32 0 20 C0 13.4 0 6.8 0 0 Z " fill="#FCFDFB" transform="translate(101,103)"/>
<path d="M0 0 C0.99 0 1.98 0 3 0 C3 3.96 3 7.92 3 12 C6.96 12 10.92 12 15 12 C15 12.33 15 12.66 15 13 C11.37 13.33 7.74 13.66 4 14 C4 15.65 4 17.3 4 19 C6.64 19 9.28 19 12 19 C12 19.33 12 19.66 12 20 C9.03 20 6.06 20 3 20 C2.67 18.35 2.34 16.7 2 15 C1.67 22.92 1.34 30.84 1 39 C0.67 39 0.34 39 0 39 C0 26.13 0 13.26 0 0 Z " fill="#124A87" transform="translate(97,82)"/>
<path d="M0 0 C0.33 0 0.66 0 1 0 C1 3.3 1 6.6 1 10 C1.66 10 2.32 10 3 10 C3 18.91 3 27.82 3 37 C1.515 37.495 1.515 37.495 0 38 C0 25.46 0 12.92 0 0 Z " fill="#024188" transform="translate(85,84)"/>
<path d="M0 0 C0.33 0 0.66 0 1 0 C0.53524581 13.41741577 -0.30616807 26.67957411 -2 40 C-2.99 40 -3.98 40 -5 40 C-4.49452463 31.2326169 -3.53095915 22.53127377 -2.5 13.8125 C-2.36940186 12.6891626 -2.23880371 11.5658252 -2.10424805 10.40844727 C-1.97703369 9.35197998 -1.84981934 8.2955127 -1.71875 7.20703125 C-1.60466797 6.2528833 -1.49058594 5.29873535 -1.37304688 4.31567383 C-1 2 -1 2 0 0 Z " fill="#C0D5E1" transform="translate(177,66)"/>
<path d="M0 0 C3.63 0 7.26 0 11 0 C11 3.38023517 10.12544378 5.83468937 9 9 C6.69 9.33 4.38 9.66 2 10 C0.26265853 6.19956554 0 4.40285423 0 0 Z " fill="#074BA7" transform="translate(111,123)"/>
<path d="M0 0 C-0.33 8.91 -0.66 17.82 -1 27 C0.65 27.33 2.3 27.66 4 28 C4 28.33 4 28.66 4 29 C1.36 29 -1.28 29 -4 29 C-4 19.76 -4 10.52 -4 1 C-2 0 -2 0 0 0 Z " fill="#D1E0E6" transform="translate(45,93)"/>
<path d="M0 0 C0.33 0 0.66 0 1 0 C1 3.96 1 7.92 1 12 C1.66 12 2.32 12 3 12 C3 20.25 3 28.5 3 37 C1.515 37.495 1.515 37.495 0 38 C0 25.46 0 12.92 0 0 Z " fill="#1C5A9A" transform="translate(49,83)"/>
<path d="M0 0 C1.8297382 3.19142579 2.42159977 5.93757344 2.8515625 9.578125 C2.98046875 10.65707031 3.109375 11.73601562 3.2421875 12.84765625 C3.36851562 13.97042969 3.49484375 15.09320313 3.625 16.25 C3.7590625 17.35730469 3.893125 18.46460938 4.03125 19.60546875 C4.71176458 25.44539486 5.15771694 31.12145956 5 37 C4.01 36.67 3.02 36.34 2 36 C0.69183989 23.9604041 -0.33505359 12.11777167 0 0 Z " fill="#BBD3E0" transform="translate(182,70)"/>
<path d="M0 0 C0.928125 0.165 1.85625 0.33 2.8125 0.5 C5.74559187 0.96009284 7.25741623 0.94935592 10 0 C10 2.31 10 4.62 10 7 C7.11584117 8.44207941 4.58278472 8.09394887 1.375 8.0625 C0.18648437 8.05347656 -1.00203125 8.04445313 -2.2265625 8.03515625 C-3.14179688 8.02355469 -4.05703125 8.01195313 -5 8 C-5 6.02 -5 4.04 -5 2 C-4.67 3.32 -4.34 4.64 -4 6 C-3.01 6 -2.02 6 -1 6 C-1.020625 5.195625 -1.04125 4.39125 -1.0625 3.5625 C-1 1 -1 1 0 0 Z " fill="#0654A0" transform="translate(175,114)"/>
<path d="M0 0 C1.33246128 3.80228827 0.77379461 7.01165069 0.22265625 10.953125 C0.13245712 11.61334656 0.042258 12.27356812 -0.05067444 12.95379639 C-0.33920016 15.0535836 -0.63819293 17.15172523 -0.9375 19.25 C-1.13545888 20.67698733 -1.33273228 22.10406994 -1.52929688 23.53125 C-2.01159428 27.02197225 -2.50328712 30.51129638 -3 34 C-1.68 34.33 -0.36 34.66 1 35 C-0.65 35 -2.3 35 -4 35 C-4.92470553 30.28400182 -5.22923777 27.32734391 -3 23 C-3.66 22.67 -4.32 22.34 -5 22 C-4.67 21.67 -4.34 21.34 -4 21 C-4.66 20.67 -5.32 20.34 -6 20 C-6.33 20.99 -6.66 21.98 -7 23 C-7.66 23 -8.32 23 -9 23 C-7.96201983 20.49154793 -7.30402177 19.19951428 -5 17.6875 C-2.43456771 15.5229165 -2.25980392 14.08374185 -1.75 10.8125 C-1.60046875 9.91144531 -1.4509375 9.01039062 -1.296875 8.08203125 C-1.19890625 7.39496094 -1.1009375 6.70789063 -1 6 C-2.32 6.33 -3.64 6.66 -5 7 C-4.67 6.01 -4.34 5.02 -4 4 C-3.34 4 -2.68 4 -2 4 C-2 3.01 -2 2.02 -2 1 C-1.34 0.67 -0.68 0.34 0 0 Z " fill="#0F4687" transform="translate(175,73)"/>
<path d="M0 0 C1.32 1.32 2.64 2.64 4 4 C3.53980469 4.54140625 3.07960937 5.0828125 2.60546875 5.640625 C0.781881 8.32054471 0.09637649 10.61449402 -0.6875 13.75 C-0.93886719 14.73484375 -1.19023437 15.7196875 -1.44921875 16.734375 C-1.63097656 17.48203125 -1.81273437 18.2296875 -2 19 C-2.33 19 -2.66 19 -3 19 C-3.08636719 18.35933594 -3.17273438 17.71867187 -3.26171875 17.05859375 C-4.28816012 10.73985835 -5.92267439 6.93570995 -10 2 C-6.535 1.505 -6.535 1.505 -3 1 C-3 2.32 -3 3.64 -3 5 C-3.66 5 -4.32 5 -5 5 C-5 5.66 -5 6.32 -5 7 C-2.47411298 4.63707344 -1.11179163 3.33537489 0 0 Z " fill="#F1F6F6" transform="translate(199,88)"/>
<path d="M0 0 C0 0.33 0 0.66 0 1 C-3.63 1.33 -7.26 1.66 -11 2 C-10.01 2.66 -9.02 3.32 -8 4 C-9.75 7.875 -9.75 7.875 -12 9 C-12 8.34 -12 7.68 -12 7 C-13.98 7 -15.96 7 -18 7 C-17.67 6.34 -17.34 5.68 -17 5 C-19.31 5.66 -21.62 6.32 -24 7 C-24.33 6.01 -24.66 5.02 -25 4 C-16.46042325 0.55339605 -9.18716418 -0.53344824 0 0 Z " fill="#42BCEF" transform="translate(80,126)"/>
<path d="M0 0 C1.32 0 2.64 0 4 0 C4 5.28 4 10.56 4 16 C3.34 16 2.68 16 2 16 C2 19.96 2 23.92 2 28 C1.67 28 1.34 28 1 28 C-0.20514375 18.66013591 -0.09213655 9.39792784 0 0 Z " fill="#0D478A" transform="translate(133,94)"/>
<path d="M0 0 C0 3.96 0 7.92 0 12 C-0.33 10.68 -0.66 9.36 -1 8 C-4.3 7.34 -7.6 6.68 -11 6 C-11 4.35 -11 2.7 -11 1 C-7.57067929 -0.71466036 -3.78283935 -0.05404056 0 0 Z " fill="#054A9D" transform="translate(112,95)"/>
<path d="M0 0 C1.65 0 3.3 0 5 0 C4.67 0.66 4.34 1.32 4 2 C4 2.99 4 3.98 4 5 C7.3 5 10.6 5 14 5 C14 5.33 14 5.66 14 6 C13.21753906 6.06058594 12.43507813 6.12117187 11.62890625 6.18359375 C10.11103516 6.30927734 10.11103516 6.30927734 8.5625 6.4375 C7.55316406 6.51871094 6.54382813 6.59992188 5.50390625 6.68359375 C3.06359221 6.73211468 3.06359221 6.73211468 2 8 C2.99 8 3.98 8 5 8 C4.6875 10.375 4.6875 10.375 4 13 C3.01 13.66 2.02 14.32 1 15 C-1.09749995 12.64031256 -1.96905704 11.45383006 -2.1875 8.25 C-2.125625 7.5075 -2.06375 6.765 -2 6 C-1.34 6 -0.68 6 0 6 C0 4.02 0 2.04 0 0 Z " fill="#114E96" transform="translate(58,145)"/>
<path d="M0 0 C1.625 1.6875 1.625 1.6875 3 4 C2.3125 6.5 2.3125 6.5 1 9 C0.62875 9.763125 0.2575 10.52625 -0.125 11.3125 C-0.558125 12.1478125 -0.558125 12.1478125 -1 13 C-1.66 13 -2.32 13 -3 13 C-3 12.34 -3 11.68 -3 11 C-3.66 11 -4.32 11 -5 11 C-5 10.34 -5 9.68 -5 9 C-6.98 9.99 -6.98 9.99 -9 11 C-9.33 10.01 -9.66 9.02 -10 8 C-8 5 -8 5 -6.0546875 4.48828125 C-5.33539063 4.43027344 -4.61609375 4.37226562 -3.875 4.3125 C-2.59625 4.209375 -1.3175 4.10625 0 4 C0 2.68 0 1.36 0 0 Z " fill="#E8F2F1" transform="translate(165,87)"/>
<path d="M0 0 C4.455 0.99 4.455 0.99 9 2 C9 2.66 9 3.32 9 4 C6.69 4 4.38 4 2 4 C2.33 4.66 2.66 5.32 3 6 C3.13559318 9.00474497 3.04299016 11.99068847 3 15 C6.3 15 9.6 15 13 15 C13.33 14.01 13.66 13.02 14 12 C14.33 12.99 14.66 13.98 15 15 C12.53910088 17.46089912 5.03154122 16.77662328 2 17 C1.67 12.71 1.34 8.42 1 4 C-0.32 4 -1.64 4 -3 4 C-2.67 3.01 -2.34 2.02 -2 1 C-1.34 1.33 -0.68 1.66 0 2 C0 1.34 0 0.68 0 0 Z " fill="#296099" transform="translate(187,105)"/>
<path d="M0 0 C0.78761719 0.09023437 1.57523438 0.18046875 2.38671875 0.2734375 C4.3125 0.625 4.3125 0.625 5.3125 1.625 C5.35330783 3.62458364 5.35504356 5.62545254 5.3125 7.625 C4.6525 7.625 3.9925 7.625 3.3125 7.625 C3.3125 6.305 3.3125 4.985 3.3125 3.625 C2.3225 3.625 1.3325 3.625 0.3125 3.625 C-0.3475 4.945 -1.0075 6.265 -1.6875 7.625 C-2.3475 7.625 -3.0075 7.625 -3.6875 7.625 C-3.81125 6.820625 -3.935 6.01625 -4.0625 5.1875 C-4.26875 4.341875 -4.475 3.49625 -4.6875 2.625 C-5.3475 2.295 -6.0075 1.965 -6.6875 1.625 C-6.6875 3.605 -6.6875 5.585 -6.6875 7.625 C-7.3475 7.295 -8.0075 6.965 -8.6875 6.625 C-8.6875 4.645 -8.6875 2.665 -8.6875 0.625 C-5.6023254 -0.32102608 -3.19490993 -0.39078237 0 0 Z " fill="#78A3C4" transform="translate(124.6875,151.375)"/>
<path d="M0 0 C0.33 0 0.66 0 1 0 C1 4.62 1 9.24 1 14 C-1.31 14.66 -3.62 15.32 -6 16 C-5.39108739 10.03265638 -4.37539576 4.37539576 0 0 Z " fill="#FBFBFC" transform="translate(202,93)"/>
<path d="M0 0 C0.33 0 0.66 0 1 0 C1.19210448 5.23237936 1.37085125 10.46497767 1.53710938 15.69824219 C1.59558966 17.4792918 1.65775006 19.26022447 1.72363281 21.04101562 C1.81757713 23.59743968 1.89837558 26.15398912 1.9765625 28.7109375 C2.02485703 29.90944839 2.02485703 29.90944839 2.0741272 31.13217163 C2.12738475 33.08754535 2.07296352 35.04526241 2 37 C1.34 37.66 0.68 38.32 0 39 C-1 38 -1 38 -1.02172852 34.39819336 C-0.97938278 32.79526251 -0.93135787 31.19247574 -0.87890625 29.58984375 C-0.85529526 28.74780899 -0.83168427 27.90577423 -0.80735779 27.03822327 C-0.73053055 24.33781869 -0.64658888 21.63768729 -0.5625 18.9375 C-0.50929836 17.11134168 -0.45655786 15.28516986 -0.40429688 13.45898438 C-0.27488979 8.97248191 -0.13910001 4.48621199 0 0 Z " fill="#EDFAFB" transform="translate(179,67)"/>
<path d="M0 0 C0.33 0 0.66 0 1 0 C1 2.31 1 4.62 1 7 C3.64 6.67 6.28 6.34 9 6 C9 6.66 9 7.32 9 8 C0.09 8 -8.82 8 -18 8 C-16 6 -16 6 -13.57421875 5.83984375 C-12.62160156 5.87207031 -11.66898438 5.90429688 -10.6875 5.9375 C-6.93516077 6.05524052 -3.66064114 5.86015065 0 5 C0 3.35 0 1.7 0 0 Z " fill="#49ACE5" transform="translate(188,115)"/>
<path d="M0 0 C1.97909398 -0.02686553 3.95828971 -0.04633375 5.9375 -0.0625 C7.03964844 -0.07410156 8.14179687 -0.08570313 9.27734375 -0.09765625 C12 0 12 0 13 1 C13.04092937 3.33297433 13.04241723 5.66705225 13 8 C12.34 8 11.68 8 11 8 C11 6.35 11 4.7 11 3 C8.69 3 6.38 3 4 3 C3.67 4.65 3.34 6.3 3 8 C2.34 7.67 1.68 7.34 1 7 C1.66 5.35 2.32 3.7 3 2 C2.01 2 1.02 2 0 2 C0 1.34 0 0.68 0 0 Z " fill="#72A4C4" transform="translate(60,151)"/>
<path d="M0 0 C0.33 0 0.66 0 1 0 C1.33 2.97 1.66 5.94 2 9 C5.63 9 9.26 9 13 9 C13 9.33 13 9.66 13 10 C9.37 10.33 5.74 10.66 2 11 C2 11.66 2 12.32 2 13 C-1.3 12.34 -4.6 11.68 -8 11 C-8 10.34 -8 9.68 -8 9 C-5.36 9 -2.72 9 0 9 C0 6.03 0 3.06 0 0 Z " fill="#33659D" transform="translate(133,112)"/>
<path d="M0 0 C0 2.64 0 5.28 0 8 C-1.32 7.67 -2.64 7.34 -4 7 C-3.01 7 -2.02 7 -1 7 C-1 6.34 -1 5.68 -1 5 C-2.98491642 5.26676204 -2.98491642 5.26676204 -5 6 C-5.33 6.99 -5.66 7.98 -6 9 C-6.33 7.02 -6.66 5.04 -7 3 C-8.65 2.67 -10.3 2.34 -12 2 C-12 1.67 -12 1.34 -12 1 C-7.95858806 0.36605303 -4.0934693 -0.12404452 0 0 Z " fill="#0D4E8D" transform="translate(136,150)"/>
<path d="M0 0 C2.5 0.125 2.5 0.125 3.5 1.125 C3.625 3.625 3.625 3.625 3.5 6.125 C2.5 7.125 2.5 7.125 0 7.25 C-2.5 7.125 -2.5 7.125 -3.5 6.125 C-3.625 3.625 -3.625 3.625 -3.5 1.125 C-2.5 0.125 -2.5 0.125 0 0 Z " fill="#E5F1F1" transform="translate(159.5,83.875)"/>
<path d="M0 0 C2.3431213 0.25561323 4.67843403 0.59270772 7 1 C7.33 1.66 7.66 2.32 8 3 C6.576875 3.0928125 6.576875 3.0928125 5.125 3.1875 C3.578125 3.5896875 3.578125 3.5896875 2 4 C-0.29042614 8.03838293 -0.21027674 11.75019442 -0.125 16.3125 C-0.10695312 17.56675781 -0.08890625 18.82101563 -0.0703125 20.11328125 C-0.04710937 21.06589844 -0.02390625 22.01851562 0 23 C-0.66 23 -1.32 23 -2 23 C-2 16.07 -2 9.14 -2 2 C-1.34 2 -0.68 2 0 2 C0 1.34 0 0.68 0 0 Z " fill="#184B87" transform="translate(155,89)"/>
<path d="M0 0 C4.7517398 0.43197635 6.92000054 1.32769295 10 5 C8.02 5.99 8.02 5.99 6 7 C5.34 6.01 4.68 5.02 4 4 C3.34 4 2.68 4 2 4 C2.33 5.98 2.66 7.96 3 10 C2.34 10 1.68 10 1 10 C-0.1577506 6.52674819 -0.06866652 3.63932552 0 0 Z " fill="#E7F2F5" transform="translate(186,80)"/>
<path d="M0 0 C1.66611905 -0.042721 3.33382885 -0.04063832 5 0 C6 1 6 1 6.0625 4.0625 C6.041875 5.031875 6.02125 6.00125 6 7 C4.02 7 2.04 7 0 7 C0 4.69 0 2.38 0 0 Z " fill="#7CA6BF" transform="translate(81,152)"/>
<path d="M0 0 C5.28 0 10.56 0 16 0 C16 2.31 16 4.62 16 7 C13.03 7 10.06 7 7 7 C7 6.67 7 6.34 7 6 C8.4540625 5.5978125 8.4540625 5.5978125 9.9375 5.1875 C10.948125 4.795625 11.95875 4.40375 13 4 C13.33 3.01 13.66 2.02 14 1 C13.360625 1.185625 12.72125 1.37125 12.0625 1.5625 C7.92665389 2.15333516 4.1148827 1.58271759 0 1 C0 0.67 0 0.34 0 0 Z " fill="#4ACBFA" transform="translate(172,136)"/>
<path d="M0 0 C3.875 1.75 3.875 1.75 5 4 C4.67 4.66 4.34 5.32 4 6 C3.34 6 2.68 6 2 6 C2.14308594 6.90492187 2.14308594 6.90492187 2.2890625 7.828125 C2.39992187 8.62734375 2.51078125 9.4265625 2.625 10.25 C2.74101562 11.03890625 2.85703125 11.8278125 2.9765625 12.640625 C3.00319395 15.32152459 2.36592084 16.72694089 1 19 C0.25492456 12.62694402 -0.10349817 6.41688675 0 0 Z " fill="#2F6096" transform="translate(184,74)"/>
<path d="M0 0 C0 0.66 0 1.32 0 2 C-3.08809695 3.76462683 -4.23312136 4 -8 4 C-8.33 6.64 -8.66 9.28 -9 12 C-9.33 12 -9.66 12 -10 12 C-10.33 8.37 -10.66 4.74 -11 1 C-3.375 0 -3.375 0 0 0 Z " fill="#EBF3F2" transform="translate(200,108)"/>
<path d="M0 0 C3.02409113 6.04818225 3.11418391 11.37733325 3 18 C2.01 17.67 1.02 17.34 0 17 C0 11.39 0 5.78 0 0 Z " fill="#DDECF0" transform="translate(184,89)"/>
<path d="M0 0 C0.33 1.32 0.66 2.64 1 4 C7.65471948 3.5317477 7.65471948 3.5317477 13 0 C13.38218767 1.65614657 13.71395102 3.32457024 14 5 C13 6 13 6 10.05859375 6.09765625 C8.26615234 6.08025391 8.26615234 6.08025391 6.4375 6.0625 C4.64119141 6.04896484 4.64119141 6.04896484 2.80859375 6.03515625 C1.88175781 6.02355469 0.95492187 6.01195313 0 6 C0 4.02 0 2.04 0 0 Z " fill="#0D5EA5" transform="translate(170,116)"/>
<path d="M0 0 C2.5625 2 2.5625 2 5 5 C5.14963532 7.89116824 4.63149193 10.13399816 4 13 C3.34 12.01 2.68 11.02 2 10 C1.34 10 0.68 10 0 10 C0 6.7 0 3.4 0 0 Z " fill="#0A4CAB" transform="translate(187,91)"/>
<path d="M0 0 C0.66 0.33 1.32 0.66 2 1 C1.67 4.3 1.34 7.6 1 11 C-1.475 10.01 -1.475 10.01 -4 9 C-4 8.01 -4 7.02 -4 6 C-2.35 5.67 -0.7 5.34 1 5 C1 4.34 1 3.68 1 3 C0.34 2.67 -0.32 2.34 -1 2 C-0.67 1.34 -0.34 0.68 0 0 Z " fill="#DFEDF0" transform="translate(167,115)"/>
<path d="M0 0 C0.99 0 1.98 0 3 0 C3.33 2.31 3.66 4.62 4 7 C3.01 7.495 3.01 7.495 2 8 C1.53348793 10.12576782 1.53348793 10.12576782 1.375 12.5625 C1.30023438 13.38878906 1.22546875 14.21507813 1.1484375 15.06640625 C1.09945312 15.70449219 1.05046875 16.34257813 1 17 C0.67 17 0.34 17 0 17 C0 11.39 0 5.78 0 0 Z " fill="#104A87" transform="translate(108,103)"/>
<path d="M0 0 C0.66 0.33 1.32 0.66 2 1 C1.01 2.485 1.01 2.485 0 4 C0 4.66 0 5.32 0 6 C1.32 6.66 2.64 7.32 4 8 C3.01 8.99 2.02 9.98 1 11 C0.34 10.01 -0.32 9.02 -1 8 C-1.33 8.66 -1.66 9.32 -2 10 C-2.66 9.67 -3.32 9.34 -4 9 C-3.6875 5.625 -3.6875 5.625 -3 2 C-2.01 1.34 -1.02 0.68 0 0 Z " fill="#D7E6EB" transform="translate(167,81)"/>
<path d="M0 0 C0.33 0 0.66 0 1 0 C1.33 4.62 1.66 9.24 2 14 C0.68 14 -0.64 14 -2 14 C-2 10.6325319 -1.68568426 8.00700022 -1 4.75 C-0.814375 3.85796875 -0.62875 2.9659375 -0.4375 2.046875 C-0.2209375 1.03367187 -0.2209375 1.03367187 0 0 Z " fill="#2966A9" transform="translate(181,96)"/>
<path d="M0 0 C0.33 0 0.66 0 1 0 C1 2.64 1 5.28 1 8 C1.33 7.34 1.66 6.68 2 6 C4.31 6.66 6.62 7.32 9 8 C9 8.66 9 9.32 9 10 C9.66 10.33 10.32 10.66 11 11 C7.25212088 10.49547781 3.67363066 9.91840767 0 9 C0 6.03 0 3.06 0 0 Z " fill="#40B1E5" transform="translate(25,133)"/>
<path d="M0 0 C1.66611905 -0.042721 3.33382885 -0.04063832 5 0 C6 1 6 1 6.0625 4.0625 C6.041875 5.031875 6.02125 6.00125 6 7 C5.01 6.67 4.02 6.34 3 6 C3.33 5.34 3.66 4.68 4 4 C3.34 4 2.68 4 2 4 C1.67 4.99 1.34 5.98 1 7 C-0.231394 4.53721199 -0.07159196 2.7204945 0 0 Z " fill="#96BBCE" transform="translate(38,152)"/>
<path d="M0 0 C0.99 0.33 1.98 0.66 3 1 C2.34 1 1.68 1 1 1 C1.33 1.66 1.66 2.32 2 3 C2.13415472 5.6723621 2.04318541 8.32250488 2 11 C1.01 11 0.02 11 -1 11 C-1.0270043 9.54176788 -1.04639787 8.08339325 -1.0625 6.625 C-1.07410156 5.81289062 -1.08570313 5.00078125 -1.09765625 4.1640625 C-1 2 -1 2 0 0 Z " fill="#4EC3F7" transform="translate(172,109)"/>
<path d="M0 0 C0.99 0.33 1.98 0.66 3 1 C2.67 4.63 2.34 8.26 2 12 C1.01 11.67 0.02 11.34 -1 11 C-1.125 3.375 -1.125 3.375 0 0 Z " fill="#034EA8" transform="translate(169,93)"/>
<path d="M0 0 C0 1.32 0 2.64 0 4 C-0.66 4 -1.32 4 -2 4 C-2 4.66 -2 5.32 -2 6 C-1.34 6 -0.68 6 0 6 C-0.33 7.32 -0.66 8.64 -1 10 C-2.98 7.03 -4.96 4.06 -7 1 C-2 0 -2 0 0 0 Z " fill="#DFEAEE" transform="translate(196,89)"/>
<path d="M0 0 C0.99 0 1.98 0 3 0 C3 1.32 3 2.64 3 4 C3.99 4.33 4.98 4.66 6 5 C5.67 5.99 5.34 6.98 5 8 C3.35 8 1.7 8 0 8 C-0.33 7.34 -0.66 6.68 -1 6 C-0.34 6 0.32 6 1 6 C0.67 4.02 0.34 2.04 0 0 Z " fill="#49C8F7" transform="translate(163,131)"/>
<path d="M0 0 C3.63 0.33 7.26 0.66 11 1 C10.67 2.32 10.34 3.64 10 5 C7.03 4.505 7.03 4.505 4 4 C3.67 3.01 3.34 2.02 3 1 C2.01 1.33 1.02 1.66 0 2 C0 1.34 0 0.68 0 0 Z " fill="#04489D" transform="translate(49,124)"/>
<path d="M0 0 C1.54571278 2.31856917 2.79618552 4.50638429 4 7 C1.92446352 7.5534764 0.15634036 8 -2 8 C-2.125 5.125 -2.125 5.125 -2 2 C-1.34 1.34 -0.68 0.68 0 0 Z " fill="#12509E" transform="translate(155,112)"/>
<path d="M0 0 C1 3 1 3 0 6 C0.66 6.33 1.32 6.66 2 7 C1.67 7.33 1.34 7.66 1 8 C0.92851801 9.35243917 0.91600546 10.70834367 0.9375 12.0625 C0.958125 13.361875 0.97875 14.66125 1 16 C-1.75042234 13.24957766 -1.97718894 11.41820278 -2.1875 7.5625 C-2.01604909 4.30493264 -1.72122938 2.6894209 0 0 Z " fill="#194F90" transform="translate(165,96)"/>
<path d="M0 0 C-0.99 0.66 -1.98 1.32 -3 2 C-3 2.99 -3 3.98 -3 5 C-5.64 4.34 -8.28 3.68 -11 3 C-7.74003139 -0.25996861 -4.40088745 -1.46696248 0 0 Z " fill="#0C59A9" transform="translate(65,137)"/>
<path d="M0 0 C0 0.99 0 1.98 0 3 C-6.0546875 3.1953125 -6.0546875 3.1953125 -8 3 C-8.66 2.34 -9.32 1.68 -10 1 C-6.21812119 -0.83691257 -4.05431692 -1.15837626 0 0 Z " fill="#41BCEC" transform="translate(127,133)"/>
<path d="M0 0 C0.33 0 0.66 0 1 0 C1 3.63 1 7.26 1 11 C0.01 11 -0.98 11 -2 11 C-1.85892253 9.54119891 -1.71197585 8.08296449 -1.5625 6.625 C-1.48128906 5.81289062 -1.40007812 5.00078125 -1.31640625 4.1640625 C-1 2 -1 2 0 0 Z " fill="#E0EBF1" transform="translate(174,95)"/>
<path d="M0 0 C0 4.62 0 9.24 0 14 C-0.33 14 -0.66 14 -1 14 C-1.07347656 13.09507813 -1.07347656 13.09507813 -1.1484375 12.171875 C-1.22320312 11.37265625 -1.29796875 10.5734375 -1.375 9.75 C-1.44460937 8.96109375 -1.51421875 8.1721875 -1.5859375 7.359375 C-2.01507113 4.914123 -2.78600638 3.15163097 -4 1 C-2 0 -2 0 0 0 Z " fill="#134E8B" transform="translate(170,111)"/>
<path d="M0 0 C1.32 0.33 2.64 0.66 4 1 C4 3.31 4 5.62 4 8 C1 6 1 6 0 5 C-0.04063832 3.33382885 -0.042721 1.66611905 0 0 Z " fill="#326DAC" transform="translate(89,152)"/>
<path d="M0 0 C0.99 0 1.98 0 3 0 C2.67 0.99 2.34 1.98 2 3 C-4.435 3.495 -4.435 3.495 -11 4 C-11 3.34 -11 2.68 -11 2 C-10.28972656 1.93941406 -9.57945313 1.87882812 -8.84765625 1.81640625 C-7.46900391 1.69072266 -7.46900391 1.69072266 -6.0625 1.5625 C-5.14597656 1.48128906 -4.22945313 1.40007812 -3.28515625 1.31640625 C-1.03840268 1.23955024 -1.03840268 1.23955024 0 0 Z " fill="#0E4994" transform="translate(121,120)"/>
<path d="M0 0 C4.455 0.99 4.455 0.99 9 2 C4.64467851 4.17766075 3.53374042 4.03039555 -1 3 C-0.67 2.01 -0.34 1.02 0 0 Z " fill="#21599A" transform="translate(100,131)"/>
<path d="M0 0 C2.97 0.495 2.97 0.495 6 1 C6 2.32 6 3.64 6 5 C1.25 4.25 1.25 4.25 -1 2 C-0.67 1.34 -0.34 0.68 0 0 Z " fill="#0958A8" transform="translate(93,128)"/>
<path d="M0 0 C0 0.66 0 1.32 0 2 C-1.98 2.33 -3.96 2.66 -6 3 C-6 2.34 -6 1.68 -6 1 C-6.99 0.67 -7.98 0.34 -9 0 C-2.25 -1.125 -2.25 -1.125 0 0 Z " fill="#42C4F2" transform="translate(84,128)"/>
<path d="M0 0 C2.475 0.495 2.475 0.495 5 1 C4.67 2.32 4.34 3.64 4 5 C3.01 5 2.02 5 1 5 C0.67 3.35 0.34 1.7 0 0 Z " fill="#4179AB" transform="translate(34,152)"/>
<path d="M0 0 C0.33 0.66 0.66 1.32 1 2 C-1.64 2 -4.28 2 -7 2 C-7.33 1.34 -7.66 0.68 -8 0 C-4.97878489 -0.97110486 -2.99536737 -1.13617383 0 0 Z " fill="#0957A7" transform="translate(113,134)"/>
<path d="M0 0 C0.33 1.32 0.66 2.64 1 4 C0.34 4 -0.32 4 -1 4 C-1 4.66 -1 5.32 -1 6 C-2.32 6.33 -3.64 6.66 -5 7 C-4.67 6.01 -4.34 5.02 -4 4 C-3.34 4 -2.68 4 -2 4 C-2 3.01 -2 2.02 -2 1 C-1.34 0.67 -0.68 0.34 0 0 Z " fill="#0F4E92" transform="translate(175,73)"/>
<path d="M0 0 C1.32 0 2.64 0 4 0 C4 1.32 4 2.64 4 4 C2.35 3.67 0.7 3.34 -1 3 C-0.67 2.01 -0.34 1.02 0 0 Z " fill="#DDF0F4" transform="translate(178,61)"/>
<path d="M0 0 C0.99 0.33 1.98 0.66 3 1 C3 2.65 3 4.3 3 6 C2.01 6 1.02 6 0 6 C0 4.02 0 2.04 0 0 Z " fill="#21528B" transform="translate(118,153)"/>
<path d="M0 0 C1.32 0.66 2.64 1.32 4 2 C2 4 2 4 -1.125 4.125 C-2.548125 4.063125 -2.548125 4.063125 -4 4 C-2.68 2.68 -1.36 1.36 0 0 Z " fill="#0B56AB" transform="translate(94,140)"/>
<path d="M0 0 C1.65 0.33 3.3 0.66 5 1 C3 4 3 4 0.375 4.6875 C-0.800625 4.8421875 -0.800625 4.8421875 -2 5 C-1.34 3.35 -0.68 1.7 0 0 Z " fill="#4CCDFA" transform="translate(131,129)"/>
<path d="M0 0 C2.31 0.33 4.62 0.66 7 1 C4.6226839 3.3773161 3.29714793 3.67028521 0 4 C-0.66 3.34 -1.32 2.68 -2 2 C-1.34 2 -0.68 2 0 2 C0 1.34 0 0.68 0 0 Z " fill="#0C5AA6" transform="translate(123,128)"/>
<path d="M0 0 C0.66 0.66 1.32 1.32 2 2 C1.625 4.625 1.625 4.625 1 7 C0.34 7 -0.32 7 -1 7 C-1.04254356 5.00045254 -1.04080783 2.99958364 -1 1 C-0.67 0.67 -0.34 0.34 0 0 Z " fill="#024AA2" transform="translate(188,94)"/>
</svg>
