<?xml version="1.0" encoding="UTF-8"?> <svg xmlns="http://www.w3.org/2000/svg" width="102" height="28" viewBox="0 0 102 28" fill="none"><g clip-path="url(#clip0_1262_304)"><path d="M0.0268555 27.7666V23.7498H10.3868V12.2823H0.0268555V8.33008H11.9179C13.9702 8.33008 15.5014 9.94984 15.5014 11.7641V23.7498H17.7164V27.7666H0.0268555Z" fill="#0D4DDC"></path><path d="M28.8261 27.7666V12.2823H17.8145V8.33008H30.3573C32.4096 8.33008 33.9407 9.94984 33.9407 11.7641V27.7666H28.8261Z" fill="#0D4DDC"></path><path d="M37.5036 8.39062V12.3428H41.5432V23.8103H36.3301V27.8271H46.6579V11.6164C46.6579 9.83477 45.2055 8.39062 43.4138 8.39062H37.5029H37.5036Z" fill="#0D4DDC"></path><path d="M49.1189 8.19385H63.2841C67.8448 8.19385 70.4175 10.7382 70.4175 15.0837V27.7668H59.4489V23.3037H65.2174V15.7876C65.2174 13.4 64.5161 12.617 62.1383 12.617H56.3296V27.7668H51.7302V12.6177H49.1182V8.19457L49.1189 8.19385Z" fill="#0D4DDC"></path><path d="M86.2065 19.5566V27.7738H89.5878C101.66 27.7738 101.66 19.5566 101.66 19.5566H86.2065Z" fill="#0D4DDC"></path><path d="M84.4249 0L79.0183 0.0152397C75.0765 0.0152397 71.8784 3.59077 71.8696 8.04223V8.33106H84.4249V0Z" fill="#FD001A"></path><path d="M99.4819 5.02018C98.3375 3.51217 96.9107 2.3242 95.2423 1.48964C93.7191 0.727653 92.0245 0.13548 90.2057 0.00993333C89.7759 -0.0198204 86.4639 0.0251731 86.2056 0.00993333V8.33083H89.3862C93.5994 8.33083 93.606 10.0319 93.606 12.8948V17.7729H101.906C101.895 16.4863 101.871 12.5493 101.822 11.7489C101.66 9.08338 100.895 6.88233 99.4819 5.02018Z" fill="#0D4DDC"></path><path d="M75.5488 10.1987V23.392C75.5488 25.8122 77.5216 27.7738 79.9555 27.7738H84.3622V10.1987H75.5488Z" fill="#0D4DDC"></path></g><defs><clipPath id="clip0_1262_304"><rect width="102" height="28" fill="white"></rect></clipPath></defs></svg> 