<?xml version="1.0" encoding="UTF-8"?>
<svg version="1.1" xmlns="http://www.w3.org/2000/svg" width="1920" height="704">
<path d="M0 0 C1.41925781 0.5878125 1.41925781 0.5878125 2.8671875 1.1875 C7.90478148 3.50511512 12.47711108 6.52885076 17.0625 9.625 C17.92258667 10.20181519 17.92258667 10.20181519 18.80004883 10.7902832 C22.87908661 13.63725984 22.87908661 13.63725984 24 17 C24.66 17.33 25.32 17.66 26 18 C26.66 18.33 27.32 18.66 28 19 C28.33 19.99 28.66 20.98 29 22 C29.598125 22.28875 30.19625 22.5775 30.8125 22.875 C33 24 33 24 37 29 C37.33 18.77 37.66 8.54 38 -2 C47.24 -2 56.48 -2 66 -2 C66 66.31 66 134.62 66 205 C56.76 205 47.52 205 38 205 C37.67 194.44 37.34 183.88 37 173 C34.525 175.7534375 34.525 175.7534375 32 178.5625 C27.60164196 183.3913301 23.11205285 187.91477418 18 192 C17.47535156 192.43570313 16.95070313 192.87140625 16.41015625 193.3203125 C-4.09973072 209.26687498 -33.08022259 212.77166596 -58.0625 209.7265625 C-86.70540859 205.77926726 -113.51939993 191.45913655 -131.375 168.5 C-135.53747376 162.97805138 -138.91164571 157.17670857 -142 151 C-142.35449219 150.37351562 -142.70898438 149.74703125 -143.07421875 149.1015625 C-156.22509905 125.29483057 -156.15091603 93.58328163 -148.8984375 68.01171875 C-142.8230084 47.88639012 -127.96087081 24.90178186 -110 13 C-109.01 13 -108.02 13 -107 13 C-107 12.34 -107 11.68 -107 11 C-98.57516575 5.97750266 -90.25883255 1.34613249 -81 -2 C-80.00484375 -2.36996094 -79.0096875 -2.73992187 -77.984375 -3.12109375 C-53.41383622 -11.22224965 -23.7406472 -10.05363666 0 0 Z M-105 45 C-108.01845432 48.08579284 -108.01845432 48.08579284 -109 52 C-109.66 52 -110.32 52 -111 52 C-111.42410156 52.86109375 -111.84820312 53.7221875 -112.28515625 54.609375 C-113.37612822 56.76646764 -114.50524828 58.90499228 -115.68359375 61.015625 C-126.4093862 80.79503736 -128.71514238 105.3473176 -122.40625 127.01953125 C-119.36742985 136.18375759 -114.7320945 145.22584683 -109 153 C-108.34 153 -107.68 153 -107 153 C-106.835 153.680625 -106.67 154.36125 -106.5 155.0625 C-104.5871566 158.808485 -102.00481781 160.81704732 -98.77734375 163.44921875 C-97 165 -97 165 -96 167 C-94.35436078 168.03423854 -92.68372141 169.02899021 -91 170 C-90.195625 170.54398438 -89.39125 171.08796875 -88.5625 171.6484375 C-69.97450521 184.17266569 -47.72551085 187.43919879 -25.9375 183.3125 C-18.43126776 181.77820725 -11.74367142 179.71590058 -5 176 C-4.26265625 175.64421875 -3.5253125 175.2884375 -2.765625 174.921875 C14.96842825 165.99196166 25.74914631 150.48257809 34 133 C34.41894531 132.14792969 34.83789062 131.29585938 35.26953125 130.41796875 C42.88894595 112.75348299 41.58388034 89.10104689 34.75 71.4375 C30.2035071 60.42122419 24.25837499 50.68781049 16 42 C15.34 42 14.68 42 14 42 C13.62294922 41.1028125 13.62294922 41.1028125 13.23828125 40.1875 C11.83532853 37.70909773 10.50368862 36.62974649 8.1875 35 C5.8466699 33.32857995 3.62860452 31.68295508 1.4375 29.8125 C-1.53138984 27.60486396 -4.5824892 26.32565366 -8 25 C-8.95132813 24.59523438 -9.90265625 24.19046875 -10.8828125 23.7734375 C-44.50258654 9.92047037 -79.77069277 20.32848358 -105 45 Z " fill="#23516A" transform="translate(537,223)"/>
<path d="M0 0 C115.175 0 115.175 0 129.125 4.875 C129.88296875 5.11863281 130.6409375 5.36226562 131.421875 5.61328125 C147.72914568 11.02101878 162.37049567 21.72387771 172 36 C172.680625 36.94875 173.36125 37.8975 174.0625 38.875 C174.701875 39.90625 175.34125 40.9375 176 42 C176.38929688 42.61230469 176.77859375 43.22460938 177.1796875 43.85546875 C188.70288192 64.07473846 188.1856171 88.65422432 182.484375 110.4609375 C181.21631695 114.75983289 179.32462053 118.17832385 177 122 C176.66484375 122.85851562 176.3296875 123.71703125 175.984375 124.6015625 C173.93533487 129.59406504 170.24830666 133.73273783 167 138 C166.32324219 138.94939453 166.32324219 138.94939453 165.6328125 139.91796875 C154.05926132 155.04984778 132.89477547 163.56840205 114.60826111 166.3658905 C112.07954999 166.66917585 109.55317344 166.91528897 107.015625 167.1328125 C106.04398911 167.21618866 105.07235321 167.29956482 104.0712738 167.38546753 C89.43096352 168.4957747 74.7328342 168.20889199 60.0625 168.125 C49.811875 168.08375 39.56125 168.0425 29 168 C29 204.96 29 241.92 29 280 C19.43 280 9.86 280 0 280 C0 187.6 0 95.2 0 0 Z M29 26 C29 63.95 29 101.9 29 141 C40.50875 141.04125 52.0175 141.0825 63.875 141.125 C69.29848877 141.15231201 69.29848877 141.15231201 74.83154297 141.18017578 C78.11121942 141.18687024 78.11121942 141.18687024 81.39089966 141.19088745 C82.83630612 141.1939313 84.28170793 141.20090781 85.7270813 141.21115112 C94.0292758 141.2669776 101.90400192 141.09096889 110 139 C110.97710937 138.80019531 111.95421875 138.60039062 112.9609375 138.39453125 C123.5071391 135.85183863 134.35488857 129.78224347 142 122 C142.34804687 121.12601562 142.69609375 120.25203125 143.0546875 119.3515625 C143.52261719 118.18753906 143.52261719 118.18753906 144 117 C144.99 116.67 145.98 116.34 147 116 C148.32685151 113.46450202 149.47085128 111.00904272 150.5625 108.375 C150.86607422 107.67503906 151.16964844 106.97507812 151.48242188 106.25390625 C157.65410081 91.7592006 158.11245183 76.99531851 152.4921875 62.24609375 C150.4333517 57.76731744 148.05638116 53.85898523 145 50 C144.56558594 49.42765625 144.13117188 48.8553125 143.68359375 48.265625 C141.11288611 45.00993257 138.30813892 42.48110419 135 40 C134.29875 39.360625 133.5975 38.72125 132.875 38.0625 C117.41282984 26.97007358 98.01310503 25.83255162 79.68359375 25.90234375 C77.75102722 25.90385437 77.75102722 25.90385437 75.77941895 25.90539551 C70.99877015 25.91059997 66.21813412 25.92456111 61.4375 25.9375 C50.733125 25.958125 40.02875 25.97875 29 26 Z " fill="#23516A" transform="translate(90,148)"/>
<path d="M0 0 C579.81 0 1159.62 0 1757 0 C1757 2.31 1757 4.62 1757 7 C1177.19 7 597.38 7 0 7 C0 4.69 0 2.38 0 0 Z " fill="#990E65" transform="translate(84,671)"/>
<path d="M0 0 C4.57391887 3.5267144 8.59523109 7.20754228 11.95703125 11.9140625 C11.95703125 12.5740625 11.95703125 13.2340625 11.95703125 13.9140625 C12.94703125 14.2440625 13.93703125 14.5740625 14.95703125 14.9140625 C18.59601916 19.72078534 21.63445624 24.78513727 21.95703125 30.9140625 C22.61703125 30.9140625 23.27703125 30.9140625 23.95703125 30.9140625 C24.14265625 29.9653125 24.32828125 29.0165625 24.51953125 28.0390625 C26.05651782 22.59879351 29.59964728 18.36773512 32.95703125 13.9140625 C33.91609375 12.58375 33.91609375 12.58375 34.89453125 11.2265625 C48.27404544 -3.77471099 66.88670979 -12.72820095 86.87304688 -14.31787109 C107.44968223 -15.34540629 124.30750499 -12.78994658 141.95703125 -2.0859375 C142.84519531 -1.59222656 143.73335937 -1.09851563 144.6484375 -0.58984375 C147.10641395 1.0113761 148.71415231 2.66237282 150.58203125 4.9140625 C152.96924201 7.76970375 152.96924201 7.76970375 155.51953125 10.4765625 C161.0256084 15.98263965 164.05590562 22.80868267 166.95703125 29.9140625 C167.31925781 30.78417969 167.68148438 31.65429688 168.0546875 32.55078125 C175.03132142 51.14629601 174.3841409 71.55429935 174.26121306 91.09218812 C174.24212981 94.65150266 174.24067145 98.21082957 174.23713684 101.77018738 C174.22790737 108.47380301 174.20342055 115.17726734 174.17308837 121.88081712 C174.13925634 129.52805364 174.12298688 137.17529838 174.10800207 144.82259142 C174.07685985 160.51983771 174.02365914 176.21692441 173.95703125 191.9140625 C169.99703125 191.9140625 166.03703125 191.9140625 161.95703125 191.9140625 C161.94672379 190.54946396 161.93641632 189.18486542 161.92579651 187.77891541 C161.82738034 174.82111798 161.72459221 161.86336135 161.61769199 148.90563107 C161.56283639 142.24642845 161.50954632 135.58722124 161.4597168 128.92797852 C161.41143304 122.48288837 161.3590817 116.03784215 161.3040905 109.59280586 C161.28395235 107.15287963 161.26519851 104.71294151 161.24795723 102.27299309 C161.16253585 90.3086978 161.01598155 78.34981792 160.57006836 66.39282227 C160.54146256 65.48849174 160.51285677 64.58416121 160.48338413 63.65242672 C159.68163878 44.78160217 153.32981669 26.60008436 139.95703125 12.9140625 C136.78173757 10.28064509 133.48838857 8.04083809 129.95703125 5.9140625 C129.31121094 5.51445312 128.66539062 5.11484375 128 4.703125 C114.29432844 -2.97205108 96.13419 -3.52973837 81.08203125 -0.4609375 C80.21288086 -0.2841748 79.34373047 -0.10741211 78.44824219 0.07470703 C71.32112335 1.63301828 65.15372127 4.00553219 58.95703125 7.9140625 C57.87615234 8.59082031 57.87615234 8.59082031 56.7734375 9.28125 C47.38550639 15.75947147 40.72482883 24.66402672 35.95703125 34.9140625 C35.56644531 35.70683594 35.17585938 36.49960937 34.7734375 37.31640625 C27.44137086 54.31713219 29.62507367 76.2268162 29.55231428 94.28447175 C29.53639796 97.73174288 29.50970331 101.17893263 29.48428345 104.62614441 C29.43798908 111.11716053 29.40101079 117.60819284 29.36761057 124.09928674 C29.32903441 131.5047625 29.2797208 138.91015554 29.22962642 146.31556094 C29.12704302 161.51500074 29.03793068 176.71449066 28.95703125 191.9140625 C24.99703125 191.9140625 21.03703125 191.9140625 16.95703125 191.9140625 C16.94157005 189.64379684 16.94157005 189.64379684 16.92579651 187.32766724 C16.82764719 172.99971093 16.72492928 158.67179526 16.61769199 144.3439045 C16.56268721 136.979447 16.50926358 129.61498469 16.4597168 122.25048828 C16.41646902 115.82287968 16.37009717 109.39530203 16.3201527 102.96774185 C16.29387355 99.5723378 16.26903702 96.17693859 16.24795723 92.78149796 C16.15443325 75.10416282 16.15443325 75.10416282 15.51000977 57.44067383 C15.47335237 56.73702509 15.43669497 56.03337635 15.39892673 55.30840492 C15.07670432 50.0877081 14.17525848 45.36200369 12.33203125 40.4765625 C12.06986816 39.73704346 11.80770508 38.99752441 11.53759766 38.2355957 C9.18740909 31.90970602 6.0321733 26.30106535 1.95703125 20.9140625 C1.34214844 20.08519531 0.72726562 19.25632813 0.09375 18.40234375 C-12.92697369 3.23927064 -31.98288231 -0.89069254 -50.98046875 -2.3984375 C-61.32640127 -2.25474399 -72.31749053 0.86970784 -81.2578125 5.9609375 C-83.04296875 6.9140625 -83.04296875 6.9140625 -85.04296875 6.9140625 C-85.04296875 7.5740625 -85.04296875 8.2340625 -85.04296875 8.9140625 C-87.70691149 10.8514754 -90.24531217 12.58170559 -93.29296875 13.8515625 C-95.78268724 15.3631773 -96.18896379 17.20971346 -97.04296875 19.9140625 C-97.70296875 19.9140625 -98.36296875 19.9140625 -99.04296875 19.9140625 C-99.31625 20.66429687 -99.58953125 21.41453125 -99.87109375 22.1875 C-100.96307667 24.72818027 -102.09355207 26.39195002 -103.79296875 28.5390625 C-110.75753176 38.93469699 -113.27707804 51.55855264 -114.18896484 63.84765625 C-114.26958349 64.87979248 -114.35020214 65.91192871 -114.43326378 66.9753418 C-115.33017299 79.4447978 -115.39768184 91.91798854 -115.45703125 104.4140625 C-115.47580114 106.95809516 -115.49537855 109.50212197 -115.51571655 112.04614258 C-115.56128829 117.98457258 -115.59891008 123.92300835 -115.63238943 129.86151791 C-115.67107378 136.64071855 -115.7203565 143.41983052 -115.77037358 150.19895554 C-115.87273653 164.10392586 -115.96192088 178.00895302 -116.04296875 191.9140625 C-120.00296875 191.9140625 -123.96296875 191.9140625 -128.04296875 191.9140625 C-128.04296875 125.5840625 -128.04296875 59.2540625 -128.04296875 -9.0859375 C-124.08296875 -9.0859375 -120.12296875 -9.0859375 -116.04296875 -9.0859375 C-115.71296875 1.1440625 -115.38296875 11.3740625 -115.04296875 21.9140625 C-112.40296875 18.2840625 -109.76296875 14.6540625 -107.04296875 10.9140625 C-80.33376108 -19.80742673 -32.82283289 -22.49986234 0 0 Z " fill="#23516A" transform="translate(1338.04296875,236.0859375)"/>
<path d="M0 0 C579.81 0 1159.62 0 1757 0 C1757 1.98 1757 3.96 1757 6 C1177.19 6 597.38 6 0 6 C0 4.02 0 2.04 0 0 Z " fill="#F6931D" transform="translate(84,501)"/>
<path d="M0 0 C2.43512024 1.93413429 4.72184326 3.87717213 7 6 C7 6.66 7 7.32 7 8 C7.99 8.33 8.98 8.66 10 9 C11.86713639 11.17039739 13.57072979 13.31582427 15.25 15.625 C15.73799072 16.2957959 16.22598145 16.9665918 16.72875977 17.65771484 C24.13060043 28.13397817 28.76566691 39.60172314 32 52 C32.2990625 53.10859375 32.598125 54.2171875 32.90625 55.359375 C35.2102443 64.78868502 35 71.78758375 35 82 C-30.67 82 -96.34 82 -164 82 C-160.01698201 112.53647126 -152.47634452 135.72545925 -128 155 C-105.95103111 171.28662494 -79.60650716 176.52329849 -52.83422852 172.55126953 C-43.68473339 170.9940901 -35.38567093 167.9141544 -27 164 C-25.92363281 163.49855469 -24.84726562 162.99710938 -23.73828125 162.48046875 C-10.33462386 155.41178428 4.12196901 142.01558283 9.90234375 127.77734375 C11.0613311 125.29754818 11.88934695 123.76486521 14 122 C18.40606402 121.3085374 22.57739588 121.53378112 27 122 C25.53012914 128.14673271 22.94033413 133.42234327 20 139 C19.34 139 18.68 139 18 139 C17.74347656 139.72703125 17.48695313 140.4540625 17.22265625 141.203125 C10.19958044 157.26869139 -9.01846973 171.51847162 -25 178 C-54.37975906 189.28426732 -87.69326541 190.11000166 -116.8203125 177.48828125 C-123.85441856 174.19590483 -130.14078878 170.31757231 -136.5 165.875 C-137.43694702 165.2267627 -137.43694702 165.2267627 -138.39282227 164.56542969 C-142.88114918 161.35655247 -142.88114918 161.35655247 -144 158 C-145.32586988 157.31861077 -146.66047258 156.65413188 -148 156 C-162.35953529 142.26221778 -170.86130971 124.19778615 -175 105 C-175.17442627 104.27441895 -175.34885254 103.54883789 -175.52856445 102.80126953 C-180.68851182 79.96821387 -177.37450623 53.9405418 -167 33 C-166.52949219 32.030625 -166.05898438 31.06125 -165.57421875 30.0625 C-164.4068312 27.69484075 -163.21767511 25.34208149 -162 23 C-161.34 23 -160.68 23 -160 23 C-159.74347656 22.27296875 -159.48695313 21.5459375 -159.22265625 20.796875 C-151.45606192 3.0304803 -131.1989188 -9.89561001 -114 -17 C-112.84564453 -17.54914063 -112.84564453 -17.54914063 -111.66796875 -18.109375 C-74.55146353 -35.01006039 -30.67193758 -24.04714321 0 0 Z M-134 10 C-135.16789063 11.09828125 -135.16789063 11.09828125 -136.359375 12.21875 C-153.71216444 28.77762097 -161.02747287 47.21978295 -164 71 C-102.62 71 -41.24 71 22 71 C19.59714754 44.56862297 7.8537236 23.50134172 -12.3125 6.25 C-46.03966924 -20.29810036 -102.86524849 -22.93296324 -134 10 Z " fill="#23516A" transform="translate(898,247)"/>
<path d="M0 0 C0.64195312 0.39445312 1.28390625 0.78890625 1.9453125 1.1953125 C3.33708838 2.06921828 4.67697421 3.02513889 6 4 C6 4.66 6 5.32 6 6 C6.721875 6.226875 7.44375 6.45375 8.1875 6.6875 C11.57685109 8.26919718 13.5424688 10.20114502 16 13 C16.33 13.99 16.66 14.98 17 16 C17.60714844 16.29390625 18.21429687 16.5878125 18.83984375 16.890625 C21.67259367 18.34541881 22.78524423 20.12586396 24.5625 22.75 C25.43068359 24.01070313 25.43068359 24.01070313 26.31640625 25.296875 C28.05809871 28.09328146 29.52667847 31.05335694 31 34 C31.33 18.82 31.66 3.64 32 -12 C35.96 -12 39.92 -12 44 -12 C44 54.33 44 120.66 44 189 C40.04 189 36.08 189 32 189 C31.67 173.82 31.34 158.64 31 143 C28.525 147.455 28.525 147.455 26 152 C24.66019095 153.89504523 23.27227917 155.75824683 21.8125 157.5625 C21.13832031 158.40941406 20.46414063 159.25632812 19.76953125 160.12890625 C19.18558594 160.74636719 18.60164063 161.36382812 18 162 C17.34 162 16.68 162 16 162 C15.731875 162.639375 15.46375 163.27875 15.1875 163.9375 C14 166 14 166 11 167 C10.7009375 167.61101562 10.401875 168.22203125 10.09375 168.8515625 C7.88729717 173.18566628 2.97821914 175.41189721 -1 178 C-1.7425 178.50789062 -2.485 179.01578125 -3.25 179.5390625 C-27.132766 195.04627515 -58.4130988 197.83492895 -85.875 192.375 C-98.22088522 189.64077712 -109.38316102 184.89129366 -120 178 C-120.91523437 177.48824219 -121.83046875 176.97648438 -122.7734375 176.44921875 C-123.50820313 175.97097656 -124.24296875 175.49273437 -125 175 C-125 174.34 -125 173.68 -125 173 C-126.07314453 172.6596875 -126.07314453 172.6596875 -127.16796875 172.3125 C-138.80628794 166.91874104 -148.48136012 151.83736659 -153.69921875 140.7265625 C-155.01390792 137.84043682 -155.01390792 137.84043682 -157.0625 134.6875 C-164.96894285 121.0910648 -166.38718783 104.61008478 -166.3125 89.25 C-166.30686035 88.02571289 -166.3012207 86.80142578 -166.29541016 85.54003906 C-165.96089964 60.46831044 -158.15567327 37.91601354 -141.8125 18.625 C-141.33562744 18.06208252 -140.85875488 17.49916504 -140.36743164 16.91918945 C-136.31160728 12.21357039 -132.04163082 7.66764791 -127 4 C-126.34 4 -125.68 4 -125 4 C-125 3.34 -125 2.68 -125 2 C-122.67268092 0.65532675 -120.3389208 -0.67569816 -118 -2 C-117.17757812 -2.47050781 -116.35515625 -2.94101563 -115.5078125 -3.42578125 C-79.66355027 -23.52973702 -34.63597349 -22.45629051 0 0 Z M-128.87890625 22.70703125 C-130.21836811 23.96662599 -130.21836811 23.96662599 -130 26 C-130.58265625 26.2165625 -131.1653125 26.433125 -131.765625 26.65625 C-134.74068202 28.44544513 -135.93794012 30.55733865 -137.75 33.5 C-138.36359375 34.4796875 -138.9771875 35.459375 -139.609375 36.46875 C-141.16050111 38.81079974 -141.16050111 38.81079974 -141 41 C-141.66 41 -142.32 41 -143 41 C-149.53629924 53.62757386 -153.74001318 67.74072308 -154 82 C-154.02707031 82.97066406 -154.05414062 83.94132812 -154.08203125 84.94140625 C-154.12541013 87.96609714 -154.07773427 90.97613683 -154 94 C-153.99484375 94.98226562 -153.9896875 95.96453125 -153.984375 96.9765625 C-153.20408835 118.99179306 -141.74592567 142.22173098 -126.33984375 157.6640625 C-111.67143207 171.30475107 -93.66596458 179.29863124 -74 182 C-73.13632813 182.13019531 -72.27265625 182.26039063 -71.3828125 182.39453125 C-69.25212236 182.67887602 -67.14520341 182.86792591 -65 183 C-64.2471875 183.05285156 -63.494375 183.10570312 -62.71875 183.16015625 C-38.35388496 184.02495856 -15.23822826 175.46866309 2.75 159.125 C10.73332428 151.63896716 16.54652668 143.46522381 22 134 C22.75023437 132.79150391 22.75023437 132.79150391 23.515625 131.55859375 C35.36390125 111.13590706 35.84627123 83.38506484 30 61 C22.52261396 36.90058689 6.1562123 17.00273548 -16 5 C-18.96175155 3.56517437 -21.96205602 2.26366091 -25 1 C-26.09183594 0.50113281 -27.18367188 0.00226563 -28.30859375 -0.51171875 C-63.93219477 -14.87424996 -101.91727619 -1.78825427 -128.87890625 22.70703125 Z " fill="#23516A" transform="translate(1121,239)"/>
<path d="M0 0 C0 9.9 0 19.8 0 30 C-2.3925 30.391875 -4.785 30.78375 -7.25 31.1875 C-17.42687256 33.00364837 -26.11455349 36.78462922 -35 42 C-35.66 42 -36.32 42 -37 42 C-37.226875 42.556875 -37.45375 43.11375 -37.6875 43.6875 C-39.37550036 46.66159588 -41.46676517 48.72008865 -44 51 C-44.66 51 -45.32 51 -46 51 C-46.27972656 51.72832031 -46.55945313 52.45664062 -46.84765625 53.20703125 C-47.91662515 55.79792197 -49.12490428 58.21360465 -50.4375 60.6875 C-59.61802409 79.07554972 -58.32538455 100.00530781 -58.4140625 120.03125 C-58.43175376 122.72124658 -58.45228734 125.41121953 -58.4727478 128.10119629 C-58.51917075 134.41529776 -58.55608892 140.72941597 -58.58942068 147.04359865 C-58.62790318 154.24340236 -58.67724298 161.4431196 -58.72740483 168.64284992 C-58.83018065 183.42850387 -58.91818195 198.21421386 -59 213 C-67.91 213 -76.82 213 -86 213 C-86 144.69 -86 76.38 -86 6 C-77.09 6 -68.18 6 -59 6 C-58.67 14.25 -58.34 22.5 -58 31 C-56.96875 29.30875 -55.9375 27.6175 -54.875 25.875 C-51.95566105 21.28577549 -49.12078619 17.54579277 -45 14 C-44.34 14 -43.68 14 -43 14 C-43 13.34 -43 12.68 -43 12 C-40.48287811 10.70064536 -37.96170913 9.41045628 -35.4375 8.125 C-34.73302734 7.76019531 -34.02855469 7.39539063 -33.30273438 7.01953125 C-25.9245829 3.27945447 -18.86766304 1.68834954 -10.6875 0.875 C-9.87732422 0.78863281 -9.06714844 0.70226562 -8.23242188 0.61328125 C-2.38678075 0 -2.38678075 0 0 0 Z " fill="#23516A" transform="translate(376,215)"/>
<path d="M0 0 C3.86648711 1.05040288 6.95385863 3.17502454 10.24267578 5.40478516 C11.58690805 6.28754521 12.93195393 7.16906766 14.27783203 8.04931641 C14.93380371 8.48236084 15.58977539 8.91540527 16.265625 9.36157227 C18.57883148 10.8485493 20.95811069 12.20767651 23.35571289 13.5534668 C26.92947924 15.588309 30.42402123 17.75624887 33.93017578 19.90478516 C34.7272998 20.39261475 35.52442383 20.88044434 36.34570312 21.38305664 C41.37419228 24.46702649 46.37234169 27.59296574 51.33642578 30.77978516 C55.67149642 33.54279721 60.04272945 36.24761866 64.40795898 38.96264648 C67.98243775 41.19332981 71.5143586 43.46304127 74.99267578 45.84228516 C78.19727318 48.02584 81.4963103 49.85348786 84.93017578 51.65478516 C89.1121672 53.88049487 92.10594892 56.00568715 95.18017578 59.59228516 C95.51017578 59.92228516 95.84017578 60.25228516 96.18017578 60.59228516 C97.09252748 67.32087892 97.09252748 67.32087892 94.96923828 70.27978516 C89.44510258 75.25928776 82.54428628 78.16811938 75.76611328 81.03759766 C72.3749066 82.50785938 69.0976167 84.10167665 65.80517578 85.77978516 C60.48864411 88.46658013 55.13537507 91.06189298 49.74267578 93.59228516 C49.02547363 93.92905273 48.30827148 94.26582031 47.56933594 94.61279297 C44.17416481 96.20286861 40.77411707 97.78111419 37.36376953 99.33837891 C30.70335423 102.3907762 24.19110898 105.61205045 17.74267578 109.09228516 C12.04537092 112.16157332 6.29839257 115.00036753 0.36767578 117.59228516 C-0.29611084 117.88296875 -0.95989746 118.17365234 -1.64379883 118.47314453 C-4.66197943 119.76603559 -7.59428091 120.94230162 -10.81982422 121.59228516 C-11.76974185 118.74253227 -11.94950053 116.96880883 -11.96026611 114.01321411 C-11.96883133 112.60428894 -11.96883133 112.60428894 -11.97756958 111.16690063 C-11.97868744 110.13825897 -11.9798053 109.10961731 -11.98095703 108.04980469 C-11.98592194 106.96499817 -11.99088684 105.88019165 -11.9960022 104.76251221 C-12.01063131 101.16670095 -12.01742675 97.5709338 -12.02294922 93.97509766 C-12.02869961 91.4802958 -12.03445736 88.98549396 -12.04022217 86.49069214 C-12.04938996 81.92601089 -12.05568971 77.36134232 -12.05871892 72.79665291 C-12.06275402 66.74978276 -12.07504043 60.70306776 -12.10107422 54.65625 C-12.12857616 48.168888 -12.1414651 41.68165926 -12.14339447 35.19424057 C-12.14642477 32.71987677 -12.15446591 30.24551392 -12.16757965 27.77118301 C-12.18460664 24.31181602 -12.18276794 20.85294642 -12.17626953 17.39355469 C-12.18548431 16.36896149 -12.1946991 15.34436829 -12.20419312 14.28872681 C-12.15236249 5.49457839 -12.15236249 5.49457839 -8.81982422 1.59228516 C-5.44741406 -0.65598829 -3.92035904 -0.61202405 0 0 Z " fill="#6B0F3C" transform="translate(1632.81982421875,306.40771484375)"/>
<path d="M0 0 C3.01742336 1.93872742 6.07754771 3.80204265 9.13964844 5.66943359 C19.37609178 11.91765226 25.37373408 16.61760558 29.01464844 28.29443359 C29.50049371 31.59176587 29.49089649 34.78021198 29.38964844 38.10693359 C29.37530762 39.02764648 29.3609668 39.94835937 29.34619141 40.89697266 C29.16326137 49.12204912 28.67080373 57.33552774 28.13964844 65.54443359 C28.06149902 66.75719971 27.98334961 67.96996582 27.90283203 69.21948242 C26.75279416 85.10781634 26.75279416 85.10781634 25.01464844 89.29443359 C21.90452038 91.40094757 19.03492661 91.58629726 15.30761719 91.75537109 C11.80652231 91.05157349 9.01733562 89.14168961 6.01464844 87.29443359 C4.891875 86.63185547 3.76910156 85.96927734 2.61230469 85.28662109 C-19.48791608 72.08312395 -19.48791608 72.08312395 -29.79785156 65.04443359 C-32.79590076 63.01169581 -35.85481692 61.2541727 -39.05566406 59.56005859 C-44.89764832 56.3983427 -50.47381042 52.90278814 -56.04785156 49.29443359 C-62.26631023 45.28591274 -68.50004071 41.34112309 -74.88330078 37.59887695 C-79.16469698 34.94202447 -81.54320933 32.78666362 -82.98535156 27.91943359 C-82.98535156 23.50299047 -81.97417144 21.19252055 -79.98535156 17.29443359 C-78.99535156 17.29443359 -78.00535156 17.29443359 -76.98535156 17.29443359 C-76.98535156 16.63443359 -76.98535156 15.97443359 -76.98535156 15.29443359 C-74.71972656 13.60302734 -74.71972656 13.60302734 -71.73535156 11.73193359 C-70.76082031 11.11189453 -69.78628906 10.49185547 -68.78222656 9.85302734 C-66.41715548 8.53506175 -64.623444 7.75295918 -61.98535156 7.29443359 C-61.98535156 6.63443359 -61.98535156 5.97443359 -61.98535156 5.29443359 C-59.88854596 3.78376673 -57.80417148 2.40116022 -55.61035156 1.04443359 C-54.65394775 0.44489868 -54.65394775 0.44489868 -53.67822266 -0.16674805 C-52.38678246 -0.97410102 -51.09332917 -1.77824305 -49.79785156 -2.57910156 C-48.22500383 -3.55662304 -46.66631086 -4.55684947 -45.11035156 -5.56103516 C-27.92600104 -16.43550697 -15.41066423 -9.98677887 0 0 Z " fill="#990E65" transform="translate(1715.9853515625,266.70556640625)"/>
<path d="M0 0 C1.05912598 0.44883545 1.05912598 0.44883545 2.13964844 0.90673828 C5.48339869 2.33223181 8.80986563 3.78968026 12.12109375 5.2890625 C18.93933921 8.34109797 25.93333571 10.97687761 32.890625 13.69140625 C34.09460937 14.16126953 35.29859375 14.63113281 36.5390625 15.11523438 C38.40357934 15.84239594 40.26810907 16.56952912 42.13378906 17.29370117 C43.97042736 18.00696573 45.80554349 18.7241459 47.640625 19.44140625 C48.71860352 19.86107666 49.79658203 20.28074707 50.90722656 20.71313477 C54.04435573 22.01845588 57.05766993 23.29553555 60 25 C60.875 28.1875 60.875 28.1875 61 31 C57.64206966 32.99651187 54.90035114 33.32928979 51.0234375 33.52734375 C49.20803467 33.62982422 49.20803467 33.62982422 47.35595703 33.734375 C46.04224121 33.80140625 44.72852539 33.8684375 43.375 33.9375 C40.54647549 34.09631082 37.71850349 34.26369514 34.890625 34.43359375 C34.15937408 34.4771701 33.42812317 34.52074646 32.67471313 34.56564331 C24.80977234 35.04850939 16.97014557 35.77014267 9.125 36.5 C-2.75900232 37.59780698 -14.63515872 38.448014 -26.5506897 39.11474609 C-37.78855921 39.7484775 -48.98317919 40.66058078 -60.19055176 41.69674683 C-71.37437353 42.72712337 -82.55634878 43.52672615 -93.76821899 44.18011475 C-103.17457841 44.72894749 -112.5388591 45.46667138 -121.91552734 46.38647461 C-128.30134537 46.99231499 -134.58243183 47.24370512 -141 47 C-141 46.34 -141 45.68 -141 45 C-133.48521468 40.84311444 -125.96782512 36.86759023 -118.0625 33.5 C-110.55661702 30.30014279 -103.28599072 26.72838237 -96.01757812 23.02490234 C-92.60381613 21.29075751 -89.17627459 19.58425077 -85.75 17.875 C-82.02133076 16.01315448 -78.29423503 14.14862727 -74.57421875 12.26953125 C-73.53910156 11.74746094 -72.50398438 11.22539062 -71.4375 10.6875 C-70.54933594 10.23761719 -69.66117188 9.78773438 -68.74609375 9.32421875 C-66.71616225 8.34534709 -64.65600249 7.42860906 -62.58203125 6.546875 C-59.05081277 5.02194314 -55.66564008 3.32934608 -52.25 1.5625 C-49.841055 0.35818659 -47.4222595 -0.82232687 -45 -2 C-44.09121094 -2.4434375 -43.18242188 -2.886875 -42.24609375 -3.34375 C-27.73870482 -9.54538191 -13.80024962 -5.90937044 0 0 Z " fill="#EF592A" transform="translate(1773,387)"/>
<path d="M0 0 C8.24135267 1.90185062 14.2683139 8.1091004 20 14 C21.2375 14.99 21.2375 14.99 22.5 16 C25 18 25 18 27.1875 20.25 C30.43390166 23.42425941 33.91409457 26.15842329 37.5 28.9375 C40.1779751 31.14682946 42.56267298 33.52892538 45 36 C46.86385986 37.7411688 48.73899052 39.47034812 50.625 41.1875 C51.56601563 42.04730469 52.50703125 42.90710938 53.4765625 43.79296875 C55.98743196 46.08568148 55.98743196 46.08568148 59 48 C59 48.66 59 49.32 59 50 C59.59941406 50.26039063 60.19882813 50.52078125 60.81640625 50.7890625 C66.9931391 54.21444208 70.40351554 61.9212536 72.94784546 68.21817017 C75.16098762 76.1730159 74.72624098 84.43731548 74.70703125 92.63671875 C74.72019051 94.6447751 74.73550741 96.65281834 74.75285339 98.6608429 C74.79256337 103.9333086 74.80287732 109.20542985 74.80688477 114.47802734 C74.81612978 119.76215522 74.85368746 125.04606932 74.88867188 130.33007812 C74.95974975 141.88670892 74.9883881 153.44317237 75 165 C75.00090385 165.76322823 75.00180771 166.52645645 75.00273895 167.31281281 C75.01165443 174.87522601 75.0130997 182.43759008 75 190 C74.34 190 73.68 190 73 190 C72.24686962 188.37644845 71.49771415 186.75105306 70.75 185.125 C70.33234375 184.22007812 69.9146875 183.31515625 69.484375 182.3828125 C66.43034859 175.42284704 63.72836486 168.32711738 61.05786133 161.21289062 C58.29870405 153.86596607 55.49147988 146.61132951 52.13671875 139.51171875 C50.84240217 136.65176836 49.73074457 133.75041679 48.625 130.8125 C46.76495348 125.87375579 44.72226564 121.06142891 42.5625 116.25 C39.72940489 109.92149784 37.30704298 103.51726818 35.12915039 96.93457031 C33.71648779 92.73712023 31.99117364 88.88612877 29.96166992 84.95166016 C28.48225365 81.94926015 27.38018682 78.83540271 26.25 75.6875 C24.03703853 69.63444162 21.65155787 63.67880121 19.125 57.75 C15.96296742 50.3265251 12.90892408 42.86785103 9.94555664 35.36279297 C8.34531293 31.31952904 6.71287466 27.29946267 4.9765625 23.3125 C1.75741849 15.8824677 -1 9.24313533 -1 1 C-0.67 0.67 -0.34 0.34 0 0 Z " fill="#23516A" transform="translate(1542,234)"/>
<path d="M0 0 C54.78 0 109.56 0 166 0 C166 3.63 166 7.26 166 11 C165.67 11.33 165.34 11.66 165 12 C139.92 12 114.84 12 89 12 C89 100.44 89 188.88 89 280 C85.04 280 81.08 280 77 280 C77 191.56 77 103.12 77 12 C51.92 12 26.84 12 1 12 C0.67 11.67 0.34 11.34 0 11 C0 7.37 0 3.74 0 0 Z " fill="#23516A" transform="translate(599,148)"/>
<path d="M0 0 C5.63509615 1.2075206 8.54007075 5.51358431 11.70703125 9.9765625 C12.625 11.5625 12.625 11.5625 12.625 13.5625 C13.615 13.8925 14.605 14.2225 15.625 14.5625 C16.3125 16.625 16.3125 16.625 16.625 18.5625 C17.285 18.5625 17.945 18.5625 18.625 18.5625 C20.28125 20.35546875 20.28125 20.35546875 22.125 22.75 C22.7334375 23.52730469 23.341875 24.30460937 23.96875 25.10546875 C25.625 27.5625 25.625 27.5625 26.65625 30.30078125 C26.9759375 31.04714844 27.295625 31.79351562 27.625 32.5625 C28.615 32.8925 29.605 33.2225 30.625 33.5625 C31.3125 35.625 31.3125 35.625 31.625 37.5625 C32.285 37.5625 32.945 37.5625 33.625 37.5625 C35.42039556 39.6522227 37.09561442 41.74092082 38.75 43.9375 C39.21792969 44.54078125 39.68585938 45.1440625 40.16796875 45.765625 C43.625 50.30108874 43.625 50.30108874 43.625 52.5625 C44.285 52.5625 44.945 52.5625 45.625 52.5625 C45.955 53.5525 46.285 54.5425 46.625 55.5625 C47.93250626 56.92116955 49.27022316 58.25096072 50.625 59.5625 C52.06584181 61.25049351 53.4823254 62.95955189 54.875 64.6875 C55.58140625 65.55632812 56.2878125 66.42515625 57.015625 67.3203125 C58.625 69.5625 58.625 69.5625 58.625 71.5625 C59.285 71.5625 59.945 71.5625 60.625 71.5625 C61.0271875 72.4596875 61.0271875 72.4596875 61.4375 73.375 C62.64487193 75.59910618 63.84456066 76.78622056 65.625 78.5625 C66.95471266 80.17344553 68.2658191 81.79984927 69.5625 83.4375 C70.23152344 84.28054688 70.90054687 85.12359375 71.58984375 85.9921875 C72.26144531 86.84039062 72.93304687 87.68859375 73.625 88.5625 C74.74068359 89.89667969 74.74068359 89.89667969 75.87890625 91.2578125 C77.625 93.5625 77.625 93.5625 77.625 95.5625 C78.285 95.5625 78.945 95.5625 79.625 95.5625 C82.6903951 100.95759537 82.6903951 100.95759537 82.375 103.875 C81.625 105.5625 81.625 105.5625 80.625 106.5625 C73.03523016 106.27058578 66.58053362 103.43419984 59.625 100.5625 C58.67753906 100.17964844 57.73007813 99.79679687 56.75390625 99.40234375 C52.2786464 97.57127349 47.8411216 95.66788198 43.43359375 93.6796875 C36.148135 90.39463091 28.89619475 87.21046482 21.375 84.5 C13.80307393 81.76968367 6.74090115 78.3205853 -0.375 74.5625 C-0.375 73.9025 -0.375 73.2425 -0.375 72.5625 C-1.035 72.5625 -1.695 72.5625 -2.375 72.5625 C-3.62890625 70.953125 -3.62890625 70.953125 -4.9375 68.8125 C-5.58912109 67.76835937 -5.58912109 67.76835937 -6.25390625 66.703125 C-8.57171355 62.27748598 -8.54363453 57.95999154 -8.51953125 53.046875 C-8.51717972 52.30411316 -8.51482819 51.56135132 -8.5124054 50.79608154 C-8.43687514 42.61415051 -7.9044728 34.47363148 -7.25805664 26.31933594 C-7.05946853 23.77363967 -6.88206691 21.22696647 -6.70507812 18.6796875 C-6.57939868 17.04156845 -6.45249255 15.40354294 -6.32421875 13.765625 C-6.27408127 13.01355774 -6.22394379 12.26149048 -6.17228699 11.4866333 C-5.76725624 6.71079489 -5.29384504 1.2538054 0 0 Z " fill="#F4911E" transform="translate(1758.375,299.4375)"/>
<path d="M0 0 C5.26671191 0.04732604 9.81738379 1.01536992 14.875 2.40234375 C18.49603571 3.32895312 22.13016061 4.00387722 25.8125 4.625 C34.45428397 6.09413328 43.05714431 7.74360094 51.66259766 9.41137695 C57.6660421 10.5742537 63.67218901 11.71279779 69.6875 12.8125 C75.9808258 13.98258263 82.21688447 15.34428611 88.45654297 16.76757812 C92.86883758 17.76528997 97.28364828 18.6561161 101.73803711 19.44458008 C114.60947825 21.72741658 114.60947825 21.72741658 119.1875 24.25 C120.375 27.1875 120.375 27.1875 120.1875 30.25 C118.875 32.625 118.875 32.625 117.1875 34.25 C116.5275 34.25 115.8675 34.25 115.1875 34.25 C115.1875 34.91 115.1875 35.57 115.1875 36.25 C113.5078125 37.5390625 113.5078125 37.5390625 111.3125 38.875 C110.59320312 39.32101562 109.87390625 39.76703125 109.1328125 40.2265625 C107.1875 41.25 107.1875 41.25 105.1875 41.25 C105.1875 41.91 105.1875 42.57 105.1875 43.25 C103.5375 43.58 101.8875 43.91 100.1875 44.25 C100.1875 44.91 100.1875 45.57 100.1875 46.25 C98.090664 47.76068876 96.00650859 49.14350443 93.8125 50.5 C93.17344727 50.89968994 92.53439453 51.29937988 91.87597656 51.71118164 C90.58284361 52.51817317 89.28792747 53.32231459 87.99121094 54.12353516 C86.43932269 55.09273012 84.90877791 56.09595125 83.3828125 57.10546875 C76.5006811 61.5579659 69.84094183 64.11317395 61.5625 62.75 C53.56460088 60.52291425 47.81586605 54.09518918 41.859375 48.62890625 C38.14638546 45.32304276 34.25400253 42.2585672 30.33984375 39.1953125 C28.1875 37.25 28.1875 37.25 27.1875 34.25 C25.87647426 33.54046936 24.53775753 32.8816857 23.1875 32.25 C21.5132848 31.01679759 19.86908147 29.74224516 18.25 28.4375 C17.41597656 27.77105469 16.58195312 27.10460937 15.72265625 26.41796875 C13.06720015 24.14712417 10.64676513 21.73138746 8.1875 19.25 C5.95680177 17.14559991 3.69787828 15.07243672 1.4375 13 C-5.80794151 6.34116972 -5.80794151 6.34116972 -5.9375 3.75 C-5.72148821 -0.57023581 -3.88008972 0.06661098 0 0 Z " fill="#13A69C" transform="translate(1553.8125,221.75)"/>
<path d="M0 0 C3.96 0 7.92 0 12 0 C12 17.49 12 34.98 12 53 C17.61 53 23.22 53 29 53 C29 35.51 29 18.02 29 0 C32.63 0 36.26 0 40 0 C40 17.49 40 34.98 40 53 C49.89508827 52.73116033 49.89508827 52.73116033 54.0625 50.5625 C60.31274869 42.29604205 58.44894091 28.27282169 58.625 18.375 C58.66325141 16.58982619 58.7023071 14.80466942 58.7421875 13.01953125 C58.83740448 8.67982855 58.92171508 4.34003981 59 0 C62.63 0 66.26 0 70 0 C70.09934204 6.52868276 70.17169256 13.0569194 70.21972656 19.58618164 C70.239764 21.80435863 70.26700173 24.02248332 70.30175781 26.24047852 C70.35062253 29.44039872 70.37304812 32.63961674 70.390625 35.83984375 C70.41127014 36.82145981 70.43191528 37.80307587 70.45318604 38.81443787 C70.45560897 46.35531054 68.77199122 52.22631195 64.28125 58.33984375 C54.27507135 67.31468381 39.45086592 65.2869103 26.83300781 65.20581055 C23.84692007 65.18732618 20.86113952 65.18530291 17.875 65.18554688 C15.9765598 65.18063879 14.0781217 65.17481359 12.1796875 65.16796875 C11.28708221 65.16685593 10.39447693 65.1657431 9.474823 65.16459656 C3.23229291 65.11614645 3.23229291 65.11614645 1 64 C-0.0361292 60.33019133 -0.12165328 56.81208 -0.11352539 53.01635742 C-0.11344986 51.83551071 -0.11337433 50.654664 -0.11329651 49.43803406 C-0.10813522 48.17328751 -0.10297394 46.90854095 -0.09765625 45.60546875 C-0.0962413 44.30297684 -0.09482635 43.00048492 -0.09336853 41.65852356 C-0.08956355 38.20783546 -0.07975064 34.75718992 -0.06866455 31.30651855 C-0.05840689 27.78052343 -0.0538616 24.25452139 -0.04882812 20.72851562 C-0.03812644 13.81899124 -0.02054612 6.90950205 0 0 Z " fill="#231F20" transform="translate(939,554)"/>
<path d="M0 0 C3.96 0 7.92 0 12 0 C12 17.49 12 34.98 12 53 C17.61 53 23.22 53 29 53 C29 35.51 29 18.02 29 0 C32.63 0 36.26 0 40 0 C40 17.49 40 34.98 40 53 C50.06579037 52.95138775 50.06579037 52.95138775 54.0625 50 C58.14255308 43.68249846 58.30592504 36.15510581 58.4140625 28.80859375 C58.43342865 27.97787857 58.4527948 27.14716339 58.4727478 26.29127502 C58.53187615 23.67344998 58.57865804 21.05557934 58.625 18.4375 C58.66324143 16.64776873 58.7022966 14.85805464 58.7421875 13.06835938 C58.83752143 8.71238148 58.92179419 4.35631769 59 0 C62.63 0 66.26 0 70 0 C70.09934204 6.52868276 70.17169256 13.0569194 70.21972656 19.58618164 C70.239764 21.80435863 70.26700173 24.02248332 70.30175781 26.24047852 C70.35062253 29.44039872 70.37304812 32.63961674 70.390625 35.83984375 C70.41127014 36.82145981 70.43191528 37.80307587 70.45318604 38.81443787 C70.45549454 45.99914746 69.3097305 52.49608859 64.22027588 57.88414001 C55.76971422 65.51475583 46.66705236 65.15762249 35.78515625 65.1328125 C34.84820419 65.13376923 33.91125214 65.13472595 32.94590759 65.13571167 C30.98371309 65.13638739 29.02151628 65.1345759 27.05932617 65.13037109 C24.04666206 65.12497161 21.03414417 65.13035828 18.02148438 65.13671875 C16.10937467 65.13605869 14.19726506 65.13477902 12.28515625 65.1328125 C11.3831398 65.13483673 10.48112335 65.13686096 9.55177307 65.13894653 C8.72008102 65.13579437 7.88838898 65.13264221 7.03149414 65.12939453 C6.29919083 65.12859894 5.56688751 65.12780334 4.81239319 65.12698364 C3 65 3 65 1 64 C-0.0361292 60.33019133 -0.12165328 56.81208 -0.11352539 53.01635742 C-0.11344986 51.83551071 -0.11337433 50.654664 -0.11329651 49.43803406 C-0.10813522 48.17328751 -0.10297394 46.90854095 -0.09765625 45.60546875 C-0.0962413 44.30297684 -0.09482635 43.00048492 -0.09336853 41.65852356 C-0.08956355 38.20783546 -0.07975064 34.75718992 -0.06866455 31.30651855 C-0.05840689 27.78052343 -0.0538616 24.25452139 -0.04882812 20.72851562 C-0.03812644 13.81899124 -0.02054612 6.90950205 0 0 Z " fill="#231F20" transform="translate(746,554)"/>
<path d="M0 0 C18.15 0 36.3 0 55 0 C55 21.12 55 42.24 55 64 C52.52729976 65.23635012 50.88833428 65.12693785 48.12304688 65.12939453 C46.60136902 65.13412277 46.60136902 65.13412277 45.0489502 65.13894653 C43.94998413 65.1369223 42.85101807 65.13489807 41.71875 65.1328125 C40.59432495 65.13376923 39.4698999 65.13472595 38.31140137 65.13571167 C35.93074487 65.13639308 33.55008653 65.13454149 31.16943359 65.13037109 C27.51525722 65.12502233 23.86120377 65.13031742 20.20703125 65.13671875 C17.89843723 65.13605796 15.58984328 65.13477679 13.28125 65.1328125 C12.18228394 65.13483673 11.08331787 65.13686096 9.9510498 65.13894653 C8.9365979 65.13579437 7.922146 65.13264221 6.87695312 65.12939453 C5.98141724 65.12859894 5.08588135 65.12780334 4.16320801 65.12698364 C2 65 2 65 0 64 C0 42.88 0 21.76 0 0 Z M11 11 C11 24.86 11 38.72 11 53 C21.89 53 32.78 53 44 53 C44 39.14 44 25.28 44 11 C33.11 11 22.22 11 11 11 Z " fill="#231F20" transform="translate(639,554)"/>
<path d="M0 0 C0.95708359 0.00222061 1.91416718 0.00444122 2.9002533 0.00672913 C3.98129837 0.00680466 5.06234344 0.00688019 6.17614746 0.00695801 C7.94018166 0.01469994 7.94018166 0.01469994 9.73985291 0.02259827 C10.93702438 0.02401321 12.13419586 0.02542816 13.36764526 0.02688599 C17.20918732 0.03250472 21.05067208 0.04506041 24.89219666 0.05775452 C27.48920102 0.0627671 30.0862063 0.06733043 32.68321228 0.07142639 C39.06539344 0.08248024 45.44754096 0.0992366 51.82969666 0.12025452 C51.8528235 8.44754399 51.87061348 16.77482014 51.88150883 25.10213375 C51.88673691 28.96845569 51.89383319 32.83475573 51.90513611 36.70106506 C51.91596765 40.42928852 51.92197405 44.15749086 51.9245739 47.88572884 C51.92642767 49.31115107 51.93004736 50.7365721 51.93542671 52.1619854 C51.94264058 54.15188859 51.94310474 56.14181286 51.94322205 58.13172913 C51.94544266 59.26646164 51.94766327 60.40119415 51.94995117 61.5703125 C51.82969666 64.12025452 51.82969666 64.12025452 50.82969666 65.12025452 C49.21389657 65.22408041 47.59359041 65.25877695 45.97447205 65.26551819 C44.93992386 65.27189804 43.90537567 65.27827789 42.83947754 65.28485107 C41.15047585 65.28652031 41.15047585 65.28652031 39.42735291 65.28822327 C38.27931686 65.29155167 37.13128082 65.29488007 35.94845581 65.29830933 C33.51474917 65.30338353 31.08103554 65.3057175 28.64732361 65.30555725 C24.91177473 65.30774306 21.17652131 65.32589197 17.44102478 65.34486389 C15.08230184 65.34779776 12.72357748 65.3497826 10.36485291 65.35072327 C9.24087601 65.35790878 8.11689911 65.3650943 6.9588623 65.37249756 C5.92116196 65.36942093 4.88346161 65.3663443 3.8143158 65.36317444 C2.89799881 65.36459946 1.98168182 65.36602448 1.03759766 65.36749268 C-1.17030334 65.12025452 -1.17030334 65.12025452 -3.17030334 63.12025452 C-3.4175415 60.53271484 -3.4175415 60.53271484 -3.41322327 57.21766663 C-3.4162999 55.97975876 -3.41937653 54.74185089 -3.42254639 53.46643066 C-3.41564917 52.11015132 -3.40838224 50.7538738 -3.40077209 49.39759827 C-3.39958037 48.01279747 -3.39912712 46.62799586 -3.39938354 45.24319458 C-3.39781852 42.34042809 -3.38952673 39.43778491 -3.37611389 36.53504944 C-3.35910814 32.80671595 -3.35529998 29.07851784 -3.35605907 25.35015011 C-3.35578771 22.49093321 -3.35031222 19.63174614 -3.34305763 16.77253914 C-3.33986677 15.39736215 -3.33790259 14.02218176 -3.33716393 12.64700127 C-3.33500569 10.72913784 -3.32547629 8.81128692 -3.31556702 6.89344788 C-3.31175522 5.80027756 -3.30794342 4.70710724 -3.30401611 3.58081055 C-3.13414526 0.45488058 -3.11275699 0.17247501 0 0 Z M7.82969666 11.12025452 C7.82969666 24.98025452 7.82969666 38.84025452 7.82969666 53.12025452 C18.71969666 53.12025452 29.60969666 53.12025452 40.82969666 53.12025452 C40.82969666 39.26025452 40.82969666 25.40025452 40.82969666 11.12025452 C29.93969666 11.12025452 19.04969666 11.12025452 7.82969666 11.12025452 Z " fill="#242021" transform="translate(1066.1703033447266,553.8797454833984)"/>
<path d="M0 0 C17.82 0 35.64 0 54 0 C54.04010881 15.93211037 54.04010881 15.93211037 54.04882812 22.70117188 C54.05481579 27.3277297 54.06191404 31.95426782 54.07543945 36.58081055 C54.086271 40.30903401 54.0922774 44.03723634 54.09487724 47.76547432 C54.09673101 49.19089656 54.10035071 50.61631759 54.10573006 52.04173088 C54.11294393 54.03163408 54.11340808 56.02155834 54.11352539 58.01147461 C54.115746 59.14620712 54.11796661 60.28093964 54.12025452 61.45005798 C54 64 54 64 53 65 C51.37872577 65.09861598 49.75317632 65.12798767 48.12890625 65.12939453 C46.57224243 65.13412277 46.57224243 65.13412277 44.98413086 65.13894653 C43.29042358 65.13591019 43.29042358 65.13591019 41.5625 65.1328125 C39.83688843 65.13424759 39.83688843 65.13424759 38.07641602 65.13571167 C35.63850856 65.13639369 33.2005993 65.1345379 30.76269531 65.13037109 C27.01623482 65.12502317 23.26989423 65.13031539 19.5234375 65.13671875 C17.16145807 65.13605797 14.79947871 65.13477682 12.4375 65.1328125 C11.30836182 65.13483673 10.17922363 65.13686096 9.01586914 65.13894653 C7.45920532 65.13421829 7.45920532 65.13421829 5.87109375 65.12939453 C4.95255615 65.12859894 4.03401855 65.12780334 3.08764648 65.12698364 C1 65 1 65 0 64 C-0.09405142 62.0056827 -0.11743249 60.00800457 -0.11352539 58.01147461 C-0.11344986 56.73022202 -0.11337433 55.44896942 -0.11329651 54.12889099 C-0.10818909 52.72004152 -0.10297309 51.31119244 -0.09765625 49.90234375 C-0.09579202 48.46887766 -0.09436814 47.03541093 -0.09336853 45.60194397 C-0.08954372 41.82240043 -0.07971377 38.0428951 -0.06866455 34.2633667 C-0.0566548 29.73212219 -0.05204801 25.20086493 -0.04621124 20.66960907 C-0.03650198 13.77971278 -0.0173452 6.88990038 0 0 Z M10 11 C10 24.86 10 38.72 10 53 C20.89 53 31.78 53 43 53 C43 39.14 43 25.28 43 11 C32.11 11 21.22 11 10 11 Z " fill="#231F20" transform="translate(1470,554)"/>
<path d="M0 0 C1.81242052 -0.02687279 3.62495233 -0.04633715 5.4375 -0.0625 C6.44683594 -0.07410156 7.45617188 -0.08570313 8.49609375 -0.09765625 C11 0 11 0 12 1 C12.11103743 4.09184775 12.16168205 7.16509272 12.17578125 10.2578125 C12.19899319 12.18230244 12.22311107 14.10678163 12.24804688 16.03125 C12.28307603 19.07266276 12.31244986 22.11368412 12.32592773 25.15527344 C12.34146465 28.0857742 12.38172797 31.01511933 12.42578125 33.9453125 C12.42387283 34.84661896 12.42196442 35.74792542 12.41999817 36.67654419 C12.53392639 42.59809844 13.52596225 46.15686956 17 51 C22.02922863 53.8212746 28.36054987 53.55819885 34 53 C37.4034345 51.84604581 39.73227311 50.83465861 42 48 C43.20161511 44.39515466 43.23017136 41.02710143 43.31640625 37.26953125 C43.33718735 36.51911057 43.35796844 35.76868988 43.37937927 34.99552917 C43.44469926 32.60127816 43.50367792 30.20691861 43.5625 27.8125 C43.60570193 26.18813987 43.64931676 24.56379067 43.69335938 22.93945312 C43.80036263 18.95974629 43.90167937 14.97993042 44 11 C42.85660156 11.01160156 41.71320313 11.02320313 40.53515625 11.03515625 C39.04427246 11.04453288 37.55338691 11.05363321 36.0625 11.0625 C34.93038086 11.07506836 34.93038086 11.07506836 33.77539062 11.08789062 C31.85005687 11.09652441 29.92464419 11.05224333 28 11 C27 10 27 10 26.90234375 7.71484375 C26.91394531 6.79832031 26.92554688 5.88179687 26.9375 4.9375 C26.94652344 4.01839844 26.95554687 3.09929688 26.96484375 2.15234375 C26.97644531 1.44207031 26.98804688 0.73179687 27 0 C30.96930989 -0.02465881 34.93859034 -0.04284023 38.90795898 -0.05493164 C40.25920386 -0.05997057 41.61044326 -0.06680177 42.96166992 -0.07543945 C44.90020434 -0.08752419 46.838778 -0.09269828 48.77734375 -0.09765625 C50.52905884 -0.10551147 50.52905884 -0.10551147 52.31616211 -0.11352539 C55 0 55 0 56 1 C56.11382554 4.07003738 56.1642018 7.11666859 56.16796875 10.1875 C56.17296135 11.58500488 56.17296135 11.58500488 56.17805481 13.01074219 C56.1831317 14.99136866 56.1854629 16.97200374 56.18530273 18.95263672 C56.18747077 21.95945783 56.20556676 24.96590105 56.22460938 27.97265625 C56.22754697 29.89843625 56.22952931 31.82421799 56.23046875 33.75 C56.23765427 34.64098389 56.24483978 35.53196777 56.25224304 36.44995117 C56.22617898 43.71000751 55.8909659 51.49256507 51.1875 57.375 C50.70667969 58.00148438 50.22585938 58.62796875 49.73046875 59.2734375 C44.4377944 64.55416451 38.18422438 65.4054435 31 66 C13.20128117 65.84754845 13.20128117 65.84754845 7.87890625 61.11328125 C0.38605616 53.24645647 -0.30442876 46.52059016 -0.1953125 36.03515625 C-0.1924826 35.00184677 -0.18965271 33.96853729 -0.18673706 32.90391541 C-0.17559647 29.62332278 -0.15050304 26.34300927 -0.125 23.0625 C-0.1149623 20.83008208 -0.10583783 18.59765986 -0.09765625 16.36523438 C-0.07567721 10.910062 -0.04226084 5.45505095 0 0 Z " fill="#231F21" transform="translate(1213,554)"/>
<path d="M0 0 C1.81242052 -0.02687279 3.62495233 -0.04633715 5.4375 -0.0625 C6.44683594 -0.07410156 7.45617188 -0.08570313 8.49609375 -0.09765625 C11 0 11 0 12 1 C12.11103743 4.09184775 12.16168205 7.16509272 12.17578125 10.2578125 C12.19899319 12.18230244 12.22311107 14.10678163 12.24804688 16.03125 C12.28307603 19.07266276 12.31244986 22.11368412 12.32592773 25.15527344 C12.34146465 28.0857742 12.38172797 31.01511933 12.42578125 33.9453125 C12.42387283 34.84661896 12.42196442 35.74792542 12.41999817 36.67654419 C12.53392639 42.59809844 13.52596225 46.15686956 17 51 C22.02922863 53.8212746 28.36054987 53.55819885 34 53 C37.4034345 51.84604581 39.73227311 50.83465861 42 48 C43.20161511 44.39515466 43.23017136 41.02710143 43.31640625 37.26953125 C43.33718735 36.51911057 43.35796844 35.76868988 43.37937927 34.99552917 C43.44469926 32.60127816 43.50367792 30.20691861 43.5625 27.8125 C43.60570193 26.18813987 43.64931676 24.56379067 43.69335938 22.93945312 C43.80036263 18.95974629 43.90167937 14.97993042 44 11 C42.85660156 11.01160156 41.71320313 11.02320313 40.53515625 11.03515625 C39.04427246 11.04453288 37.55338691 11.05363321 36.0625 11.0625 C34.93038086 11.07506836 34.93038086 11.07506836 33.77539062 11.08789062 C31.85005687 11.09652441 29.92464419 11.05224333 28 11 C27 10 27 10 26.90234375 7.71484375 C26.91394531 6.79832031 26.92554688 5.88179687 26.9375 4.9375 C26.94652344 4.01839844 26.95554687 3.09929688 26.96484375 2.15234375 C26.97644531 1.44207031 26.98804688 0.73179687 27 0 C30.96930989 -0.02465881 34.93859034 -0.04284023 38.90795898 -0.05493164 C40.25920386 -0.05997057 41.61044326 -0.06680177 42.96166992 -0.07543945 C44.90020434 -0.08752419 46.838778 -0.09269828 48.77734375 -0.09765625 C50.52905884 -0.10551147 50.52905884 -0.10551147 52.31616211 -0.11352539 C55 0 55 0 56 1 C56.12632206 4.04665848 56.18874703 7.06929608 56.203125 10.1171875 C56.20882507 11.04411407 56.21452515 11.97104065 56.22039795 12.92605591 C56.22987116 14.89828342 56.23639109 16.87052692 56.24023438 18.84277344 C56.24984788 21.82776745 56.28080971 24.81204554 56.3125 27.796875 C56.45352584 52.75438248 56.45352584 52.75438248 48.70703125 60.6328125 C40.51770622 67.19176848 28.00011984 66.54371185 18.125 65.5 C11.97102999 64.36814924 7.68679921 62.12388103 4 57 C0.11616516 50.19469444 -0.54982497 44.35926059 -0.390625 36.62109375 C-0.38496521 35.56841812 -0.37930542 34.51574249 -0.37347412 33.4311676 C-0.35124884 30.09946426 -0.30107768 26.7688732 -0.25 23.4375 C-0.22991714 21.16603126 -0.21166951 18.8945455 -0.1953125 16.62304688 C-0.15142971 11.08165768 -0.08465777 5.54090834 0 0 Z " fill="#231F20" transform="translate(1576,554)"/>
<path d="M0 0 C12.38273859 -1.2213112 12.38273859 -1.2213112 16.265625 1.7109375 C20 6.73240291 20 6.73240291 20 10 C20.99 10.33 21.98 10.66 23 11 C24.40253257 12.95209635 25.72561209 14.96193395 27 17 C28.43322262 19.14201635 29.89179359 21.26728563 31.375 23.375 C32.10460937 24.43460938 32.83421875 25.49421875 33.5859375 26.5859375 C35.82405061 29.32935276 35.82405061 29.32935276 39.2890625 29.3515625 C40.63097656 29.17753906 40.63097656 29.17753906 42 29 C43.64770831 22.41586477 44.386475 16.21061626 44.625 9.4375 C44.66367187 8.52419922 44.70234375 7.61089844 44.7421875 6.66992188 C44.83529822 4.44690344 44.91867923 2.22348094 45 0 C48.63 0 52.26 0 56 0 C56.11668418 4.52061442 56.18741645 9.04083847 56.25 13.5625 C56.28351562 14.83931641 56.31703125 16.11613281 56.3515625 17.43164062 C56.42500749 24.50072083 56.42813456 29.33779516 52 35 C49.44694823 37.30397355 46.86018594 39.09320938 44 41 C44.33 41.99 44.66 42.98 45 44 C45.66 44 46.32 44 47 44 C47.93584971 45.31712181 48.85732982 46.64621112 49.71484375 48.015625 C51.85980636 51.32760374 54.25973436 54.46375937 56.609375 57.6328125 C58 60 58 60 58 64 C53.11456381 64.81308113 48.85140048 65.11719948 44 64 C39.84282805 60.65667289 37.29573743 55.72508922 35 51 C35 50.34 35 49.68 35 49 C34.34 49 33.68 49 33 49 C31.9511844 47.36361263 30.96054305 45.68971442 30 44 C28.16766753 41.3829427 26.29951099 38.7945628 24.42578125 36.20703125 C23 34 23 34 23 32 C18.92035719 33.30155006 18.92035719 33.30155006 15 35 C14.02259717 38.55910261 13.82120034 42.06221953 13.68359375 45.73828125 C13.64169922 46.80498047 13.59980469 47.87167969 13.55664062 48.97070312 C13.51732422 50.07349609 13.47800781 51.17628906 13.4375 52.3125 C13.39431641 53.43462891 13.35113281 54.55675781 13.30664062 55.71289062 C13.20085289 58.47512585 13.09995017 61.23754739 13 64 C9.37 64 5.74 64 2 64 C1.92546378 59.8374388 1.87121746 55.6752382 1.83520508 51.51220703 C1.82018175 50.09807563 1.79975695 48.68399032 1.77368164 47.27001953 C1.73701046 45.22937603 1.72020964 43.18935208 1.70703125 41.1484375 C1.6913208 39.92302246 1.67561035 38.69760742 1.65942383 37.43505859 C2.22280833 31.75275044 4.61427319 27.61177502 9 24 C10.65420128 23.3029775 12.31992228 22.63210845 14 22 C12.41727985 19.93702698 10.83384324 17.87461051 9.25 15.8125 C8.58484375 14.9452832 8.58484375 14.9452832 7.90625 14.06054688 C7.46796875 13.49013672 7.0296875 12.91972656 6.578125 12.33203125 C6.14564453 11.76564941 5.71316406 11.19926758 5.26757812 10.61572266 C4.11564524 9.14740758 2.89687723 7.73214917 1.671875 6.32421875 C0 4 0 4 0 0 Z " fill="#231F20" transform="translate(528,554)"/>
<path d="M0 0 C5.24686482 -0.1493306 10.49246893 -0.25767291 15.7409668 -0.32958984 C17.52276175 -0.35959563 19.30441109 -0.40041511 21.08569336 -0.45263672 C39.48957575 -0.97831468 39.48957575 -0.97831468 45.41992188 4.14233398 C51.69011833 11.51407762 51.60301642 19.65617677 51.46655273 28.91137695 C51.43750482 31.06214312 51.4459933 33.21044805 51.45898438 35.36132812 C51.44338915 45.66947248 50.5114079 53.4885921 43 61 C34.85496235 66.36832027 23.94167893 65.15638599 14.5625 65.125 C12.78842773 65.13080078 12.78842773 65.13080078 10.97851562 65.13671875 C9.28952148 65.13478516 9.28952148 65.13478516 7.56640625 65.1328125 C6.03415405 65.13112061 6.03415405 65.13112061 4.47094727 65.12939453 C2 65 2 65 0 64 C-0.02688151 62.35425434 -0.04634123 60.70838587 -0.0625 59.0625 C-0.07410156 58.14597656 -0.08570313 57.22945312 -0.09765625 56.28515625 C0 54 0 54 1 53 C3.3171403 52.88998459 5.63736548 52.84404983 7.95703125 52.82421875 C9.39389476 52.80101433 10.83074376 52.77689674 12.26757812 52.75195312 C14.5389161 52.71686602 16.80972314 52.68751643 19.08129883 52.67407227 C21.26970277 52.65857534 23.45654176 52.61835162 25.64453125 52.57421875 C26.95784424 52.55963623 28.27115723 52.54505371 29.62426758 52.5300293 C33.51015144 51.91990028 34.68054521 51.11368698 37 48 C38.70809621 42.87571138 38.22680315 37.48927073 38.25 32.125 C38.270625 30.94035156 38.29125 29.75570312 38.3125 28.53515625 C38.31765625 27.39175781 38.3228125 26.24835937 38.328125 25.0703125 C38.3374707 24.02633301 38.34681641 22.98235352 38.35644531 21.90673828 C37.82990074 17.61287547 36.01567446 15.01567446 33 12 C30.6754661 11.62948007 30.6754661 11.62948007 27.9921875 11.5859375 C27.1038623 11.55032715 26.21553711 11.5147168 25.30029297 11.47802734 C24.16994629 11.44402832 23.03959961 11.4100293 21.875 11.375 C18.28625 11.25125 14.6975 11.1275 11 11 C11 18.92 11 26.84 11 35 C7.7 35 4.4 35 1 35 C0 34 0 34 -0.11352539 30.76538086 C-0.11336631 29.33185874 -0.10767407 27.89833088 -0.09765625 26.46484375 C-0.0962413 25.71159317 -0.09482635 24.95834259 -0.09336853 24.18226624 C-0.08775376 21.7673044 -0.07519883 19.35243399 -0.0625 16.9375 C-0.0574869 15.30403779 -0.05292366 13.67057414 -0.04882812 12.03710938 C-0.03777954 8.02470415 -0.02050506 4.01236759 0 0 Z " fill="#231F21" transform="translate(1717,554)"/>
<path d="M0 0 C3.96 0 7.92 0 12 0 C12.61875 2.23716797 12.61875 2.23716797 13.25 4.51953125 C17.66005278 20.39959541 22.2729388 36.21165261 27 52 C32.09487329 52.21735367 32.09487329 52.21735367 36.8125 50.5625 C41.61261051 44.93951341 41.31236525 36.69140593 41.4140625 29.58984375 C41.43342865 28.73693253 41.4527948 27.8840213 41.4727478 27.00526428 C41.53190102 24.31610706 41.57866838 21.6269055 41.625 18.9375 C41.66323911 17.09959206 41.70229417 15.2617009 41.7421875 13.42382812 C41.8375485 8.9493572 41.92181253 4.47480262 42 0 C45.63 0 49.26 0 53 0 C53.09934204 6.52868276 53.17169256 13.0569194 53.21972656 19.58618164 C53.239764 21.80435863 53.26700173 24.02248332 53.30175781 26.24047852 C53.35062253 29.44039872 53.37304812 32.63961674 53.390625 35.83984375 C53.41127014 36.82145981 53.43191528 37.80307587 53.45318604 38.81443787 C53.45560661 46.34796663 51.94726202 52.56058482 46.96484375 58.375 C46.29582031 58.91125 45.62679687 59.4475 44.9375 60 C44.26589844 60.556875 43.59429687 61.11375 42.90234375 61.6875 C38.63716761 64.6302088 34.13642152 64.12822392 29.17578125 64.09765625 C28.31438034 64.0962413 27.45297943 64.09482635 26.56547546 64.09336853 C23.81444831 64.0877714 21.06350256 64.07521946 18.3125 64.0625 C16.4472668 64.05748463 14.58203233 64.05292179 12.71679688 64.04882812 C8.14449989 64.03780292 3.57226375 64.02054027 -1 64 C-1.02688151 62.35425434 -1.04634123 60.70838587 -1.0625 59.0625 C-1.07410156 58.14597656 -1.08570313 57.22945312 -1.09765625 56.28515625 C-1 54 -1 54 0 53 C2.35313555 52.92728259 4.70833668 52.91629132 7.0625 52.9375 C8.35285156 52.94652344 9.64320313 52.95554687 10.97265625 52.96484375 C11.97167969 52.97644531 12.97070312 52.98804688 14 53 C13.5875 51.80375 13.175 50.6075 12.75 49.375 C11.09877064 44.41366734 9.66154303 39.40522965 8.25 34.37109375 C7.2670555 30.89317534 6.23177826 27.43263377 5.1875 23.97265625 C4.8687793 22.90732666 4.55005859 21.84199707 4.22167969 20.74438477 C3.58287251 18.61144292 2.93786592 16.48034619 2.28613281 14.35131836 C1.99061523 13.3588208 1.69509766 12.36632324 1.390625 11.34375 C1.12282227 10.45880859 0.85501953 9.57386719 0.57910156 8.66210938 C0 6 0 6 0 0 Z " fill="#231F20" transform="translate(327,554)"/>
<path d="M0 0 C3.96 0 7.92 0 12 0 C14.95582955 7.81090923 17.38188158 15.61236108 19.5 23.6875 C19.80043213 24.81784668 20.10086426 25.94819336 20.41040039 27.11279297 C22.68938424 35.72146871 24.89556308 44.34697364 27 53 C28.26070312 52.87753906 29.52140625 52.75507812 30.8203125 52.62890625 C31.88403076 52.52557983 31.88403076 52.52557983 32.96923828 52.42016602 C36.51438765 51.68667214 37.93113719 49.85989859 40 47 C41.79700391 41.15319768 42.32738839 35.77871741 42.4140625 29.6875 C42.43342865 28.83317383 42.4527948 27.97884766 42.4727478 27.09863281 C42.5320053 24.39918662 42.57871122 21.69969651 42.625 19 C42.66322946 17.15753461 42.70228399 15.31508614 42.7421875 13.47265625 C42.83766176 8.98191007 42.92188873 4.49108038 43 0 C46.63 0 50.26 0 54 0 C54.12430166 6.51034714 54.21467094 13.01999201 54.2746582 19.53125 C54.29968484 21.74263555 54.3337169 23.95393937 54.37719727 26.16503906 C54.43837176 29.35762791 54.46632914 32.54911613 54.48828125 35.7421875 C54.51408768 36.71864227 54.5398941 37.69509705 54.56648254 38.70114136 C54.56925989 45.61568904 53.16968242 51.35303017 49 57 C46.83003235 58.27633667 46.83003235 58.27633667 45 59 C45 59.66 45 60.32 45 61 C39.79334065 64.17452437 35.7812683 64.40406201 29.8828125 64.29296875 C29.02565643 64.28872391 28.16850037 64.28447906 27.28536987 64.28010559 C24.56491836 64.26339886 21.84522518 64.22576219 19.125 64.1875 C17.27344825 64.17244278 15.42188481 64.1587562 13.5703125 64.14648438 C9.04658567 64.11352165 4.52342113 64.06179537 0 64 C-0.02688151 62.35425434 -0.04634123 60.70838587 -0.0625 59.0625 C-0.07410156 58.14597656 -0.08570313 57.22945312 -0.09765625 56.28515625 C0 54 0 54 1 53 C3.35313555 52.92728259 5.70833668 52.91629132 8.0625 52.9375 C9.35285156 52.94652344 10.64320313 52.95554687 11.97265625 52.96484375 C12.97167969 52.97644531 13.97070312 52.98804688 15 53 C14.72027344 52.27941406 14.44054687 51.55882812 14.15234375 50.81640625 C10.73888814 41.67361357 8.06313371 32.38768315 5.49975586 22.97290039 C4.02641439 17.5776904 2.48654645 12.27325025 0.53759766 7.02856445 C0 5 0 5 0 0 Z " fill="#231F20" transform="translate(865,554)"/>
<path d="M0 0 C0.80308594 0.01417969 1.60617188 0.02835938 2.43359375 0.04296875 C3.64208984 0.05263672 3.64208984 0.05263672 4.875 0.0625 C6.87109375 0.23046875 6.87109375 0.23046875 7.87109375 1.23046875 C7.94422942 3.76096277 7.96356902 6.26351712 7.93359375 8.79296875 C7.92908203 9.50388672 7.92457031 10.21480469 7.91992188 10.94726562 C7.90810239 12.70836888 7.89016638 14.46942911 7.87109375 16.23046875 C8.84457764 16.20428467 9.81806152 16.17810059 10.82104492 16.15112305 C14.44564677 16.06036854 18.07014902 16.00312974 21.69555664 15.95581055 C23.26213489 15.93072328 24.82859674 15.8966446 26.39477539 15.85327148 C28.65149684 15.79235649 30.90666669 15.76420376 33.1640625 15.7421875 C33.86009079 15.71638107 34.55611908 15.69057465 35.27323914 15.66398621 C39.11878108 15.66178679 40.75208669 16.13774135 43.82080078 18.52880859 C46.07389651 21.49770087 46.49108347 23.3227676 46.24365234 27.03076172 C45.54935868 31.13009717 44.15478798 34.91652463 42.68359375 38.79296875 C42.03413941 40.56994119 41.38570944 42.34728834 40.73828125 44.125 C40.41827148 44.99334473 40.09826172 45.86168945 39.76855469 46.75634766 C38.54037184 50.1422032 37.42243074 53.55523801 36.30859375 56.98046875 C33.72216809 64.81733851 30.81806618 72.5237814 27.87109375 80.23046875 C23.91109375 80.23046875 19.95109375 80.23046875 15.87109375 80.23046875 C16.33135486 72.60441833 18.43418277 66.36278923 21.24609375 59.29296875 C24.10181925 52.00165671 26.7201589 44.76023132 28.87109375 37.23046875 C29.43121453 35.35475663 29.99366429 33.4797382 30.55859375 31.60546875 C30.93564453 30.34863281 30.93564453 30.34863281 31.3203125 29.06640625 C31.50207031 28.46054687 31.68382812 27.8546875 31.87109375 27.23046875 C30.81607666 27.23570557 29.76105957 27.24094238 28.67407227 27.24633789 C24.77352745 27.26438776 20.87298635 27.2759007 16.97241211 27.28540039 C15.28165059 27.29044065 13.59089346 27.2972728 11.90014648 27.3059082 C9.47508668 27.31798732 7.05008431 27.32369998 4.625 27.328125 C3.48436852 27.33586693 3.48436852 27.33586693 2.32069397 27.34376526 C0.50376805 27.34396113 -1.31303752 27.29244152 -3.12890625 27.23046875 C-5.66200347 24.69737153 -4.31445796 17.70051967 -4.31640625 14.29296875 C-4.32865234 13.16955078 -4.34089844 12.04613281 -4.35351562 10.88867188 C-4.35544922 9.81681641 -4.35738281 8.74496094 -4.359375 7.640625 C-4.36348389 6.65199463 -4.36759277 5.66336426 -4.37182617 4.64477539 C-4.05186261 1.46475561 -3.23869088 0.35061057 0 0 Z " fill="#231F21" transform="translate(89.12890625,537.76953125)"/>
<path d="M0 0 C1.02486511 -0.01606293 2.04973022 -0.03212585 3.10565186 -0.04867554 C7.80708291 -0.09298706 12.50836994 -0.13420395 17.20996094 -0.15722656 C19.69117617 -0.17378098 22.17234383 -0.20106383 24.65332031 -0.23925781 C28.22388548 -0.29397729 31.79332999 -0.31589566 35.36425781 -0.33056641 C36.47275085 -0.35323578 37.5812439 -0.37590515 38.72332764 -0.39926147 C47.30365784 -0.37569051 47.30365784 -0.37569051 50.39233398 2.59619141 C53.18234736 6.62095505 52.99607012 9.46659986 52.19238281 14.19287109 C51.36310873 16.9248451 50.37663728 19.54634408 49.32519531 22.20068359 C48.13182438 25.3528289 47.21044085 28.50584059 46.31738281 31.75537109 C44.52217438 38.20957284 42.45792415 44.54747688 40.29833984 50.88842773 C38.80206146 55.29468574 37.43335089 59.70765789 36.19238281 64.19287109 C32.23238281 64.19287109 28.27238281 64.19287109 24.19238281 64.19287109 C24.19238281 57.44708289 24.19238281 57.44708289 25.58300781 53.68896484 C25.87844482 52.87250488 26.17388184 52.05604492 26.47827148 51.21484375 C26.79642822 50.36196777 27.11458496 49.5090918 27.44238281 48.63037109 C28.09128578 46.8354362 28.73842372 45.03986222 29.38378906 43.24365234 C29.69719238 42.37562988 30.0105957 41.50760742 30.33349609 40.61328125 C32.99288458 33.11891585 35.12612919 25.45422438 37.30566406 17.81005859 C37.66055908 16.56595215 38.0154541 15.3218457 38.38110352 14.04003906 C38.64882568 13.10047363 38.91654785 12.1609082 39.19238281 11.19287109 C37.90025879 11.20334473 36.60813477 11.21381836 35.27685547 11.22460938 C30.49481972 11.26073828 25.71279609 11.2837456 20.93066406 11.30273438 C18.85870334 11.31280821 16.78675689 11.32646775 14.71484375 11.34375 C11.74117517 11.36793773 8.76769411 11.37934018 5.79394531 11.38818359 C4.3985704 11.40366745 4.3985704 11.40366745 2.9750061 11.41946411 C2.11426483 11.41961517 1.25352356 11.41976624 0.36669922 11.41992188 C-0.39274994 11.4243631 -1.1521991 11.42880432 -1.93466187 11.43338013 C-3.80761719 11.19287109 -3.80761719 11.19287109 -5.80761719 9.19287109 C-6.13513953 6.47832154 -5.93845968 3.9405635 -5.80761719 1.19287109 C-4.165192 -0.4495541 -2.26467198 0.03212961 0 0 Z " fill="#231F21" transform="translate(1292.8076171875,553.80712890625)"/>
<path d="M0 0 C17.82 0 35.64 0 54 0 C54 3.3 54 6.6 54 10 C53.67 10.33 53.34 10.66 53 11 C49.7 11 46.4 11 43 11 C43 28.49 43 45.98 43 64 C39.37 64 35.74 64 32 64 C32 46.51 32 29.02 32 11 C21.84286908 11.03959822 21.84286908 11.03959822 11.68579102 11.09008789 C10.42951904 11.09258545 9.17324707 11.09508301 7.87890625 11.09765625 C5.93866577 11.10551147 5.93866577 11.10551147 3.95922852 11.11352539 C1 11 1 11 0 10 C0 6.7 0 3.4 0 0 Z " fill="#231F20" transform="translate(180,554)"/>
<path d="M0 0 C17.16 0 34.32 0 52 0 C52 21.12 52 42.24 52 64 C48.37 64 44.74 64 41 64 C41 46.51 41 29.02 41 11 C27.88096101 11.03960462 27.88096101 11.03960462 14.76196289 11.09008789 C13.12386134 11.09300701 11.48575906 11.09555558 9.84765625 11.09765625 C8.55982239 11.1053302 8.55982239 11.1053302 7.24597168 11.11315918 C5.16363948 11.1134691 3.0813964 11.06242176 1 11 C0.67 10.67 0.34 10.34 0 10 C0 6.7 0 3.4 0 0 Z " fill="#231F20" transform="translate(1785,554)"/>
<path d="M0 0 C16.83 0 33.66 0 51 0 C51 21.12 51 42.24 51 64 C47.37 64 43.74 64 40 64 C40 46.51 40 29.02 40 11 C27.21006205 11.03960405 27.21006205 11.03960405 14.42016602 11.09008789 C12.8230801 11.09300703 11.22599345 11.09555559 9.62890625 11.09765625 C8.79194214 11.10277222 7.95497803 11.10788818 7.09265137 11.11315918 C5.06141735 11.11346924 3.03027529 11.06240188 1 11 C0.67 10.67 0.34 10.34 0 10 C0 6.7 0 3.4 0 0 Z " fill="#231F20" transform="translate(1362,554)"/>
<path d="M0 0 C1.95766281 -0.08082094 3.91626728 -0.13910778 5.875 -0.1875 C7.51082031 -0.23970703 7.51082031 -0.23970703 9.1796875 -0.29296875 C10.11039062 -0.19628906 11.04109375 -0.09960938 12 0 C13.7620715 2.64310725 14.43733272 4.10876701 15.25 7.0625 C16.68002941 12.02767824 18.28754381 16.91734025 19.9375 21.8125 C22.05186829 28.10188815 24.07481399 34.40771564 25.98828125 40.76171875 C26.74295248 43.17724944 27.52865087 45.56633653 28.35546875 47.95703125 C28.5867749 48.62968018 28.81808105 49.3023291 29.05639648 49.99536133 C29.71364049 51.8949145 30.37999413 53.7913086 31.046875 55.6875 C32 59 32 59 32 64 C28.04 64 24.08 64 20 64 C17 54.25 17 54.25 17 52 C16.34 52 15.68 52 15 52 C14.814375 52.86625 14.62875 53.7325 14.4375 54.625 C12.52460187 59.11615214 10.34180522 61.70973505 6 64 C1.9843592 64.88717645 -1.89327305 65.28819136 -6 65 C-6.99 64.34 -7.98 63.68 -9 63 C-9.29296875 60.6171875 -9.29296875 60.6171875 -9.1875 57.875 C-9.16042969 56.96492187 -9.13335937 56.05484375 -9.10546875 55.1171875 C-9.07066406 54.41851563 -9.03585938 53.71984375 -9 53 C-8.25234375 52.89042969 -7.5046875 52.78085937 -6.734375 52.66796875 C-5.74953125 52.50941406 -4.7646875 52.35085938 -3.75 52.1875 C-2.77546875 52.03667969 -1.8009375 51.88585937 -0.796875 51.73046875 C2.14045372 50.96331725 3.66889777 49.88241663 6 48 C6.66 48 7.32 48 8 48 C11.29622993 39.75942518 10.16493208 33.27518867 7.25 25.25 C6.97849121 24.46866699 6.70698242 23.68733398 6.42724609 22.88232422 C5.62823866 20.58452815 4.81517377 18.29210091 4 16 C3.20141873 13.7107337 2.40860354 11.41943625 1.625 9.125 C1.30789062 8.22007812 0.99078125 7.31515625 0.6640625 6.3828125 C0 4 0 4 0 0 Z " fill="#231F21" transform="translate(248,554)"/>
<path d="M0 0 C5.1411063 -0.12416286 10.28132846 -0.21460196 15.42358398 -0.2746582 C17.17048355 -0.29970857 18.91727928 -0.33375917 20.66381836 -0.37719727 C23.18369232 -0.43827206 25.70217382 -0.46630335 28.22265625 -0.48828125 C29.3824575 -0.52699089 29.3824575 -0.52699089 30.56568909 -0.56648254 C35.39935185 -0.56894858 38.7043494 0.24977517 42.48588562 3.35238647 C48.42899295 9.81949633 48.55539476 17.4583598 48.390625 25.81640625 C48.38496521 26.91347397 48.37930542 28.01054169 48.37347412 29.14085388 C48.35123774 32.61519606 48.30106382 36.08847407 48.25 39.5625 C48.2299186 41.93032356 48.21167072 44.29816342 48.1953125 46.66601562 C48.15141448 52.44441505 48.08247449 58.22202764 48 64 C44.37 64 40.74 64 37 64 C36.98541748 62.80511963 36.97083496 61.61023926 36.95581055 60.37915039 C36.89748234 55.91157315 36.82025353 51.44448186 36.73754883 46.97729492 C36.704461 45.05029231 36.67637972 43.12319654 36.65356445 41.19604492 C36.61971963 38.41284791 36.5673914 35.63049229 36.51171875 32.84765625 C36.50532883 31.99728287 36.4989389 31.14690948 36.49235535 30.27076721 C36.35494437 24.57714288 35.62870551 19.13150848 33 14 C29.41548319 11.61032213 27.6615593 11.71064061 23.3984375 11.62109375 C22.10421875 11.58693359 20.81 11.55277344 19.4765625 11.51757812 C18.10938799 11.49022808 16.74220002 11.46354345 15.375 11.4375 C12.69509406 11.37977604 10.0156228 11.31428933 7.3359375 11.24609375 C6.14532715 11.22216553 4.9547168 11.1982373 3.72802734 11.17358398 C1 11 1 11 0 10 C-0.07205511 8.31391034 -0.08386068 6.62499341 -0.0625 4.9375 C-0.05347656 4.01839844 -0.04445313 3.09929688 -0.03515625 2.15234375 C-0.02355469 1.44207031 -0.01195312 0.73179687 0 0 Z " fill="#231F20" transform="translate(1649,554)"/>
<path d="M0 0 C5.1411063 -0.12416286 10.28132846 -0.21460196 15.42358398 -0.2746582 C17.17048355 -0.29970857 18.91727928 -0.33375917 20.66381836 -0.37719727 C23.18369232 -0.43827206 25.70217382 -0.46630335 28.22265625 -0.48828125 C29.3824575 -0.52699089 29.3824575 -0.52699089 30.56568909 -0.56648254 C35.39935185 -0.56894858 38.7043494 0.24977517 42.48588562 3.35238647 C48.42899295 9.81949633 48.55539476 17.4583598 48.390625 25.81640625 C48.38496521 26.91347397 48.37930542 28.01054169 48.37347412 29.14085388 C48.35123774 32.61519606 48.30106382 36.08847407 48.25 39.5625 C48.2299186 41.93032356 48.21167072 44.29816342 48.1953125 46.66601562 C48.15141448 52.44441505 48.08247449 58.22202764 48 64 C44.37 64 40.74 64 37 64 C36.98541748 62.80511963 36.97083496 61.61023926 36.95581055 60.37915039 C36.89748234 55.91157315 36.82025353 51.44448186 36.73754883 46.97729492 C36.704461 45.05029231 36.67637972 43.12319654 36.65356445 41.19604492 C36.61971963 38.41284791 36.5673914 35.63049229 36.51171875 32.84765625 C36.50532883 31.99728287 36.4989389 31.14690948 36.49235535 30.27076721 C36.35494437 24.57714288 35.62870551 19.13150848 33 14 C29.41548319 11.61032213 27.6615593 11.71064061 23.3984375 11.62109375 C22.10421875 11.58693359 20.81 11.55277344 19.4765625 11.51757812 C18.10938799 11.49022808 16.74220002 11.46354345 15.375 11.4375 C12.69509406 11.37977604 10.0156228 11.31428933 7.3359375 11.24609375 C6.14532715 11.22216553 4.9547168 11.1982373 3.72802734 11.17358398 C1 11 1 11 0 10 C-0.07205511 8.31391034 -0.08386068 6.62499341 -0.0625 4.9375 C-0.05347656 4.01839844 -0.04445313 3.09929688 -0.03515625 2.15234375 C-0.02355469 1.44207031 -0.01195312 0.73179687 0 0 Z " fill="#231F20" transform="translate(430,554)"/>
<path d="M0 0 C1.51400391 0.01740234 1.51400391 0.01740234 3.05859375 0.03515625 C4.07050781 0.04417969 5.08242187 0.05320312 6.125 0.0625 C7.29869141 0.07990234 7.29869141 0.07990234 8.49609375 0.09765625 C8.62342569 7.19584891 8.71066767 14.29374435 8.77075195 21.39282227 C8.79581357 23.80504361 8.82987212 26.21718963 8.87329102 28.62915039 C8.93430808 32.10712321 8.96238835 35.58408744 8.984375 39.0625 C9.01018143 40.13161118 9.03598785 41.20072235 9.06257629 42.30223083 C9.06519334 49.37316959 7.79942237 54.39770786 3.49609375 60.09765625 C-2.69490449 65.6007658 -9.8816086 65.20358319 -17.71875 65.23046875 C-19.50390625 65.09765625 -19.50390625 65.09765625 -20.50390625 64.09765625 C-20.60214562 62.43336574 -20.63364256 60.76483694 -20.62890625 59.09765625 C-20.63148437 58.19015625 -20.6340625 57.28265625 -20.63671875 56.34765625 C-20.50390625 54.09765625 -20.50390625 54.09765625 -19.50390625 53.09765625 C-17.71674981 52.88808742 -15.92346856 52.72954009 -14.12890625 52.59765625 C-10.98370116 52.36529281 -8.50762718 52.09889656 -5.50390625 51.09765625 C-3.124529 40.5325807 -3.30316762 30.163507 -3.44140625 19.41015625 C-3.46904682 16.7905509 -3.49368178 14.17099857 -3.5125885 11.55131531 C-3.52483739 9.93311019 -3.54243309 8.31493491 -3.56590271 6.69685364 C-3.58278618 4.83041646 -3.5486427 2.96363359 -3.50390625 1.09765625 C-2.50390625 0.09765625 -2.50390625 0.09765625 0 0 Z " fill="#231F20" transform="translate(1185.50390625,553.90234375)"/>
<path d="M0 0 C3.96 0 7.92 0 12 0 C12 21.12 12 42.24 12 64 C8.37 64 4.74 64 1 64 C0 63 0 63 -0.12025452 60.48802185 C-0.11803391 59.37105423 -0.11581329 58.25408661 -0.11352539 57.10327148 C-0.11344986 55.84203964 -0.11337433 54.5808078 -0.11329651 53.28135681 C-0.1081891 51.89460206 -0.10297309 50.50784771 -0.09765625 49.12109375 C-0.09579201 47.71004791 -0.09436814 46.29900143 -0.09336853 44.88795471 C-0.08954379 41.16759465 -0.0797139 37.4472734 -0.06866455 33.72692871 C-0.05844948 29.93319219 -0.05387071 26.13944942 -0.04882812 22.34570312 C-0.03809158 14.89711564 -0.02049515 7.4485682 0 0 Z " fill="#231F20" transform="translate(152,554)"/>
<path d="M0 0 C3.63 0 7.26 0 11 0 C11 21.12 11 42.24 11 64 C7.37 64 3.74 64 0 64 C-1.77916467 62.22083533 -1.12764835 59.61686701 -1.12939453 57.2109375 C-1.13254669 55.9729541 -1.13569885 54.7349707 -1.13894653 53.45947266 C-1.13715675 52.09798141 -1.1351058 50.73649049 -1.1328125 49.375 C-1.13348559 47.98876936 -1.13445566 46.60253883 -1.13571167 45.21630859 C-1.1371884 42.30760578 -1.1350349 39.39893363 -1.13037109 36.49023438 C-1.12467381 32.75403402 -1.12795294 29.01790548 -1.13394356 25.28170776 C-1.13754985 22.41820734 -1.13641027 19.55472407 -1.13381577 16.69122314 C-1.13314668 15.31325268 -1.13397426 13.93528068 -1.13629532 12.55731201 C-1.13882292 10.63456246 -1.13429024 8.71180748 -1.12939453 6.7890625 C-1.12859894 5.69287598 -1.12780334 4.59668945 -1.12698364 3.46728516 C-1 1 -1 1 0 0 Z " fill="#231F21" transform="translate(837,554)"/>
<path d="M0 0 C3.63 0 7.26 0 11 0 C11 21.12 11 42.24 11 64 C7.37 64 3.74 64 0 64 C0 42.88 0 21.76 0 0 Z " fill="#231F20" transform="translate(401,554)"/>
<path d="M0 0 C3.63 0 7.26 0 11 0 C11 17.82 11 35.64 11 54 C8.77109005 55.11445498 7.46944894 55.16480286 5 55.1875 C4.29875 55.20167969 3.5975 55.21585938 2.875 55.23046875 C1 55 1 55 -1 53 C-1.24723816 50.792099 -1.24723816 50.792099 -1.24291992 48.01538086 C-1.24599655 46.97768051 -1.24907318 45.93998016 -1.25224304 44.87083435 C-1.24505753 43.74685745 -1.23787201 42.62288055 -1.23046875 41.46484375 C-1.23001053 40.31585098 -1.22955231 39.16685822 -1.2290802 37.98304749 C-1.22605526 35.55110646 -1.21816179 33.11916741 -1.20581055 30.68725586 C-1.18755927 26.9496378 -1.18530077 23.21226733 -1.18554688 19.47460938 C-1.18063172 17.11718534 -1.17480341 14.759763 -1.16796875 12.40234375 C-1.16685593 11.27634262 -1.1657431 10.15034149 -1.16459656 8.99021912 C-1.15502678 7.43839684 -1.15502678 7.43839684 -1.14526367 5.85522461 C-1.14145187 4.93970322 -1.13764008 4.02418182 -1.13371277 3.08091736 C-1 1 -1 1 0 0 Z " fill="#231F20" transform="translate(1289,580)"/>
<path d="M0 0 C3.96 0 7.92 0 12 0 C12.02468084 5.09032841 12.04285082 10.18062215 12.05493164 15.27099609 C12.05996682 17.00342414 12.06679532 18.73584792 12.07543945 20.46826172 C12.08754065 22.95541433 12.09323638 25.44251087 12.09765625 27.9296875 C12.10281754 28.70682098 12.10797882 29.48395447 12.11329651 30.28463745 C12.11387171 35.77225659 12.11387171 35.77225659 11 38 C9.35425434 38.02688151 7.70838587 38.04634123 6.0625 38.0625 C5.14597656 38.07410156 4.22945313 38.08570313 3.28515625 38.09765625 C1 38 1 38 0 37 C-0.08858646 34.26105915 -0.11523479 31.5474673 -0.09765625 28.80859375 C-0.0962413 27.98875504 -0.09482635 27.16891632 -0.09336853 26.32423401 C-0.08775289 23.69528618 -0.07519779 21.06642227 -0.0625 18.4375 C-0.05748701 16.65950643 -0.05292376 14.88151154 -0.04882812 13.10351562 C-0.03777839 8.73564455 -0.02050331 4.36783652 0 0 Z " fill="#231F20" transform="translate(498,554)"/>
<path d="M0 0 C1.81242052 -0.02687279 3.62495233 -0.04633715 5.4375 -0.0625 C6.44683594 -0.07410156 7.45617188 -0.08570313 8.49609375 -0.09765625 C11 0 11 0 12 1 C12.10094226 3.57021843 12.13971237 6.11298032 12.1328125 8.68359375 C12.13376923 9.45429703 12.13472595 10.22500031 12.13571167 11.01905823 C12.13639349 12.65243613 12.13453909 14.28581673 12.13037109 15.91918945 C12.12503007 18.42340172 12.13031224 20.92743403 12.13671875 23.43164062 C12.13605783 25.0156254 12.13477637 26.59961006 12.1328125 28.18359375 C12.13483673 28.9357164 12.13686096 29.68783905 12.13894653 30.4627533 C12.11495624 35.77008751 12.11495624 35.77008751 11 38 C9.35425434 38.02688151 7.70838587 38.04634123 6.0625 38.0625 C5.14597656 38.07410156 4.22945312 38.08570313 3.28515625 38.09765625 C1 38 1 38 0 37 C-0.08858646 34.26105915 -0.11523479 31.5474673 -0.09765625 28.80859375 C-0.0962413 27.98875504 -0.09482635 27.16891632 -0.09336853 26.32423401 C-0.08775289 23.69528618 -0.07519779 21.06642227 -0.0625 18.4375 C-0.05748701 16.65950643 -0.05292376 14.88151154 -0.04882812 13.10351562 C-0.03777839 8.73564455 -0.02050331 4.36783652 0 0 Z " fill="#231F20" transform="translate(1545,554)"/>
<path d="M0 0 C1.81242052 -0.02687279 3.62495233 -0.04633715 5.4375 -0.0625 C6.44683594 -0.07410156 7.45617188 -0.08570313 8.49609375 -0.09765625 C11 0 11 0 12 1 C12.10094226 3.57021843 12.13971237 6.11298032 12.1328125 8.68359375 C12.13376923 9.45429703 12.13472595 10.22500031 12.13571167 11.01905823 C12.13639349 12.65243613 12.13453909 14.28581673 12.13037109 15.91918945 C12.12503007 18.42340172 12.13031224 20.92743403 12.13671875 23.43164062 C12.13605783 25.0156254 12.13477637 26.59961006 12.1328125 28.18359375 C12.13483673 28.9357164 12.13686096 29.68783905 12.13894653 30.4627533 C12.11495624 35.77008751 12.11495624 35.77008751 11 38 C9.35425434 38.02688151 7.70838587 38.04634123 6.0625 38.0625 C5.14597656 38.07410156 4.22945312 38.08570313 3.28515625 38.09765625 C1 38 1 38 0 37 C-0.08858646 34.26105915 -0.11523479 31.5474673 -0.09765625 28.80859375 C-0.0962413 27.98875504 -0.09482635 27.16891632 -0.09336853 26.32423401 C-0.08775289 23.69528618 -0.07519779 21.06642227 -0.0625 18.4375 C-0.05748701 16.65950643 -0.05292376 14.88151154 -0.04882812 13.10351562 C-0.03777839 8.73564455 -0.02050331 4.36783652 0 0 Z " fill="#231F20" transform="translate(1139,554)"/>
<path d="M0 0 C3.63 0 7.26 0 11 0 C11 12.21 11 24.42 11 37 C7.37 37 3.74 37 0 37 C-1.76072584 35.23927416 -1.12834784 32.9210371 -1.13894653 30.5760498 C-1.1369223 29.81876587 -1.13489807 29.06148193 -1.1328125 28.28125 C-1.13376923 27.50817505 -1.13472595 26.7351001 -1.13571167 25.93859863 C-1.13639341 24.30102456 -1.13453957 22.66344781 -1.13037109 21.02587891 C-1.12502271 18.51068079 -1.13031626 15.99566127 -1.13671875 13.48046875 C-1.13605797 11.89322877 -1.1347768 10.3059889 -1.1328125 8.71875 C-1.13483673 7.96146606 -1.13686096 7.20418213 -1.13894653 6.4239502 C-1.11495132 1.11495132 -1.11495132 1.11495132 0 0 Z " fill="#231F20" transform="translate(1786,581)"/>
<path d="M0 0 C0.9075 0.00257813 1.815 0.00515625 2.75 0.0078125 C4.11125 0.00394531 4.11125 0.00394531 5.5 0 C7.75 0.1328125 7.75 0.1328125 8.75 1.1328125 C8.83855161 3.7990728 8.86524673 6.43928364 8.84765625 9.10546875 C8.8462413 9.90311142 8.84482635 10.70075409 8.84336853 11.52256775 C8.83775316 14.08018685 8.82519812 16.63771968 8.8125 19.1953125 C8.80748698 20.92512895 8.80292373 22.65494676 8.79882812 24.38476562 C8.78777875 28.63414803 8.77050386 32.88346562 8.75 37.1328125 C6.93757948 37.15968529 5.12504767 37.17914965 3.3125 37.1953125 C2.30316406 37.20691406 1.29382812 37.21851563 0.25390625 37.23046875 C-2.25 37.1328125 -2.25 37.1328125 -3.25 36.1328125 C-3.35091475 33.55091804 -3.38971499 30.9963475 -3.3828125 28.4140625 C-3.38376923 27.64098755 -3.38472595 26.8679126 -3.38571167 26.07141113 C-3.38639341 24.43383706 -3.38453957 22.79626031 -3.38037109 21.15869141 C-3.37502271 18.64349329 -3.38031626 16.12847377 -3.38671875 13.61328125 C-3.38605797 12.02604127 -3.3847768 10.4388014 -3.3828125 8.8515625 C-3.38483673 8.09427856 -3.38686096 7.33699463 -3.38894653 6.5567627 C-3.36020824 0.19834563 -3.36020824 0.19834563 0 0 Z " fill="#231F20" transform="translate(1365.25,580.8671875)"/>
<path d="M0 0 C3.63 0 7.26 0 11 0 C11.02464928 5.25105442 11.04283568 10.50207545 11.05493164 15.75317383 C11.05997218 17.54094021 11.06680454 19.32870245 11.07543945 21.11645508 C11.0875173 23.68051168 11.09323094 26.24451397 11.09765625 28.80859375 C11.10281754 29.6127623 11.10797882 30.41693085 11.11329651 31.24546814 C11.11349215 33.16401715 11.06201983 35.08245368 11 37 C10.505 37.495 10.505 37.495 10 38 C6.7 38 3.4 38 0 38 C0 25.46 0 12.92 0 0 Z " fill="#231F20" transform="translate(715,554)"/>
</svg>
