<?xml version="1.0" encoding="UTF-8"?>
<svg version="1.1" xmlns="http://www.w3.org/2000/svg" width="2401" height="1257">
<path d="M0 0 C603.32190239 -0.04040373 603.32190239 -0.04040373 831.39670183 -0.04809406 C835.3291455 -0.0482267 839.26158917 -0.04836002 843.19403283 -0.04849322 C844.00358251 -0.04852063 844.81313218 -0.04854804 845.64721366 -0.04857629 C902.80334861 -0.05051221 959.95948355 -0.05250932 1017.11561848 -0.05462768 C1022.58558363 -0.05483029 1028.05554878 -0.05503148 1033.52551393 -0.05523144 C1118.14451184 -0.05832478 1202.7635096 -0.06222969 1287.38250732 -0.06866455 C1288.73349548 -0.0687672 1288.73349548 -0.0687672 1290.11177633 -0.06887193 C1320.06361828 -0.07114902 1350.01546022 -0.0735034 1379.96730216 -0.07586844 C1407.02968173 -0.07800509 1434.0920613 -0.08011399 1461.15444088 -0.08213139 C1462.04342059 -0.08219767 1462.9324003 -0.08226395 1463.84831879 -0.08233224 C1519.50253244 -0.08647451 1575.15674605 -0.08941532 1630.81095982 -0.09113979 C1631.67022495 -0.09116658 1632.52949009 -0.09119336 1633.41479357 -0.09122096 C1671.1475258 -0.09239615 1708.88025804 -0.09332053 1746.61299029 -0.0939579 C1761.79192703 -0.09421546 1776.97086377 -0.09451019 1792.14980052 -0.09482527 C1794.66663094 -0.09487721 1797.18346137 -0.09492794 1799.7002918 -0.09497854 C1838.22312278 -0.09576165 1876.7459535 -0.09737662 1915.26878428 -0.10139394 C1916.51603621 -0.10152399 1916.51603621 -0.10152399 1917.78848515 -0.10165666 C1931.16535937 -0.10305653 1944.54223358 -0.10452544 1957.91910779 -0.10600626 C1995.87246446 -0.11020766 2033.82582085 -0.11394814 2071.77917778 -0.11413276 C2072.93315554 -0.11413872 2072.93315554 -0.11413872 2074.11044598 -0.11414481 C2090.89025598 -0.11422158 2107.67006596 -0.11402546 2124.44987594 -0.1135619 C2131.14105995 -0.11338145 2137.83224396 -0.11323843 2144.52342796 -0.11310768 C2145.61830322 -0.11308483 2145.61830322 -0.11308483 2146.73529717 -0.11306151 C2169.92672284 -0.11259543 2193.11814681 -0.11521762 2216.30957204 -0.11960873 C2239.75474525 -0.12403518 2263.1999155 -0.12504813 2286.64508917 -0.12183181 C2300.00116765 -0.12010797 2313.35723915 -0.12117006 2326.71331682 -0.126217 C2335.55902989 -0.12929068 2344.40473792 -0.12880594 2353.25045083 -0.12530107 C2358.28062145 -0.12341146 2363.31077841 -0.1231489 2368.34094803 -0.12723524 C2372.89287647 -0.13090472 2377.44477976 -0.13008357 2381.99670714 -0.12547626 C2383.6405775 -0.12463277 2385.28444976 -0.12550676 2386.92831812 -0.12820339 C2389.13947536 -0.13159497 2391.35054132 -0.12895844 2393.56169492 -0.12467116 C2394.79055726 -0.12473517 2396.01941959 -0.12479918 2397.28552019 -0.12486512 C2400 -0 2400 -0 2401 1 C2401.09941203 3.73201147 2401.13250979 6.43877351 2401.1241985 9.17129523 C2401.12547659 10.04403101 2401.12675468 10.91676679 2401.1280715 11.81594911 C2401.13117112 14.78493317 2401.12704876 17.75386553 2401.12304783 20.72284794 C2401.12378643 22.86511106 2401.12496389 25.00737407 2401.12654402 27.14963674 C2401.12963379 33.09124379 2401.1264213 39.03283393 2401.12226575 44.97443973 C2401.11885482 51.40285168 2401.12120126 57.83126179 2401.12284851 64.25967407 C2401.12511048 75.55643618 2401.12329804 86.85319344 2401.11921513 98.14995492 C2401.11480517 110.40775676 2401.11262715 122.66555613 2401.11307228 134.9233588 C2401.11309925 135.70225261 2401.11312623 136.48114642 2401.11315403 137.28364308 C2401.1133016 141.25543231 2401.11348463 145.22722153 2401.11368043 149.19901076 C2401.11501547 177.71030644 2401.11162815 206.22159991 2401.10557556 234.7328949 C2401.09740898 273.28412982 2401.09547359 311.83535998 2401.09460449 350.38659668 C2401.08934701 443.11189825 2401.07538601 535.83719917 2401.0625 628.5625 C2401.0315625 939.1440625 2401.0315625 939.1440625 2401 1256 C1608.67 1256 816.34 1256 0 1256 C0 841.52 0 427.04 0 0 Z " fill="#2432B7" transform="translate(0,1)"/>
<path d="M0 0 C9.77868522 -0.2960685 18.82391271 0.93904794 28.3359375 3.15234375 C29.23828125 3.35730469 30.140625 3.56226563 31.0703125 3.7734375 C43.06299767 6.92837592 53.70477348 13.52307471 63.3359375 21.15234375 C64.28533203 21.87164063 64.28533203 21.87164063 65.25390625 22.60546875 C83.16796393 36.87112567 92.87485605 60.44440679 96.93359375 82.3828125 C100.07915894 111.85339897 94.86303587 141.70098286 76.52734375 165.5625 C60.80642063 184.14177278 39.18346982 197.15434426 14.6875 199.7109375 C-8.42628004 201.56277613 -28.34891404 197.02910939 -47.6640625 184.15234375 C-47.6640625 209.89234375 -47.6640625 235.63234375 -47.6640625 262.15234375 C-66.8040625 262.15234375 -85.9440625 262.15234375 -105.6640625 262.15234375 C-105.6640625 177.01234375 -105.6640625 91.87234375 -105.6640625 4.15234375 C-88.8340625 4.15234375 -72.0040625 4.15234375 -54.6640625 4.15234375 C-54.1690625 13.06234375 -54.1690625 13.06234375 -53.6640625 22.15234375 C-52.6534375 21.10046875 -51.6428125 20.04859375 -50.6015625 18.96484375 C-36.93294166 5.35111697 -18.76108342 0.78004505 0 0 Z " fill="#FDFEFE" transform="translate(1344.6640625,517.84765625)"/>
<path d="M0 0 C2.328125 2.109375 2.328125 2.109375 4 4 C4 4.66 4 5.32 4 6 C5.98 6.99 5.98 6.99 8 8 C8 8.66 8 9.32 8 10 C8.66 10 9.32 10 10 10 C12.80078385 12.16424207 14.20898631 15.06300155 15.92089844 18.1027832 C16.90695005 19.83640471 17.93390075 21.54659906 18.96484375 23.25390625 C23.71877492 31.2273314 27.37235545 39.04212086 30 48 C30.3196875 49.07765625 30.639375 50.1553125 30.96875 51.265625 C35.13298808 68.15392387 34.97014665 88.31988663 30 105 C29.80664062 105.66612305 29.61328125 106.33224609 29.4140625 107.01855469 C24.47393932 123.64572853 16.28449034 136.83835456 4 149 C3.22140625 149.80050781 2.4428125 150.60101562 1.640625 151.42578125 C-17.62566094 170.14252548 -45.84908058 177.27398531 -72 177 C-95.822233 176.09644479 -118.14948866 170.20893529 -137 155 C-137 154.34 -137 153.68 -137 153 C-138.32 152.67 -139.64 152.34 -141 152 C-141 151.34 -141 150.68 -141 150 C-141.66 150 -142.32 150 -143 150 C-156.25962814 136.07739045 -165.28670299 119.61633896 -170 101 C-170.22558594 100.13117188 -170.45117188 99.26234375 -170.68359375 98.3671875 C-176.16767075 72.42183009 -171.00116905 43.3955351 -157 21 C-152.051785 13.6880466 -146.92681025 7.46578812 -140 2 C-139.26394531 1.36707031 -138.52789063 0.73414063 -137.76953125 0.08203125 C-123.64370655 -11.83159252 -106.3702657 -19.54850874 -88 -22 C-86.80697266 -22.16435547 -86.80697266 -22.16435547 -85.58984375 -22.33203125 C-54.63951267 -25.83319992 -24.95273809 -18.91322187 0 0 Z " fill="#FDFDFE" transform="translate(1638,541)"/>
<path d="M0 0 C26.59795073 -0.6377131 51.27246784 6.82752155 72.41015625 23.15625 C72.41015625 23.81625 72.41015625 24.47625 72.41015625 25.15625 C72.9721875 25.38699219 73.53421875 25.61773438 74.11328125 25.85546875 C83.30635525 31.06175046 89.41665181 42.25527235 94.41015625 51.15625 C95.11785156 52.36861328 95.11785156 52.36861328 95.83984375 53.60546875 C107.78349348 75.45270382 109.27672933 105.60260874 102.41015625 129.15625 C97.7495219 144.44600341 90.76116072 157.71759299 79.41015625 169.15625 C78.56453125 170.043125 77.71890625 170.93 76.84765625 171.84375 C76.04328125 172.606875 75.23890625 173.37 74.41015625 174.15625 C73.88679688 174.67445313 73.3634375 175.19265625 72.82421875 175.7265625 C53.13246646 194.25508891 24.37734134 200.75771759 -1.91821289 200.13476562 C-30.38116435 198.88584796 -55.81041124 187.79704489 -75.58984375 167.15625 C-94.09645347 145.45999121 -101.31619477 118.35901418 -99.58984375 90.15625 C-97.99913353 72.20341169 -92.087516 56.36698906 -82.58984375 41.15625 C-81.92984375 41.15625 -81.26984375 41.15625 -80.58984375 41.15625 C-80.38488281 40.46789062 -80.17992187 39.77953125 -79.96875 39.0703125 C-72.55044472 23.39310078 -52.03211571 12.10985106 -36.4140625 6.3671875 C-24.39601251 2.42694593 -12.61464974 0.54905984 0 0 Z " fill="#FDFDFE" transform="translate(957.58984375,517.84375)"/>
<path d="M0 0 C20.79 0 41.58 0 63 0 C65.31 6.6 67.62 13.2 70 20 C71.8835992 25.11262639 73.76982136 30.22233919 75.68374634 35.32339478 C79.76737042 46.21270275 83.80297891 57.11214698 87.60498047 68.10351562 C89.73217848 74.25259269 91.91257809 80.38105243 94.125 86.5 C94.59450073 87.80868042 94.59450073 87.80868042 95.07348633 89.14379883 C97.50759819 95.85207627 100.2119887 102.43161029 103 109 C110.67253726 89.1583088 118.29654354 69.30016547 125.75 49.375 C126.21471207 48.13313431 126.21471207 48.13313431 126.68881226 46.86618042 C127.91365198 43.59293017 129.13830023 40.31960837 130.36268616 37.04618835 C133.11579372 29.68693548 135.87474783 22.32992524 138.65148926 14.97955322 C139.35781623 13.10803105 140.06126848 11.23542472 140.76464844 9.36279297 C141.18004883 8.26467285 141.59544922 7.16655273 142.0234375 6.03515625 C142.38356934 5.0800415 142.74370117 4.12492676 143.11474609 3.14086914 C144 1 144 1 145 0 C146.8718094 -0.09386381 148.7471806 -0.11743804 150.62133789 -0.11352539 C152.42309227 -0.11341209 152.42309227 -0.11341209 154.26124573 -0.11329651 C155.5685112 -0.10813522 156.87577667 -0.10297394 158.22265625 -0.09765625 C159.56644132 -0.09579198 160.91022707 -0.09436812 162.25401306 -0.09336853 C165.79682277 -0.08954402 169.3395917 -0.07971432 172.88238525 -0.06866455 C176.49515227 -0.05844899 180.10792584 -0.0538706 183.72070312 -0.04882812 C190.8138188 -0.03809198 197.90690674 -0.02101636 205 0 C203.02415478 7.02029487 200.63069121 13.75925874 197.88671875 20.51318359 C197.48454636 21.51329971 197.08237396 22.51341583 196.66801453 23.5438385 C195.34527278 26.83037217 194.01637565 30.1143798 192.6875 33.3984375 C191.75364986 35.71586508 190.82022663 38.03346472 189.88720703 40.35122681 C187.67945035 45.83308293 185.46796174 51.31342068 183.25445175 56.79295599 C179.09458366 67.09118177 174.94340633 77.39291482 170.79208374 87.69458771 C169.84696425 90.03980602 168.90167194 92.3849547 167.95620728 94.73003387 C162.03634826 109.41472801 156.16449039 124.11481492 150.40527344 138.86328125 C147.7708841 145.60346208 145.08306173 152.32189649 142.390625 159.0390625 C137.44427186 171.38038783 132.52104979 183.73076838 127.609375 196.0859375 C127.24817062 196.99448738 126.88696625 197.90303726 126.51481628 198.83911896 C124.30233722 204.40446144 122.09033441 209.96999312 119.878479 215.5355835 C117.62830609 221.19734422 115.37763883 226.85890846 113.12705994 232.52050781 C109.75100634 241.01352608 106.37555835 249.5067848 103 258 C83.2 258 63.4 258 43 258 C43.71900004 254.4049998 44.43501213 251.56222589 45.71484375 248.20751953 C46.06611328 247.2810965 46.41738281 246.35467346 46.77929688 245.400177 C47.16150391 244.40444672 47.54371094 243.40871643 47.9375 242.3828125 C48.33646484 241.33463348 48.73542969 240.28645447 49.14648438 239.20651245 C50.42732112 235.84459611 51.71369866 232.48482876 53 229.125 C53.83497301 226.93372236 54.66961161 224.74231726 55.50390625 222.55078125 C56.33589608 220.36977586 57.16792726 218.18878625 58 216.0078125 C58.41024414 214.9289679 58.82048828 213.85012329 59.24316406 212.73858643 C61.32241809 207.29287744 63.44774479 201.87331096 65.66796875 196.48339844 C66.09142578 195.44311493 66.51488281 194.40283142 66.95117188 193.33102417 C67.75242556 191.36968126 68.56675759 189.41361022 69.39648438 187.46414185 C72.04762146 180.9395233 72.33168006 176.83649927 69.97875977 170.05786133 C69.55393311 169.0758374 69.12910645 168.09381348 68.69140625 167.08203125 C68.20140137 165.93404053 67.71139648 164.7860498 67.20654297 163.60327148 C66.80746735 162.68347 66.80746735 162.68347 66.40032959 161.74508667 C64.90856597 158.30409756 63.44686803 154.85029281 61.98046875 151.3984375 C61.66225159 150.65132004 61.34403442 149.90420258 61.01617432 149.13444519 C57.03816038 139.77558768 53.21248194 130.35460936 49.375 120.9375 C47.83424225 117.16108689 46.29240615 113.38511513 44.75 109.609375 C44.36117142 108.65751312 43.97234283 107.70565125 43.57173157 106.72494507 C39.20130625 96.0340297 34.78902891 85.36046815 30.375 74.6875 C24.62582555 60.7818352 18.87909876 46.87519746 13.16046143 32.9569397 C12.48320977 31.30908044 11.80545521 29.66142776 11.12713623 28.01400757 C10.19006772 25.7378001 9.25494213 23.46080355 8.3203125 21.18359375 C8.05651794 20.54379578 7.79272339 19.9039978 7.52093506 19.24481201 C4.9080072 12.86637898 2.47663689 6.4392559 0 0 Z " fill="#FDFDFE" transform="translate(650,522)"/>
<path d="M0 0 C18.81 0 37.62 0 57 0 C57 13.86 57 27.72 57 42 C72.84 42 88.68 42 105 42 C105 58.5 105 75 105 92 C89.16 92 73.32 92 57 92 C57.09093743 105.46597907 57.09093743 105.46597907 57.20898438 118.93164062 C57.2631829 124.42876572 57.31429761 129.92579159 57.34643555 135.4230957 C57.37256462 139.85827544 57.41303404 144.29311945 57.46318626 148.72809029 C57.47979031 150.41479865 57.49134464 152.10156499 57.49761391 153.78834343 C57.54311351 166.17392584 57.54311351 166.17392584 61 178 C61.66 178 62.32 178 63 178 C64.33333333 179.33333333 65.66666667 180.66666667 67 182 C70.76519636 184.591983 74.84631007 184.34486258 79.25 184.3125 C80.01417236 184.30831055 80.77834473 184.30412109 81.56567383 184.29980469 C89.6826709 184.13654423 95.50350257 181.91198586 102 177 C102.33 176.34 102.66 175.68 103 175 C103.66 175 104.32 175 105 175 C105 193.15 105 211.3 105 230 C83.9566841 239.71229965 61.1664697 240.5891399 39 233 C34.85165139 231.2333677 30.9084213 229.24449921 27 227 C26.13632813 226.52046875 25.27265625 226.0409375 24.3828125 225.546875 C20.50186331 223.02743913 17.89645169 219.5643696 15 216 C14.20529297 215.03513672 14.20529297 215.03513672 13.39453125 214.05078125 C2.48876359 200.22933278 -1.1971228 183.65290493 -1.11352539 166.35913086 C-1.11367142 165.54827026 -1.11381744 164.73740967 -1.1139679 163.90197754 C-1.11327842 161.25623782 -1.10553182 158.61057098 -1.09765625 155.96484375 C-1.09578864 154.11682677 -1.09436635 152.26880928 -1.09336853 150.42079163 C-1.0895704 145.5826376 -1.0797635 140.74451412 -1.06866455 135.90637207 C-1.058392 130.95906996 -1.05385844 126.01176286 -1.04882812 121.06445312 C-1.03813854 111.37628658 -1.02056395 101.68815062 -1 92 C-7.93 92 -14.86 92 -22 92 C-22 75.5 -22 59 -22 42 C-14.74 42 -7.48 42 0 42 C0 28.14 0 14.28 0 0 Z " fill="#FDFDFE" transform="translate(1103,480)"/>
<path d="M0 0 C9.97704878 9.75533658 14.57088563 23.12449963 15.1875 36.875 C14.90730484 50.04417239 10.65692903 63.91449702 1.5625 73.5625 C-7.55741887 82.12282186 -17.23085832 85.14946503 -29.5625 85.0625 C-30.39958496 85.05686035 -31.23666992 85.0512207 -32.09912109 85.04541016 C-43.48419037 84.82173928 -52.08362673 81.60451432 -60.38671875 73.640625 C-70.88265401 62.38805115 -74.1704233 48.96534413 -74.1875 33.75 C-73.40531838 22.33014839 -69.46956439 10.00777681 -61.1875 1.75 C-60.5275 1.75 -59.8675 1.75 -59.1875 1.75 C-59.1875 1.09 -59.1875 0.43 -59.1875 -0.25 C-41.73904047 -15.05850348 -17.75312756 -12.53161945 0 0 Z " fill="#2432B7" transform="translate(1369.1875,580.25)"/>
<path d="M0 0 C0.82242187 0.60328125 1.64484375 1.2065625 2.4921875 1.828125 C12.11812485 10.16460657 15.98987321 23.27564508 17.26171875 35.51953125 C17.84897805 49.02649515 13.54357236 62.82630946 4.875 73.125 C-2.84086121 81.36031984 -11.49380517 85.79941732 -22.8046875 86.3359375 C-40.28931298 86.64636593 -40.28931298 86.64636593 -48 82 C-48.83144531 81.51789063 -49.66289063 81.03578125 -50.51953125 80.5390625 C-54.6343989 77.98590052 -56.83585411 76.32829178 -59 72 C-59.99 71.67 -60.98 71.34 -62 71 C-69.75073316 61.5242561 -71.17804145 50.46710913 -71.1875 38.625 C-71.19974609 37.82578125 -71.21199219 37.0265625 -71.22460938 36.203125 C-71.25485422 23.74224745 -67.4661819 12.38663711 -58.875 3.125 C-42.55982591 -12.0091093 -17.82112411 -13.44400591 0 0 Z " fill="#2432B7" transform="translate(1596,579)"/>
<path d="M0 0 C11.14288688 9.41652412 14.86638174 22.48668959 16.25 36.5390625 C16.58792501 48.1552348 13.20869388 58.76863702 8 69 C7.34 69 6.68 69 6 69 C5.34 70.65 4.68 72.3 4 74 C3.34 74 2.68 74 2 74 C2 74.66 2 75.32 2 76 C-10.07174786 85.52428776 -22.10533262 87.20072175 -37 86 C-45.24935641 84.72432633 -54.52613304 80.47711589 -60 74 C-60 73.34 -60 72.68 -60 72 C-60.66 72 -61.32 72 -62 72 C-71.84230359 58.62104693 -73.84435044 42.72166128 -71.50390625 26.578125 C-69.96888227 19.88299217 -67.34740488 13.98034389 -64 8 C-63.34 8 -62.68 8 -62 8 C-61.73960937 7.41089844 -61.47921875 6.82179688 -61.2109375 6.21484375 C-56.8952817 -1.67862992 -48.180182 -5.36052794 -40 -8 C-25.42981854 -10.94740312 -12.47004243 -7.7882029 0 0 Z " fill="#2432B7" transform="translate(989,579)"/>
<path d="M0 0 C1.051875 0.598125 2.10375 1.19625 3.1875 1.8125 C10.45316928 7.46357611 15.25283045 14.2480827 16.453125 23.48828125 C16.92894939 34.07537403 14.32296787 41.79026949 7.5625 49.9375 C-0.69825352 56.58639918 -7.77972692 60.73666743 -18.74609375 59.75390625 C-24.83593488 58.79946513 -29.64434102 57.03150508 -35 54 C-35 53.34 -35 52.68 -35 52 C-35.59554688 51.75765625 -36.19109375 51.5153125 -36.8046875 51.265625 C-39.42167607 49.75689849 -40.48615944 48.27261321 -42.125 45.75 C-42.62257813 45.00234375 -43.12015625 44.2546875 -43.6328125 43.484375 C-48.14465962 35.28570423 -48.43424817 25.24020758 -46.0625 16.25 C-42.77979969 7.98930815 -35.80194596 1.81119639 -28.04296875 -2.16015625 C-18.78252131 -5.96703235 -8.52737057 -5.00896361 0 0 Z " fill="#FDFDFE" transform="translate(1734,658)"/>
</svg>
